<svg width="22" height="22" viewBox="0 0 22 22" fill="none" xmlns="http://www.w3.org/2000/svg">
    <path d="M21.1639 0.83534C21.2811 0.95255 21.347 1.11152 21.347 1.27728C21.347 1.44304 21.2811 1.60201 21.1639 1.71922L11.8831 11L21.1639 20.2808C21.2811 20.398 21.347 20.557 21.347 20.7227C21.347 20.8885 21.2811 21.0474 21.1639 21.1647C21.0467 21.2819 20.8877 21.3477 20.722 21.3477C20.5562 21.3477 20.3972 21.2819 20.28 21.1647L10.9992 11.8839L1.71847 21.1647C1.60125 21.2819 1.44228 21.3477 1.27652 21.3477C1.11076 21.3477 0.951792 21.2819 0.834582 21.1647C0.717372 21.0474 0.651523 20.8885 0.651523 20.7227C0.651523 20.557 0.717371 20.398 0.834582 20.2808L10.1154 11L0.834582 1.71922C0.717371 1.60201 0.651523 1.44304 0.651523 1.27728C0.651523 1.11152 0.717372 0.95255 0.834582 0.83534C0.951792 0.71813 1.11076 0.652282 1.27652 0.652282C1.44228 0.652282 1.60125 0.71813 1.71847 0.83534L10.9992 10.1161L20.28 0.83534C20.3972 0.71813 20.5562 0.652281 20.722 0.652281C20.8877 0.652281 21.0467 0.71813 21.1639 0.83534Z" fill="#7593A7"/>
</svg>
