<svg width="30" height="30" viewBox="0 0 30 30" fill="none" xmlns="http://www.w3.org/2000/svg">
    <g clip-path="url(#clip0_389_3880)">
        <path d="M29.446 0.15625H0.557691C0.341531 0.15625 0.15625 0.341531 0.15625 0.557691V29.0754C0.15625 29.2916 0.341531 29.4769 0.557691 29.4769H29.446C29.6622 29.4769 29.8474 29.2916 29.8474 29.0754V0.557691C29.8474 0.341531 29.6622 0.15625 29.446 0.15625ZM29.0446 28.674H0.959132V6.85723H29.0291V28.674H29.0446ZM29.0446 6.05435H0.959132V0.959132H29.0291V6.05435H29.0446Z" fill="#7593A7"/>
        <path d="M29.4442 29.6449H0.555842C0.247041 29.6449 0 29.3978 0 29.089V0.555842C0 0.247041 0.247041 0 0.555842 0H29.4442C29.753 0 30 0.247041 30 0.555842V29.0736C30 29.3824 29.753 29.6294 29.4442 29.6294V29.6449ZM0.555842 0.308801C0.416881 0.308801 0.308801 0.416881 0.308801 0.555842V29.0736C0.308801 29.2126 0.416881 29.3206 0.555842 29.3206H29.4442C29.5831 29.3206 29.6912 29.2126 29.6912 29.0736V0.555842C29.6912 0.416881 29.5831 0.308801 29.4442 0.308801H0.555842ZM29.0427 28.8266H0.957283C0.880082 28.8266 0.802882 28.7648 0.802882 28.6722V6.85538C0.802882 6.77818 0.864642 6.70098 0.957283 6.70098H29.0273C29.1045 6.70098 29.1817 6.76274 29.1817 6.85538V28.6722C29.1817 28.7494 29.1199 28.8266 29.0273 28.8266H29.0427ZM1.11168 28.5178H28.8883V7.00978H1.11168V28.5178ZM29.0427 6.2069H0.957283C0.880082 6.2069 0.802882 6.14514 0.802882 6.0525V0.957283C0.802882 0.880082 0.864642 0.802882 0.957283 0.802882H29.0273C29.1045 0.802882 29.1817 0.864642 29.1817 0.957283V6.0525C29.1817 6.1297 29.1199 6.2069 29.0273 6.2069H29.0427ZM1.11168 5.8981H28.8883V1.11168H1.11168V5.8981Z" fill="#7593A7"/>
        <path d="M3.38253 4.88225C4.12365 4.88225 4.71037 4.28009 4.71037 3.55441C4.71037 2.82872 4.10821 2.22656 3.38253 2.22656C2.65685 2.22656 2.05469 2.82872 2.05469 3.55441C2.05469 4.28009 2.65685 4.88225 3.38253 4.88225ZM3.38253 3.02944C3.67589 3.02944 3.90749 3.26105 3.90749 3.55441C3.90749 3.84777 3.67589 4.07937 3.38253 4.07937C3.08917 4.07937 2.85757 3.84777 2.85757 3.55441C2.85757 3.26105 3.08917 3.02944 3.38253 3.02944Z" fill="#7593A7"/>
        <path d="M3.38068 5.0348C2.56236 5.0348 1.89844 4.37088 1.89844 3.55256C1.89844 2.73423 2.56236 2.07031 3.38068 2.07031C4.199 2.07031 4.86293 2.73423 4.86293 3.55256C4.86293 4.37088 4.199 5.0348 3.38068 5.0348ZM3.38068 2.37911C2.7322 2.37911 2.20724 2.90407 2.20724 3.55256C2.20724 4.20104 2.7322 4.726 3.38068 4.726C4.02916 4.726 4.55412 4.20104 4.55412 3.55256C4.55412 2.90407 4.02916 2.37911 3.38068 2.37911ZM3.38068 4.23192C3.01012 4.23192 2.70132 3.92312 2.70132 3.55256C2.70132 3.182 3.01012 2.87319 3.38068 2.87319C3.75124 2.87319 4.06004 3.182 4.06004 3.55256C4.06004 3.92312 3.75124 4.23192 3.38068 4.23192ZM3.38068 3.19744C3.17996 3.19744 3.01012 3.36728 3.01012 3.568C3.01012 3.76872 3.17996 3.93856 3.38068 3.93856C3.5814 3.93856 3.75124 3.76872 3.75124 3.568C3.75124 3.36728 3.5814 3.19744 3.38068 3.19744Z" fill="#7593A7"/>
        <path d="M6.74972 4.88225C7.49084 4.88225 8.07756 4.28009 8.07756 3.55441C8.07756 2.82872 7.4754 2.22656 6.74972 2.22656C6.02404 2.22656 5.42188 2.82872 5.42188 3.55441C5.42188 4.28009 6.02404 4.88225 6.74972 4.88225ZM6.74972 3.02944C7.04308 3.02944 7.27468 3.26105 7.27468 3.55441C7.27468 3.84777 7.04308 4.07937 6.74972 4.07937C6.45636 4.07937 6.22476 3.84777 6.22476 3.55441C6.22476 3.26105 6.45636 3.02944 6.74972 3.02944Z" fill="#7593A7"/>
        <path d="M6.74787 5.0348C5.92955 5.0348 5.26562 4.37088 5.26562 3.55256C5.26562 2.73423 5.92955 2.07031 6.74787 2.07031C7.56619 2.07031 8.23011 2.73423 8.23011 3.55256C8.23011 4.37088 7.56619 5.0348 6.74787 5.0348ZM6.74787 2.37911C6.09939 2.37911 5.57443 2.90407 5.57443 3.55256C5.57443 4.20104 6.09939 4.726 6.74787 4.726C7.39635 4.726 7.92131 4.20104 7.92131 3.55256C7.92131 2.90407 7.39635 2.37911 6.74787 2.37911ZM6.74787 4.23192C6.37731 4.23192 6.06851 3.92312 6.06851 3.55256C6.06851 3.182 6.37731 2.87319 6.74787 2.87319C7.11843 2.87319 7.42723 3.182 7.42723 3.55256C7.42723 3.92312 7.11843 4.23192 6.74787 4.23192ZM6.74787 3.19744C6.54715 3.19744 6.37731 3.36728 6.37731 3.568C6.37731 3.76872 6.54715 3.93856 6.74787 3.93856C6.94859 3.93856 7.11843 3.76872 7.11843 3.568C7.11843 3.36728 6.94859 3.19744 6.74787 3.19744Z" fill="#7593A7"/>
        <path d="M10.1169 4.88225C10.858 4.88225 11.4447 4.28009 11.4447 3.55441C11.4447 2.82872 10.8426 2.22656 10.1169 2.22656C9.39122 2.22656 8.78906 2.82872 8.78906 3.55441C8.78906 4.28009 9.39122 4.88225 10.1169 4.88225ZM10.1169 3.02944C10.4103 3.02944 10.6419 3.26105 10.6419 3.55441C10.6419 3.84777 10.4103 4.07937 10.1169 4.07937C9.82355 4.07937 9.59194 3.84777 9.59194 3.55441C9.59194 3.26105 9.82355 3.02944 10.1169 3.02944Z" fill="#7593A7"/>
        <path d="M10.1151 5.0348C9.29673 5.0348 8.63281 4.37088 8.63281 3.55256C8.63281 2.73423 9.29673 2.07031 10.1151 2.07031C10.9334 2.07031 11.5973 2.73423 11.5973 3.55256C11.5973 4.37088 10.9334 5.0348 10.1151 5.0348ZM10.1151 2.37911C9.46657 2.37911 8.94161 2.90407 8.94161 3.55256C8.94161 4.20104 9.46657 4.726 10.1151 4.726C10.7635 4.726 11.2885 4.20104 11.2885 3.55256C11.2885 2.90407 10.7635 2.37911 10.1151 2.37911ZM10.1151 4.23192C9.7445 4.23192 9.43569 3.92312 9.43569 3.55256C9.43569 3.182 9.7445 2.87319 10.1151 2.87319C10.4856 2.87319 10.7944 3.182 10.7944 3.55256C10.7944 3.92312 10.4856 4.23192 10.1151 4.23192ZM10.1151 3.19744C9.91434 3.19744 9.7445 3.36728 9.7445 3.568C9.7445 3.76872 9.91434 3.93856 10.1151 3.93856C10.3158 3.93856 10.4856 3.76872 10.4856 3.568C10.4856 3.36728 10.3158 3.19744 10.1151 3.19744Z" fill="#7593A7"/>
        <path d="M11.2866 22.4513C11.3638 22.5285 11.4719 22.5594 11.5645 22.5594C11.6572 22.5594 11.7653 22.5285 11.8425 22.4513L22.4961 12.0601C22.6505 11.9057 22.6659 11.6432 22.4961 11.4888C22.3417 11.3344 22.0792 11.319 21.9248 11.4888L11.5491 21.6021L8.18318 18.3597C8.02878 18.2053 7.76629 18.2053 7.61189 18.3597C7.45749 18.5141 7.45749 18.7765 7.61189 18.9309L11.2557 22.4358L11.2866 22.4513Z" fill="#7593A7"/>
        <path d="M11.5786 22.714C11.4396 22.714 11.3007 22.6523 11.1926 22.5596L7.54875 19.0548C7.44067 18.9467 7.37891 18.8077 7.37891 18.6688C7.37891 18.5144 7.42523 18.3754 7.53331 18.2673C7.74947 18.0512 8.10459 18.0357 8.32075 18.2673L11.5786 21.4016L21.8462 11.3965C22.0624 11.1803 22.4175 11.1803 22.6337 11.3965C22.8498 11.6127 22.8498 11.9678 22.6337 12.1839L11.98 22.5751C11.872 22.6832 11.733 22.7295 11.594 22.7295L11.5786 22.714ZM7.93475 18.3908C7.93475 18.3908 7.79579 18.4217 7.74947 18.468C7.70315 18.5144 7.67227 18.5761 7.67227 18.6533C7.67227 18.7151 7.70315 18.7768 7.74947 18.8232L11.3933 22.328C11.486 22.4207 11.6558 22.4207 11.7484 22.328L22.4021 11.9369C22.4947 11.8443 22.5101 11.6744 22.4021 11.5818C22.3094 11.4891 22.1396 11.4737 22.0469 11.5818L11.6712 21.695C11.6712 21.695 11.5168 21.7568 11.4551 21.695L8.08915 18.4526C8.08915 18.4526 7.98107 18.3754 7.91931 18.3754L7.93475 18.3908Z" fill="#7593A7"/>
    </g>
    <defs>
        <clipPath id="clip0_389_3880">
            <rect width="30" height="29.6449" fill="white"/>
        </clipPath>
    </defs>
</svg>
