<svg width="20" height="23" viewBox="0 0 20 23" fill="none" xmlns="http://www.w3.org/2000/svg">
    <g clip-path="url(#clip0_603_650)">
        <path d="M9.98299 2.13344C13.7657 2.13344 17.3126 4.32719 18.9528 7.82283C20.0804 10.2216 20.2034 12.9074 19.3013 15.3984C18.4094 17.8792 16.595 19.8679 14.1962 20.9956C9.25516 23.3123 3.3505 21.1801 1.03374 16.239C-0.88323 12.1488 0.203393 7.27952 3.68879 4.40919C3.80155 4.31693 3.97582 4.32719 4.06808 4.4502C4.16034 4.56296 4.15009 4.73723 4.02707 4.82949C0.736453 7.54605 -0.298915 12.1488 1.51554 16.0135C3.71954 20.6778 9.30642 22.6973 13.9707 20.5035C16.2362 19.4374 17.9481 17.5614 18.799 15.2139C19.6498 12.8664 19.5268 10.3241 18.4709 8.05861C16.7078 4.29643 12.6073 2.13344 8.49658 2.79976C8.35306 2.82027 8.20954 2.72801 8.18904 2.57424C8.16854 2.43072 8.2608 2.28721 8.41457 2.2667C8.93738 2.18469 9.46018 2.14369 9.98299 2.14369V2.13344Z" fill="#433A34"/>
        <path d="M9.98471 2.04159C13.8494 2.04159 17.4065 4.29684 19.0467 7.79248C20.1846 10.2015 20.3076 12.9181 19.3953 15.4296C18.4932 17.9411 16.6582 19.9504 14.2492 21.078C11.8299 22.2159 9.11336 22.3389 6.60183 21.4265C4.0903 20.5142 2.08107 18.6895 0.943195 16.2804C-0.994273 12.1492 0.1026 7.22867 3.629 4.3276C3.78276 4.19433 4.01854 4.22508 4.15181 4.37885C4.28507 4.53262 4.25432 4.7684 4.10055 4.90166C0.840683 7.58746 -0.17418 12.139 1.61977 15.9729C2.66539 18.2077 4.5311 19.8991 6.85811 20.7397C9.18512 21.5803 11.6967 21.4675 13.9314 20.4219C16.1662 19.3763 17.8678 17.5106 18.7084 15.1836C19.549 12.8566 19.4363 10.345 18.3804 8.11027C16.6377 4.3891 12.5783 2.24661 8.5188 2.90269C8.42654 2.92319 8.32402 2.90269 8.24201 2.84118C8.16001 2.77967 8.10875 2.69766 8.08825 2.59515C8.06775 2.50289 8.08825 2.40038 8.14975 2.31837C8.21126 2.23636 8.29327 2.18511 8.38553 2.1646C8.90834 2.08259 9.4414 2.03134 9.97446 2.03134L9.98471 2.04159ZM10.0155 21.8366C11.4301 21.8366 12.8448 21.529 14.1569 20.9037C16.5249 19.7863 18.3189 17.8181 19.2107 15.3578C20.1026 12.8976 19.9796 10.2425 18.8622 7.87449C17.2528 4.45061 13.7674 2.24661 9.98471 2.24661C9.4619 2.24661 8.93909 2.28762 8.42654 2.36962C8.38553 2.36962 8.34453 2.40038 8.31377 2.44138C8.28302 2.48239 8.27277 2.52339 8.28302 2.5644C8.28302 2.6054 8.31377 2.64641 8.35478 2.67716C8.39578 2.69766 8.43679 2.70791 8.47779 2.70791C12.6295 2.03134 16.771 4.22508 18.5547 8.02826C19.631 10.3143 19.7438 12.8873 18.893 15.2553C18.0319 17.6233 16.2994 19.5198 14.0134 20.5962C11.7274 21.6725 9.16462 21.7853 6.78635 20.9242C4.40808 20.0631 2.51162 18.3307 1.43525 16.0549C-0.399706 12.139 0.645911 7.4952 3.96728 4.74789C4.03904 4.68639 4.04929 4.58387 3.98779 4.51212C3.92628 4.44036 3.82377 4.43011 3.75201 4.49161C0.307623 7.34143 -0.778998 12.1492 1.12772 16.1984C2.23484 18.5664 4.20306 20.3501 6.66334 21.242C7.74996 21.6315 8.87759 21.8263 10.0052 21.8263L10.0155 21.8366Z" fill="#433A34"/>
        <path d="M11.0417 0.0941598C11.1237 0.0941598 11.2057 0.135163 11.257 0.206921C11.3492 0.329935 11.3185 0.493954 11.1954 0.586215L8.59165 2.50318L11.2057 4.39964C11.3287 4.48165 11.3492 4.65592 11.2672 4.77894C11.1852 4.90195 11.0109 4.92245 10.8879 4.84044L7.97658 2.72871C7.90482 2.67745 7.86382 2.59544 7.86382 2.51343C7.86382 2.43142 7.90482 2.34941 7.97658 2.29816L10.8674 0.155666C10.8674 0.155666 10.9699 0.104411 11.0314 0.104411L11.0417 0.0941598Z" fill="#433A34"/>
        <path d="M11.0403 0.00146156C11.153 0.00146156 11.2658 0.0527169 11.3376 0.155228C11.3991 0.237238 11.4196 0.329499 11.4093 0.43201C11.3991 0.534522 11.3478 0.616531 11.2658 0.678038L8.77476 2.51299L11.2863 4.32745C11.3683 4.38895 11.4196 4.47096 11.4298 4.56322C11.4503 4.65548 11.4298 4.758 11.3683 4.84001C11.3068 4.92201 11.2248 4.97327 11.1223 4.98352C11.03 5.00403 10.9275 4.98352 10.8455 4.92201L7.93417 2.81028C7.84191 2.73852 7.7804 2.62576 7.7804 2.51299C7.7804 2.40023 7.83166 2.28747 7.93417 2.21571L10.825 0.0732193C10.8865 0.0219636 10.9685 0.00146156 11.0403 0.00146156ZM11.0608 4.78875C11.0608 4.78875 11.0813 4.78875 11.0915 4.78875C11.1325 4.78875 11.1735 4.758 11.2043 4.71699C11.2555 4.64523 11.2453 4.53247 11.1633 4.48121L8.54924 2.58475C8.54924 2.58475 8.50823 2.5335 8.50823 2.50274C8.50823 2.47199 8.51848 2.44124 8.54924 2.42073L11.153 0.503768C11.2248 0.452512 11.2453 0.33975 11.1838 0.267992C11.1325 0.196234 11.0198 0.175731 10.948 0.237238L8.05718 2.37973C8.05718 2.37973 7.98542 2.46174 7.98542 2.51299C7.98542 2.56425 8.01618 2.61551 8.05718 2.64626L10.9685 4.758C10.9685 4.758 11.03 4.78875 11.071 4.78875H11.0608Z" fill="#433A34"/>
    </g>
    <defs>
        <clipPath id="clip0_603_650">
            <rect width="20" height="22.0297" fill="white" transform="matrix(-1 0 0 -1 20 22.0312)"/>
        </clipPath>
    </defs>
</svg>
