<svg width="20" height="23" viewBox="0 0 20 23" fill="none" xmlns="http://www.w3.org/2000/svg">
    <path d="M18.28 9.20312H1.72C1.32235 9.20312 1 9.51013 1 9.88884V20.5174C1 20.8961 1.32235 21.2031 1.72 21.2031H18.28C18.6776 21.2031 19 20.8961 19 20.5174V9.88884C19 9.51013 18.6776 9.20312 18.28 9.20312Z" stroke="#433A34" stroke-width="1.5" stroke-linecap="round" stroke-linejoin="round"/>
    <path d="M6 9.20312V5.49267C6 3.1227 7.79 1.20312 10 1.20312C12.21 1.20312 14 3.1227 14 5.49267V9.20312" stroke="#433A34" stroke-width="1.5" stroke-linecap="round" stroke-linejoin="round"/>
    <path d="M10.5338 14.4454V12.7174C10.5338 12.4328 10.2954 12.2031 10 12.2031C9.70463 12.2031 9.46619 12.4328 9.46619 12.7174V14.4454C8.59075 14.6923 8 15.4123 8 16.2763C8 17.3391 8.78648 18.2031 10 18.2031C11.2135 18.2031 12 17.3391 12 16.2763C12 15.4157 11.4093 14.6923 10.5338 14.4454Z" stroke="#433A34" stroke-width="1.5" stroke-linecap="round" stroke-linejoin="round"/>
</svg>
