<svg width="30" height="30" viewBox="0 0 30 30" fill="none" xmlns="http://www.w3.org/2000/svg">
    <path d="M29.8455 29.0764V0.558665C29.8455 0.342504 29.6602 0.157227 29.4441 0.157227H0.555738C0.339577 0.157227 0.154297 0.342504 0.154297 0.558665V29.0764C0.154297 29.2926 0.339577 29.4779 0.555738 29.4779H29.4441C29.6602 29.4779 29.8455 29.2926 29.8455 29.0764ZM29.0426 28.675H0.957179V6.8582H29.0272V28.675H29.0426ZM29.0426 6.05532H0.957179V0.960104H29.0272V6.05532H29.0426Z" fill="#7593A7"/>
    <path d="M29.4442 29.6294H0.555841C0.247041 29.6294 0 29.3824 0 29.0736V0.555842C0 0.247042 0.247041 0 0.555841 0H29.4442C29.753 0 30 0.247042 30 0.555842V29.0736C30 29.3824 29.753 29.6294 29.4442 29.6294ZM0.555841 0.308802C0.416881 0.308802 0.308801 0.416882 0.308801 0.555842V29.0736C0.308801 29.2126 0.416881 29.3206 0.555841 29.3206H29.4442C29.5831 29.3206 29.6912 29.2126 29.6912 29.0736V0.555842C29.6912 0.416882 29.5831 0.308802 29.4442 0.308802H0.555841ZM29.0427 28.8266H0.957283C0.880082 28.8266 0.802882 28.7648 0.802882 28.6722V6.85538C0.802882 6.77818 0.864642 6.70098 0.957283 6.70098H29.0273C29.1045 6.70098 29.1817 6.76274 29.1817 6.85538V28.6722C29.1817 28.7494 29.1199 28.8266 29.0273 28.8266H29.0427ZM1.11168 28.5178H28.8883V7.00978H1.11168V28.5178ZM29.0427 6.19146H0.957283C0.880082 6.19146 0.802882 6.1297 0.802882 6.03706V0.941843C0.802882 0.864643 0.864642 0.787445 0.957283 0.787445H29.0273C29.1045 0.787445 29.1817 0.849203 29.1817 0.941843V6.03706C29.1817 6.11426 29.1199 6.19146 29.0273 6.19146H29.0427ZM1.11168 5.88266H28.8883V1.09624H1.11168V5.88266Z" fill="#7593A7"/>
    <path d="M3.38058 4.87541C4.1217 4.87541 4.70842 4.27325 4.70842 3.54757C4.70842 2.82188 4.10626 2.21973 3.38058 2.21973C2.6549 2.21973 2.05273 2.82188 2.05273 3.54757C2.05273 4.27325 2.6549 4.87541 3.38058 4.87541ZM3.38058 3.0226C3.67394 3.0226 3.90554 3.2542 3.90554 3.54757C3.90554 3.84093 3.67394 4.07253 3.38058 4.07253C3.08722 4.07253 2.85562 3.84093 2.85562 3.54757C2.85562 3.2542 3.08722 3.0226 3.38058 3.0226Z" fill="#7593A7"/>
    <path d="M3.38068 5.01527C2.56236 5.01527 1.89844 4.35135 1.89844 3.53302C1.89844 2.7147 2.56236 2.05078 3.38068 2.05078C4.199 2.05078 4.86293 2.7147 4.86293 3.53302C4.86293 4.35135 4.199 5.01527 3.38068 5.01527ZM3.38068 2.35958C2.7322 2.35958 2.20724 2.88454 2.20724 3.53302C2.20724 4.18151 2.7322 4.70646 3.38068 4.70646C4.02916 4.70646 4.55412 4.18151 4.55412 3.53302C4.55412 2.88454 4.02916 2.35958 3.38068 2.35958ZM3.38068 4.21238C3.01012 4.21238 2.70132 3.90358 2.70132 3.53302C2.70132 3.16246 3.01012 2.85366 3.38068 2.85366C3.75124 2.85366 4.06004 3.16246 4.06004 3.53302C4.06004 3.90358 3.75124 4.21238 3.38068 4.21238ZM3.38068 3.1779C3.17996 3.1779 3.01012 3.34774 3.01012 3.54846C3.01012 3.74918 3.17996 3.91902 3.38068 3.91902C3.5814 3.91902 3.75124 3.74918 3.75124 3.54846C3.75124 3.34774 3.5814 3.1779 3.38068 3.1779Z" fill="#7593A7"/>
    <path d="M6.74777 4.87541C7.48889 4.87541 8.07561 4.27325 8.07561 3.54757C8.07561 2.82188 7.47345 2.21973 6.74777 2.21973C6.02208 2.21973 5.41992 2.82188 5.41992 3.54757C5.41992 4.27325 6.02208 4.87541 6.74777 4.87541ZM6.74777 3.0226C7.04113 3.0226 7.27273 3.2542 7.27273 3.54757C7.27273 3.84093 7.04113 4.07253 6.74777 4.07253C6.4544 4.07253 6.2228 3.84093 6.2228 3.54757C6.2228 3.2542 6.4544 3.0226 6.74777 3.0226Z" fill="#7593A7"/>
    <path d="M6.74787 5.01527C5.92955 5.01527 5.26562 4.35135 5.26562 3.53302C5.26562 2.7147 5.92955 2.05078 6.74787 2.05078C7.56619 2.05078 8.23011 2.7147 8.23011 3.53302C8.23011 4.35135 7.56619 5.01527 6.74787 5.01527ZM6.74787 2.35958C6.09939 2.35958 5.57443 2.88454 5.57443 3.53302C5.57443 4.18151 6.09939 4.70646 6.74787 4.70646C7.39635 4.70646 7.92131 4.18151 7.92131 3.53302C7.92131 2.88454 7.39635 2.35958 6.74787 2.35958ZM6.74787 4.21238C6.37731 4.21238 6.06851 3.90358 6.06851 3.53302C6.06851 3.16246 6.37731 2.85366 6.74787 2.85366C7.11843 2.85366 7.42723 3.16246 7.42723 3.53302C7.42723 3.90358 7.11843 4.21238 6.74787 4.21238ZM6.74787 3.1779C6.54715 3.1779 6.37731 3.34774 6.37731 3.54846C6.37731 3.74918 6.54715 3.91902 6.74787 3.91902C6.94859 3.91902 7.11843 3.74918 7.11843 3.54846C7.11843 3.34774 6.94859 3.1779 6.74787 3.1779Z" fill="#7593A7"/>
    <path d="M10.113 4.87541C10.8541 4.87541 11.4408 4.27325 11.4408 3.54757C11.4408 2.82188 10.8387 2.21973 10.113 2.21973C9.38732 2.21973 8.78516 2.82188 8.78516 3.54757C8.78516 4.27325 9.38732 4.87541 10.113 4.87541ZM10.113 3.0226C10.4064 3.0226 10.638 3.2542 10.638 3.54757C10.638 3.84093 10.4064 4.07253 10.113 4.07253C9.81964 4.07253 9.58804 3.84093 9.58804 3.54757C9.58804 3.2542 9.81964 3.0226 10.113 3.0226Z" fill="#7593A7"/>
    <path d="M10.1131 5.01527C9.29478 5.01527 8.63086 4.35135 8.63086 3.53302C8.63086 2.7147 9.29478 2.05078 10.1131 2.05078C10.9314 2.05078 11.5953 2.7147 11.5953 3.53302C11.5953 4.35135 10.9314 5.01527 10.1131 5.01527ZM10.1131 2.35958C9.46462 2.35958 8.93966 2.88454 8.93966 3.53302C8.93966 4.18151 9.46462 4.70646 10.1131 4.70646C10.7616 4.70646 11.2865 4.18151 11.2865 3.53302C11.2865 2.88454 10.7616 2.35958 10.1131 2.35958ZM10.1131 4.21238C9.74254 4.21238 9.43374 3.90358 9.43374 3.53302C9.43374 3.16246 9.74254 2.85366 10.1131 2.85366C10.4837 2.85366 10.7925 3.16246 10.7925 3.53302C10.7925 3.90358 10.4837 4.21238 10.1131 4.21238ZM10.1131 3.1779C9.91238 3.1779 9.74254 3.34774 9.74254 3.54846C9.74254 3.74918 9.91238 3.91902 10.1131 3.91902C10.3138 3.91902 10.4837 3.74918 10.4837 3.54846C10.4837 3.34774 10.3138 3.1779 10.1131 3.1779Z" fill="#7593A7"/>
    <path d="M7.95167 24.2727H22.5425C22.6815 24.2727 22.8204 24.1955 22.8822 24.072C22.9594 23.9485 22.9594 23.8095 22.8822 23.6705L15.579 9.41938C15.4401 9.14146 14.9923 9.14146 14.8534 9.41938L7.55023 23.6705C7.48847 23.794 7.48847 23.9485 7.55023 24.072C7.62743 24.1955 7.75095 24.2727 7.88991 24.2727H7.95167ZM15.2548 10.5002L21.894 23.4698H8.60015L15.2394 10.5002H15.2548Z" fill="#7593A7"/>
    <path d="M22.5417 24.4286H7.95085C7.76557 24.4286 7.58029 24.3206 7.47221 24.1662C7.37957 23.9963 7.36413 23.7956 7.45677 23.6258L14.7599 9.3746C14.8526 9.20476 15.0378 9.09668 15.254 9.09668C15.4702 9.09668 15.6554 9.20476 15.7481 9.3746L23.0512 23.6258C23.1439 23.7956 23.1284 24.0118 23.0358 24.1662C22.9277 24.336 22.7579 24.4286 22.5571 24.4286H22.5417ZM15.2386 9.3746C15.1614 9.3746 15.0533 9.40548 15.007 9.49812L7.70381 23.7493C7.65749 23.8265 7.67293 23.9191 7.70381 23.9963C7.75013 24.0735 7.82733 24.1198 7.91997 24.1198H22.5108C22.6035 24.1198 22.6807 24.0735 22.727 23.9963C22.7733 23.9191 22.7733 23.8265 22.727 23.7493L15.4238 9.49812C15.3775 9.40548 15.2849 9.3746 15.1922 9.3746H15.2386ZM21.8778 23.6103H8.59933C8.59933 23.6103 8.49125 23.5794 8.47581 23.5331C8.44493 23.4868 8.44493 23.425 8.47581 23.3787L15.115 10.4091C15.1614 10.301 15.3312 10.301 15.3775 10.4091L22.0167 23.3787C22.0167 23.3787 22.0322 23.4868 22.0167 23.5331C21.9859 23.5794 21.9395 23.6103 21.8932 23.6103H21.8778ZM8.84638 23.3015H21.6153L15.2231 10.826L8.83093 23.3015H8.84638Z" fill="#7593A7"/>
    <path d="M15.2393 19.9984C15.4555 19.9984 15.6408 19.8131 15.6408 19.5969V13.8223C15.6408 13.6062 15.4555 13.4209 15.2393 13.4209C15.0232 13.4209 14.8379 13.6062 14.8379 13.8223V19.5969C14.8379 19.8131 15.0232 19.9984 15.2393 19.9984Z" fill="#7593A7"/>
    <path d="M15.2394 20.1499C14.9306 20.1499 14.6836 19.9029 14.6836 19.5941V13.8195C14.6836 13.5107 14.9306 13.2637 15.2394 13.2637C15.5482 13.2637 15.7953 13.5107 15.7953 13.8195V19.5941C15.7953 19.9029 15.5482 20.1499 15.2394 20.1499ZM15.2394 13.5725C15.1005 13.5725 14.9924 13.6806 14.9924 13.8195V19.5941C14.9924 19.733 15.1005 19.8411 15.2394 19.8411C15.3784 19.8411 15.4865 19.733 15.4865 19.5941V13.8195C15.4865 13.6806 15.3784 13.5725 15.2394 13.5725Z" fill="#7593A7"/>
    <path d="M15.2085 20.3506C14.6527 20.3506 14.1895 20.8138 14.1895 21.3696C14.1895 21.9255 14.6527 22.3887 15.2085 22.3887C15.7643 22.3887 16.2275 21.9255 16.2275 21.3696C16.2275 20.8138 15.7643 20.3506 15.2085 20.3506ZM15.2085 21.5703C15.1004 21.5703 15.0078 21.4777 15.0078 21.3696C15.0078 21.2615 15.1004 21.1689 15.2085 21.1689C15.3166 21.1689 15.4092 21.2615 15.4092 21.3696C15.4092 21.4777 15.3166 21.5703 15.2085 21.5703Z" fill="#7593A7"/>
    <path d="M15.2086 22.5285C14.5601 22.5285 14.0352 22.0036 14.0352 21.3551C14.0352 20.7066 14.5601 20.1816 15.2086 20.1816C15.8571 20.1816 16.382 20.7066 16.382 21.3551C16.382 22.0036 15.8571 22.5285 15.2086 22.5285ZM15.2086 20.4904C14.73 20.4904 14.344 20.8764 14.344 21.3551C14.344 21.8337 14.73 22.2197 15.2086 22.2197C15.6872 22.2197 16.0732 21.8337 16.0732 21.3551C16.0732 20.8764 15.6872 20.4904 15.2086 20.4904ZM15.2086 21.7102C15.0079 21.7102 14.8535 21.5558 14.8535 21.3551C14.8535 21.1544 15.0079 21 15.2086 21C15.4093 21 15.5637 21.1544 15.5637 21.3551C15.5637 21.5558 15.4093 21.7102 15.2086 21.7102ZM15.2086 21.2933C15.2086 21.2933 15.1468 21.3242 15.1468 21.3551C15.1468 21.4168 15.2549 21.4168 15.2549 21.3551C15.2549 21.3242 15.224 21.2933 15.1932 21.2933H15.2086Z" fill="#7593A7"/>
</svg>
