<svg width="22" height="20" viewBox="0 0 22 20" fill="none" xmlns="http://www.w3.org/2000/svg">
    <g clip-path="url(#clip0_603_574)">
        <path d="M21.5878 19.0276H0.41027C0.250353 19.0276 0.113281 18.8905 0.113281 18.7306C0.113281 18.5707 0.250353 18.4336 0.41027 18.4336H21.5878C21.7478 18.4336 21.8848 18.5707 21.8848 18.7306C21.8848 18.8905 21.7478 19.0276 21.5878 19.0276Z" fill="white"/>
        <path d="M21.5888 19.1427H0.411215C0.182762 19.1427 0 18.96 0 18.7315C0 18.5031 0.182762 18.3203 0.411215 18.3203H21.5888C21.8172 18.3203 22 18.5031 22 18.7315C22 18.96 21.8172 19.1427 21.5888 19.1427ZM0.411215 18.5373C0.308411 18.5373 0.228453 18.6173 0.228453 18.7201C0.228453 18.8229 0.308411 18.9029 0.411215 18.9029H21.5888C21.6916 18.9029 21.7715 18.8229 21.7715 18.7201C21.7715 18.6173 21.6916 18.5373 21.5888 18.5373H0.411215Z" fill="white"/>
        <path d="M5.95152 17.2148C5.95152 17.2148 5.83729 17.2034 5.7916 17.1691C5.71164 17.112 5.66595 17.0321 5.65453 16.9407L5.4375 13.4796C5.4375 13.4111 5.44892 13.354 5.48319 13.2969L13.9359 0.252204C14.0273 0.115133 14.2101 0.069442 14.3472 0.160823L17.7968 2.39966C17.8653 2.44535 17.911 2.51389 17.9224 2.59384C17.9339 2.6738 17.9224 2.75376 17.8768 2.8223L9.424 15.8555C9.424 15.8555 9.33262 15.9469 9.27551 15.9698L6.03148 17.192C6.03148 17.192 5.96294 17.2148 5.92867 17.2148H5.95152ZM6.0429 13.5367L6.22566 16.4952L8.98994 15.4557L17.2257 2.74234L14.2786 0.834759L6.0429 13.5367Z" fill="white"/>
        <path d="M5.95246 17.3177C5.87251 17.3177 5.79255 17.2948 5.72401 17.2491C5.60979 17.1806 5.54125 17.0549 5.54125 16.9293L5.32422 13.4682C5.32422 13.3769 5.34706 13.2969 5.39275 13.2169L13.8341 0.183704C13.8912 0.092323 13.9826 0.0237872 14.0968 0.000941887C14.211 -0.0219034 14.3138 0.000941889 14.4052 0.0580551L17.8549 2.29689C17.9462 2.35401 18.0148 2.44539 18.0376 2.55961C18.0605 2.66242 18.0376 2.77664 17.9805 2.86802L9.52775 15.9013C9.48206 15.9698 9.41352 16.0269 9.33356 16.0612L6.08954 17.2834C6.08954 17.2834 5.99815 17.3062 5.94104 17.3062L5.95246 17.3177ZM14.1882 0.229395C14.1882 0.229395 14.1653 0.229395 14.1539 0.229395C14.1082 0.229395 14.0625 0.263663 14.0397 0.309353L5.58694 13.3426C5.58694 13.3426 5.55267 13.4111 5.55267 13.4568L5.7697 16.9179C5.7697 16.975 5.80397 17.0321 5.84966 17.0664C5.89535 17.1006 5.96389 17.1006 6.021 17.0892L9.26503 15.867C9.26503 15.867 9.33356 15.8327 9.35641 15.7984L17.7977 2.7538C17.7977 2.7538 17.832 2.66242 17.8206 2.61673C17.8206 2.57104 17.7863 2.52534 17.7406 2.5025L14.291 0.25224C14.291 0.25224 14.2225 0.217972 14.1882 0.217972V0.229395ZM6.22661 16.6095C6.22661 16.6095 6.18092 16.6095 6.16949 16.5866C6.13523 16.5638 6.1238 16.5295 6.1238 16.4952L5.94104 13.5368C5.94104 13.5368 5.94104 13.4911 5.96389 13.4682L14.1768 0.766259C14.1768 0.766259 14.2796 0.697723 14.3367 0.731991L17.2837 2.63957C17.2837 2.63957 17.3294 2.68526 17.3294 2.70811C17.3294 2.74237 17.3294 2.76522 17.318 2.78807L9.08227 15.49C9.08227 15.49 9.048 15.5243 9.02515 15.5357L6.26088 16.5752C6.26088 16.5752 6.23803 16.5752 6.22661 16.5752V16.6095ZM6.15807 13.571L6.32941 16.3353L8.92235 15.353L17.0667 2.77664L14.3024 0.983289L6.14665 13.5596L6.15807 13.571ZM9.19649 15.8099C9.13938 15.8099 9.08227 15.7642 9.08227 15.6956C9.08227 15.6271 9.12796 15.5814 9.19649 15.5814C9.25361 15.5814 9.31072 15.6271 9.31072 15.6956C9.31072 15.7642 9.26503 15.8099 9.19649 15.8099Z" fill="white"/>
    </g>
    <defs>
        <clipPath id="clip0_603_574">
            <rect width="22" height="19.6469" fill="white"/>
        </clipPath>
    </defs>
</svg>
