<svg width="40" height="40" viewBox="0 0 40 40" fill="none" xmlns="http://www.w3.org/2000/svg">
<g clip-path="url(#clip0_379_16498)">
<g clip-path="url(#clip1_379_16498)">
<path d="M30.1649 9.83534C30.2821 9.95255 30.3479 10.1115 30.3479 10.2773C30.3479 10.443 30.2821 10.602 30.1649 10.7192L20.8841 20L30.1649 29.2808C30.2821 29.398 30.3479 29.557 30.3479 29.7227C30.3479 29.8885 30.2821 30.0474 30.1649 30.1647C30.0477 30.2819 29.8887 30.3477 29.7229 30.3477C29.5572 30.3477 29.3982 30.2819 29.281 30.1647L20.0002 20.8839L10.7194 30.1647C10.6022 30.2819 10.4433 30.3477 10.2775 30.3477C10.1117 30.3477 9.95277 30.2819 9.83556 30.1647C9.71835 30.0474 9.6525 29.8885 9.6525 29.7227C9.6525 29.557 9.71835 29.398 9.83556 29.2808L19.1163 20L9.83556 10.7192C9.71835 10.602 9.6525 10.443 9.6525 10.2773C9.6525 10.1115 9.71835 9.95255 9.83556 9.83534C9.95277 9.71813 10.1117 9.65228 10.2775 9.65228C10.4433 9.65228 10.6022 9.71813 10.7194 9.83534L20.0002 19.1161L29.281 9.83534C29.3982 9.71813 29.5572 9.65228 29.7229 9.65228C29.8887 9.65228 30.0477 9.71813 30.1649 9.83534Z" fill="#433A34"/>
</g>
</g>
<defs>
<clipPath id="clip0_379_16498">
<rect width="40" height="40" fill="white"/>
</clipPath>
<clipPath id="clip1_379_16498">
<rect width="40" height="40" fill="white"/>
</clipPath>
</defs>
</svg>
