<svg width="20" height="20" viewBox="0 0 20 20" fill="none" xmlns="http://www.w3.org/2000/svg">
<path d="M9.99984 9.58268C9.4473 9.58268 8.9174 9.36319 8.5267 8.97249C8.136 8.58179 7.9165 8.05188 7.9165 7.49935C7.9165 6.94681 8.136 6.41691 8.5267 6.02621C8.9174 5.63551 9.4473 5.41602 9.99984 5.41602C10.5524 5.41602 11.0823 5.63551 11.473 6.02621C11.8637 6.41691 12.0832 6.94681 12.0832 7.49935C12.0832 7.77294 12.0293 8.04384 11.9246 8.29661C11.8199 8.54937 11.6664 8.77903 11.473 8.97249C11.2795 9.16594 11.0499 9.3194 10.7971 9.4241C10.5443 9.5288 10.2734 9.58268 9.99984 9.58268ZM9.99984 1.66602C8.45274 1.66602 6.96901 2.2806 5.87505 3.37456C4.78109 4.46852 4.1665 5.95225 4.1665 7.49935C4.1665 11.8743 9.99984 18.3327 9.99984 18.3327C9.99984 18.3327 15.8332 11.8743 15.8332 7.49935C15.8332 5.95225 15.2186 4.46852 14.1246 3.37456C13.0307 2.2806 11.5469 1.66602 9.99984 1.66602Z" fill="white"/>
</svg>
