<svg width="33" height="33" viewBox="0 0 33 33" fill="none" xmlns="http://www.w3.org/2000/svg">
<path d="M32.6719 16.5C32.6719 16.6865 32.5978 16.8653 32.4659 16.9972C32.3341 17.129 32.1552 17.2031 31.9688 17.2031H17.2031V31.9688C17.2031 32.1552 17.129 32.3341 16.9972 32.4659C16.8653 32.5978 16.6865 32.6719 16.5 32.6719C16.3135 32.6719 16.1347 32.5978 16.0028 32.4659C15.871 32.3341 15.7969 32.1552 15.7969 31.9688V17.2031H1.03125C0.84477 17.2031 0.665927 17.129 0.534066 16.9972C0.402204 16.8653 0.328125 16.6865 0.328125 16.5C0.328125 16.3135 0.402204 16.1347 0.534066 16.0028C0.665927 15.871 0.84477 15.7969 1.03125 15.7969H15.7969V1.03125C15.7969 0.84477 15.871 0.665927 16.0028 0.534066C16.1347 0.402204 16.3135 0.328125 16.5 0.328125C16.6865 0.328125 16.8653 0.402204 16.9972 0.534066C17.129 0.665927 17.2031 0.84477 17.2031 1.03125V15.7969H31.9688C32.1552 15.7969 32.3341 15.871 32.4659 16.0028C32.5978 16.1347 32.6719 16.3135 32.6719 16.5Z" fill="white"/>
</svg>
