<svg width="20" height="23" viewBox="0 0 20 23" fill="none" xmlns="http://www.w3.org/2000/svg">
<g clip-path="url(#clip0_662_2701)">
<path d="M9.98495 2.13149C13.7676 2.13149 17.3145 4.32523 18.9547 7.82088C20.0823 10.2196 20.2053 12.9054 19.3032 15.3965C18.4114 17.8773 16.5969 19.866 14.1982 20.9936C9.25712 23.3104 3.35245 21.1781 1.03569 16.2371C-0.881277 12.1469 0.205345 7.27756 3.69074 4.40724C3.8035 4.31498 3.97777 4.32523 4.07003 4.44825C4.16229 4.56101 4.15204 4.73528 4.02903 4.82754C0.738405 7.54409 -0.296961 12.1469 1.51749 16.0115C3.72149 20.6758 9.30837 22.6953 13.9726 20.5016C16.2382 19.4354 17.9501 17.5595 18.8009 15.212C19.6518 12.8644 19.5288 10.3222 18.4729 8.05665C16.7097 4.29448 12.6092 2.13148 8.49853 2.79781C8.35501 2.81831 8.2115 2.72605 8.19099 2.57229C8.17049 2.42877 8.26275 2.28525 8.41652 2.26475C8.93933 2.18274 9.46214 2.14174 9.98495 2.14174V2.13149Z" fill="#433A34"/>
<path d="M9.98471 2.03963C13.8494 2.03963 17.4065 4.29489 19.0467 7.79053C20.1846 10.1996 20.3076 12.9161 19.3953 15.4276C18.4932 17.9392 16.6582 19.9484 14.2492 21.076C11.8299 22.2139 9.11336 22.3369 6.60183 21.4246C4.0903 20.5122 2.08107 18.6875 0.943195 16.2785C-0.994272 12.1473 0.1026 7.22672 3.629 4.32564C3.78276 4.19238 4.01854 4.22313 4.1518 4.3769C4.28507 4.53067 4.25432 4.76644 4.10055 4.89971C0.840683 7.58551 -0.174181 12.137 1.61977 15.971C2.66539 18.2057 4.5311 19.8971 6.85811 20.7377C9.18512 21.5783 11.6967 21.4656 13.9314 20.42C16.1662 19.3743 17.8678 17.5086 18.7084 15.1816C19.549 12.8546 19.4363 10.3431 18.3804 8.10832C16.6377 4.38715 12.5783 2.24466 8.5188 2.90073C8.42654 2.92123 8.32402 2.90073 8.24201 2.83923C8.16001 2.77772 8.10875 2.69571 8.08825 2.5932C8.06775 2.50094 8.08825 2.39843 8.14975 2.31642C8.21126 2.23441 8.29327 2.18315 8.38553 2.16265C8.90834 2.08064 9.4414 2.02938 9.97446 2.02938L9.98471 2.03963ZM10.0155 21.8346C11.4301 21.8346 12.8448 21.5271 14.1569 20.9018C16.5249 19.7844 18.3189 17.8162 19.2107 15.3559C20.1026 12.8956 19.9796 10.2406 18.8622 7.87254C17.2528 4.44865 13.7674 2.24466 9.98471 2.24466C9.4619 2.24466 8.93909 2.28566 8.42654 2.36767C8.38553 2.36767 8.34453 2.39842 8.31377 2.43943C8.28302 2.48043 8.27277 2.52144 8.28302 2.56244C8.28302 2.60345 8.31377 2.64445 8.35478 2.67521C8.39578 2.69571 8.43679 2.70596 8.47779 2.70596C12.6295 2.02938 16.771 4.22313 18.5547 8.02631C19.631 10.3123 19.7438 12.8854 18.893 15.2534C18.0319 17.6214 16.2994 19.5179 14.0134 20.5942C11.7274 21.6706 9.16462 21.7834 6.78635 20.9223C4.40808 20.0612 2.51162 18.3287 1.43525 16.053C-0.399706 12.137 0.64591 7.49325 3.96728 4.74594C4.03904 4.68443 4.04929 4.58192 3.98779 4.51016C3.92628 4.4384 3.82377 4.42815 3.75201 4.48966C0.307623 7.33948 -0.778997 12.1473 1.12772 16.1965C2.23484 18.5645 4.20306 20.3482 6.66334 21.24C7.74996 21.6296 8.87759 21.8244 10.0052 21.8244L10.0155 21.8346Z" fill="#433A34"/>
<path d="M11.0397 0.093183C11.1217 0.093183 11.2037 0.134187 11.255 0.205945C11.3473 0.328959 11.3165 0.492978 11.1935 0.585238L8.5897 2.5022L11.2037 4.39867C11.3268 4.48068 11.3473 4.65495 11.2652 4.77796C11.1832 4.90097 11.009 4.92148 10.886 4.83947L7.97463 2.72773C7.90287 2.67647 7.86187 2.59446 7.86187 2.51245C7.86187 2.43044 7.90287 2.34844 7.97463 2.29718L10.8655 0.15469C10.8655 0.15469 10.968 0.103435 11.0295 0.103435L11.0397 0.093183Z" fill="#433A34"/>
<path d="M11.0403 0.000484943C11.153 0.000484943 11.2658 0.0517402 11.3376 0.154252C11.3991 0.236261 11.4196 0.328522 11.4093 0.431034C11.3991 0.533545 11.3478 0.615554 11.2658 0.677061L8.77476 2.51202L11.2863 4.32647C11.3683 4.38798 11.4196 4.46999 11.4298 4.56225C11.4503 4.65451 11.4298 4.75702 11.3683 4.83903C11.3068 4.92104 11.2248 4.9723 11.1223 4.98255C11.03 5.00305 10.9275 4.98254 10.8455 4.92104L7.93417 2.8093C7.84191 2.73754 7.7804 2.62478 7.7804 2.51202C7.7804 2.39925 7.83166 2.28649 7.93417 2.21473L10.825 0.0722427C10.8865 0.020987 10.9685 0.000484943 11.0403 0.000484943ZM11.0608 4.78777C11.0608 4.78777 11.0813 4.78777 11.0915 4.78777C11.1325 4.78777 11.1735 4.75702 11.2043 4.71602C11.2555 4.64426 11.2453 4.53149 11.1633 4.48024L8.54924 2.58378C8.54924 2.58378 8.50823 2.53252 8.50823 2.50177C8.50823 2.47101 8.51848 2.44026 8.54924 2.41976L11.153 0.502791C11.2248 0.451536 11.2453 0.338773 11.1838 0.267015C11.1325 0.195257 11.0198 0.174754 10.948 0.236261L8.05718 2.37875C8.05718 2.37875 7.98542 2.46076 7.98542 2.51202C7.98542 2.56327 8.01618 2.61453 8.05718 2.64528L10.9685 4.75702C10.9685 4.75702 11.03 4.78777 11.071 4.78777H11.0608Z" fill="#433A34"/>
</g>
<defs>
<clipPath id="clip0_662_2701">
<rect width="20" height="22.0297" fill="white" transform="matrix(-1 0 0 -1 20 22.0293)"/>
</clipPath>
</defs>
</svg>
