<svg width="30" height="28" viewBox="0 0 30 28" fill="none" xmlns="http://www.w3.org/2000/svg">
<g clip-path="url(#clip0_519_763)">
<path d="M29.4952 27.3229H9.25218C9.05592 27.3229 8.8877 27.1546 8.8877 26.9584V17.2294C8.8877 17.0331 9.05592 16.8649 9.25218 16.8649C9.44844 16.8649 9.61667 17.0331 9.61667 17.2294V26.5939H29.1307V0.869597H9.61667V10.7948C9.61667 10.9911 9.44844 11.1593 9.25218 11.1593C9.05592 11.1593 8.8877 10.9911 8.8877 10.7948V0.505111C8.8877 0.308849 9.05592 0.140625 9.25218 0.140625H29.4952C29.6914 0.140625 29.8597 0.308849 29.8597 0.505111V26.9584C29.8597 27.1546 29.6914 27.3229 29.4952 27.3229Z" fill="#433A34"/>
<path d="M29.4952 27.4626H9.25223C8.97186 27.4626 8.74756 27.2383 8.74756 26.9579V17.229C8.74756 16.9486 8.97186 16.7243 9.25223 16.7243C9.53261 16.7243 9.7569 16.9486 9.7569 17.229V26.4533H28.9906V1.00935H9.7569V10.7944C9.7569 11.0748 9.53261 11.2991 9.25223 11.2991C8.97186 11.2991 8.74756 11.0748 8.74756 10.7944V0.504673C8.74756 0.224299 8.97186 0 9.25223 0H29.4952C29.7756 0 29.9999 0.224299 29.9999 0.504673V26.9579C29.9999 27.2383 29.7756 27.4626 29.4952 27.4626ZM9.25223 16.9907C9.12606 16.9907 9.02793 17.0888 9.02793 17.215V26.9439C9.02793 27.0701 9.12606 27.1682 9.25223 27.1682H29.4952C29.6214 27.1682 29.7195 27.0701 29.7195 26.9439V0.504673C29.7195 0.378505 29.6214 0.280374 29.4952 0.280374H9.25223C9.12606 0.280374 9.02793 0.378505 9.02793 0.504673V10.7944C9.02793 10.9206 9.12606 11.0187 9.25223 11.0187C9.3784 11.0187 9.47653 10.9206 9.47653 10.7944V0.869159C9.47653 0.799065 9.53261 0.728972 9.61672 0.728972H29.1307C29.2008 0.728972 29.2709 0.785047 29.2709 0.869159V26.5935C29.2709 26.6636 29.2148 26.7336 29.1307 26.7336H9.61672C9.54662 26.7336 9.47653 26.6776 9.47653 26.5935V17.229C9.47653 17.1028 9.3784 17.0047 9.25223 17.0047V16.9907Z" fill="#433A34"/>
<path d="M16.7102 14.3696H0.981185C0.784923 14.3696 0.616699 14.2014 0.616699 14.0051C0.616699 13.8088 0.784923 13.6406 0.981185 13.6406H16.7242C16.9204 13.6406 17.0887 13.8088 17.0887 14.0051C17.0887 14.2014 16.9204 14.3696 16.7242 14.3696H16.7102Z" fill="#433A34"/>
<path d="M16.7102 14.5093H0.981235C0.700862 14.5093 0.476562 14.285 0.476562 14.0047C0.476562 13.7243 0.700862 13.5 0.981235 13.5H16.7242C17.0046 13.5 17.2289 13.7243 17.2289 14.0047C17.2289 14.285 17.0046 14.5093 16.7242 14.5093H16.7102ZM0.967217 13.7804C0.841048 13.7804 0.742918 13.8785 0.742918 14.0047C0.742918 14.1308 0.841048 14.229 0.967217 14.229H16.7102C16.8364 14.229 16.9345 14.1308 16.9345 14.0047C16.9345 13.8785 16.8364 13.7804 16.7102 13.7804H0.981235H0.967217Z" fill="#433A34"/>
<path d="M4.33173 17.1013C4.26163 17.1013 4.17752 17.0733 4.12145 17.0312L0.294342 14.2976C0.196211 14.2275 0.140137 14.1153 0.140137 14.0032C0.140137 13.891 0.196211 13.7789 0.294342 13.7088L4.12145 10.9892C4.28967 10.877 4.51397 10.9051 4.64014 11.0733C4.75229 11.2415 4.72425 11.4658 4.55602 11.592L1.14948 14.0172L4.55602 16.4424C4.72425 16.5546 4.7663 16.7929 4.64014 16.9611C4.57004 17.0593 4.45789 17.1153 4.34574 17.1153L4.33173 17.1013Z" fill="#433A34"/>
<path d="M4.33178 17.2295C4.21963 17.2295 4.1215 17.2015 4.03738 17.1314L0.21028 14.4118C0.0841122 14.3136 0 14.1594 0 14.0052C0 13.851 0.0841122 13.6828 0.21028 13.5987L4.03738 10.8791C4.26168 10.7108 4.58411 10.7669 4.73832 10.9912C4.82243 11.1034 4.85047 11.2295 4.82243 11.3697C4.79439 11.5099 4.7243 11.6221 4.61215 11.6921L1.37383 14.0052L4.61215 16.3183C4.7243 16.4024 4.79439 16.5146 4.82243 16.6407C4.85047 16.7669 4.82243 16.9071 4.73832 17.0192C4.64019 17.1454 4.48598 17.2295 4.33178 17.2295ZM4.33178 11.0473C4.33178 11.0473 4.23364 11.0613 4.20561 11.0893L0.378505 13.809C0.378505 13.809 0.280374 13.9211 0.280374 13.9912C0.280374 14.0613 0.32243 14.1314 0.378505 14.1735L4.20561 16.8931C4.30374 16.9632 4.45794 16.9351 4.52804 16.837C4.57009 16.7809 4.58411 16.7249 4.57009 16.6688C4.57009 16.6127 4.52804 16.5566 4.47196 16.5146L1.06542 14.0893C1.06542 14.0893 1.00935 14.0193 1.00935 13.9772C1.00935 13.9351 1.03738 13.8931 1.06542 13.865L4.47196 11.4398C4.47196 11.4398 4.55607 11.3557 4.57009 11.2856C4.57009 11.2295 4.57009 11.1594 4.52804 11.1174C4.48598 11.0613 4.41589 11.0192 4.34579 11.0192L4.33178 11.0473Z" fill="#433A34"/>
</g>
<defs>
<clipPath id="clip0_519_763">
<rect width="30" height="27.4626" fill="white"/>
</clipPath>
</defs>
</svg>
