<svg width="22" height="22" viewBox="0 0 22 22" fill="none" xmlns="http://www.w3.org/2000/svg">
<path d="M21.7812 11C21.7812 11.1243 21.7319 11.2435 21.644 11.3315C21.556 11.4194 21.4368 11.4688 21.3125 11.4688H11.4688V21.3125C11.4688 21.4368 11.4194 21.556 11.3315 21.644C11.2435 21.7319 11.1243 21.7812 11 21.7812C10.8757 21.7812 10.7565 21.7319 10.6685 21.644C10.5806 21.556 10.5312 21.4368 10.5312 21.3125V11.4688H0.6875C0.56318 11.4688 0.443951 11.4194 0.356044 11.3315C0.268136 11.2435 0.21875 11.1243 0.21875 11C0.21875 10.8757 0.268136 10.7565 0.356044 10.6685C0.443951 10.5806 0.56318 10.5312 0.6875 10.5312H10.5312V0.6875C10.5312 0.56318 10.5806 0.443951 10.6685 0.356044C10.7565 0.268136 10.8757 0.21875 11 0.21875C11.1243 0.21875 11.2435 0.268136 11.3315 0.356044C11.4194 0.443951 11.4688 0.56318 11.4688 0.6875V10.5312H21.3125C21.4368 10.5312 21.556 10.5806 21.644 10.6685C21.7319 10.7565 21.7812 10.8757 21.7812 11Z" fill="#A2B3BE"/>
</svg>
