<svg width="32" height="27" viewBox="0 0 32 27" fill="none" xmlns="http://www.w3.org/2000/svg">
<path d="M7.22461 13.2227C8.20117 12.9622 9.11263 12.9948 9.95898 13.3203C10.8704 13.5807 11.6517 14.0039 12.3027 14.5898C13.0189 15.1758 13.5723 15.8919 13.9629 16.7383C14.4186 17.5846 14.6465 18.431 14.6465 19.2773C14.6465 20.9701 14.028 22.5326 12.791 23.9648C11.554 25.332 9.92643 26.0156 7.9082 26.0156C5.43425 26.0156 3.51367 25.1367 2.14648 23.3789C0.844401 21.556 0.193359 19.3099 0.193359 16.6406C0.193359 12.9948 1.16992 9.73958 3.12305 6.875C5.07617 4.01042 7.97331 1.95964 11.8145 0.722656L13.6699 3.26172C11.3262 4.17318 9.4707 5.44271 8.10352 7.07031C6.80143 8.63281 6.15039 10.4232 6.15039 12.4414C6.15039 13.2227 6.50846 13.4831 7.22461 13.2227ZM24.1191 13.2227C25.0957 12.9622 26.0397 12.9948 26.9512 13.3203C27.8626 13.5807 28.6439 14.0039 29.2949 14.5898C30.0111 15.1758 30.5645 15.8919 30.9551 16.7383C31.3457 17.5846 31.541 18.431 31.541 19.2773C31.541 20.9701 30.9225 22.5326 29.6855 23.9648C28.4486 25.332 26.821 26.0156 24.8027 26.0156C22.3288 26.0156 20.4082 25.1367 19.041 23.3789C17.7389 21.556 17.0879 19.3099 17.0879 16.6406C17.0879 12.9948 18.0645 9.73958 20.0176 6.875C21.9707 4.01042 24.8678 1.95964 28.709 0.722656L30.5645 3.26172C28.2207 4.17318 26.3652 5.44271 24.998 7.07031C23.696 8.63281 23.0449 10.4232 23.0449 12.4414C23.0449 13.2227 23.403 13.4831 24.1191 13.2227Z" fill="#AA9B7A"/>
</svg>
