<svg width="20" height="20" viewBox="0 0 20 20" fill="none" xmlns="http://www.w3.org/2000/svg">
<g clip-path="url(#clip0_379_17345)">
<path d="M15.0824 4.91767C15.141 4.97628 15.174 5.05576 15.174 5.13864C15.174 5.22152 15.141 5.30101 15.0824 5.35961L10.4421 10L15.0824 14.6404C15.141 14.699 15.174 14.7785 15.174 14.8614C15.174 14.9442 15.141 15.0237 15.0824 15.0823C15.0238 15.1409 14.9443 15.1739 14.8615 15.1739C14.7786 15.1739 14.6991 15.1409 14.6405 15.0823L10.0001 10.4419L5.35972 15.0823C5.30112 15.1409 5.22163 15.1739 5.13875 15.1739C5.05587 15.1739 4.97638 15.1409 4.91778 15.0823C4.85917 15.0237 4.82625 14.9442 4.82625 14.8614C4.82625 14.7785 4.85917 14.699 4.91778 14.6404L9.55817 10L4.91778 5.35961C4.85917 5.30101 4.82625 5.22152 4.82625 5.13864C4.82625 5.05576 4.85917 4.97628 4.91778 4.91767C4.97638 4.85907 5.05587 4.82614 5.13875 4.82614C5.22163 4.82614 5.30112 4.85906 5.35972 4.91767L10.0001 9.55806L14.6405 4.91767C14.6991 4.85907 14.7786 4.82614 14.8615 4.82614C14.9443 4.82614 15.0238 4.85907 15.0824 4.91767Z" fill="white"/>
</g>
<defs>
<clipPath id="clip0_379_17345">
<rect width="20" height="20" fill="white"/>
</clipPath>
</defs>
</svg>
