<svg width="20" height="20" viewBox="0 0 20 20" fill="none" xmlns="http://www.w3.org/2000/svg">
<g clip-path="url(#clip0_519_740)">
<path d="M2.6301 12.1459C1.2301 12.1459 0.100098 11.0059 0.100098 9.61594C0.100098 8.22594 1.2301 7.08594 2.6301 7.08594C4.0301 7.08594 5.1601 8.21594 5.1601 9.61594C5.1601 11.0159 4.0301 12.1459 2.6301 12.1459ZM2.6301 7.61594C1.5301 7.61594 0.630098 8.51594 0.630098 9.61594C0.630098 10.7159 1.5301 11.6159 2.6301 11.6159C3.7301 11.6159 4.6301 10.7159 4.6301 9.61594C4.6301 8.51594 3.7301 7.61594 2.6301 7.61594Z" fill="#433A34"/>
<path d="M2.63 12.2366C1.18 12.2366 0 11.0566 0 9.60656C0 8.15656 1.18 6.97656 2.63 6.97656C4.08 6.97656 5.26 8.15656 5.26 9.60656C5.26 11.0566 4.08 12.2366 2.63 12.2366ZM2.63 7.17656C1.29 7.17656 0.2 8.26656 0.2 9.60656C0.2 10.9466 1.29 12.0366 2.63 12.0366C3.97 12.0366 5.06 10.9466 5.06 9.60656C5.06 8.26656 3.97 7.17656 2.63 7.17656ZM2.63 11.7066C1.47 11.7066 0.53 10.7666 0.53 9.60656C0.53 8.44656 1.47 7.50656 2.63 7.50656C3.79 7.50656 4.73 8.44656 4.73 9.60656C4.73 10.7666 3.79 11.7066 2.63 11.7066ZM2.63 7.69656C1.58 7.69656 0.72 8.54656 0.72 9.60656C0.72 10.6666 1.57 11.5166 2.63 11.5166C3.69 11.5166 4.54 10.6666 4.54 9.60656C4.54 8.54656 3.68 7.69656 2.63 7.69656Z" fill="#433A34"/>
<path d="M16.5901 5.15156C15.2001 5.15156 14.0601 4.02156 14.0601 2.62156C14.0601 1.22156 15.2001 0.101562 16.5901 0.101562C17.9801 0.101562 19.1201 1.23156 19.1201 2.63156C19.1201 4.03156 17.9901 5.16156 16.5901 5.16156V5.15156ZM16.5901 0.621562C15.4901 0.621562 14.5901 1.52156 14.5901 2.62156C14.5901 3.72156 15.4901 4.62156 16.5901 4.62156C17.6901 4.62156 18.5901 3.72156 18.5901 2.62156C18.5901 1.52156 17.6901 0.621562 16.5901 0.621562Z" fill="#433A34"/>
<path d="M16.59 5.25219C15.14 5.25219 13.96 4.07219 13.96 2.62219C13.96 1.17219 15.14 -0.0078125 16.59 -0.0078125C18.04 -0.0078125 19.22 1.17219 19.22 2.62219C19.22 4.07219 18.04 5.25219 16.59 5.25219ZM16.59 0.192188C15.25 0.192188 14.16 1.28219 14.16 2.62219C14.16 3.96219 15.25 5.05219 16.59 5.05219C17.93 5.05219 19.02 3.96219 19.02 2.62219C19.02 1.28219 17.93 0.202188 16.59 0.202188V0.192188ZM16.59 4.72219C15.43 4.72219 14.49 3.78219 14.49 2.62219C14.49 1.46219 15.43 0.522187 16.59 0.522187C17.75 0.522187 18.69 1.46219 18.69 2.62219C18.69 3.78219 17.75 4.72219 16.59 4.72219ZM16.59 0.712187C15.54 0.712187 14.68 1.57219 14.68 2.62219C14.68 3.67219 15.53 4.53219 16.59 4.53219C17.65 4.53219 18.5 3.68219 18.5 2.62219C18.5 1.56219 17.64 0.712187 16.59 0.712187Z" fill="#433A34"/>
<path d="M16.5901 18.9584C15.2001 18.9584 14.0601 17.8284 14.0601 16.4284C14.0601 15.0284 15.1901 13.8984 16.5901 13.8984C17.9901 13.8984 19.1201 15.0284 19.1201 16.4284C19.1201 17.8284 17.9901 18.9584 16.5901 18.9584ZM16.5901 14.4284C15.4901 14.4284 14.5901 15.3284 14.5901 16.4284C14.5901 17.5284 15.4901 18.4284 16.5901 18.4284C17.6901 18.4284 18.5901 17.5284 18.5901 16.4284C18.5901 15.3284 17.6901 14.4284 16.5901 14.4284Z" fill="#433A34"/>
<path d="M16.59 19.0569C15.14 19.0569 13.96 17.8769 13.96 16.4269C13.96 14.9769 15.14 13.7969 16.59 13.7969C18.04 13.7969 19.22 14.9769 19.22 16.4269C19.22 17.8769 18.04 19.0569 16.59 19.0569ZM16.59 13.9969C15.25 13.9969 14.16 15.0869 14.16 16.4269C14.16 17.7669 15.25 18.8569 16.59 18.8569C17.93 18.8569 19.02 17.7669 19.02 16.4269C19.02 15.0869 17.93 13.9969 16.59 13.9969ZM16.59 18.5269C15.43 18.5269 14.49 17.5869 14.49 16.4269C14.49 15.2669 15.43 14.3269 16.59 14.3269C17.75 14.3269 18.69 15.2669 18.69 16.4269C18.69 17.5869 17.75 18.5269 16.59 18.5269ZM16.59 14.5169C15.54 14.5169 14.68 15.3669 14.68 16.4269C14.68 17.4869 15.53 18.3369 16.59 18.3369C17.65 18.3369 18.5 17.4769 18.5 16.4269C18.5 15.3769 17.64 14.5169 16.59 14.5169Z" fill="#433A34"/>
<path d="M4.65021 8.87238C4.55021 8.87238 4.46021 8.82238 4.42021 8.73238C4.36021 8.60238 4.41021 8.44238 4.54021 8.38238L14.4502 3.41238C14.5802 3.34238 14.7402 3.40238 14.8002 3.53238C14.8602 3.66238 14.8102 3.82238 14.6802 3.88238L4.76021 8.84238C4.76021 8.84238 4.68021 8.87238 4.64021 8.87238H4.65021Z" fill="#433A34"/>
<path d="M4.65018 8.95869C4.51018 8.95869 4.39018 8.87869 4.33018 8.75869C4.24018 8.57869 4.31018 8.36869 4.49018 8.27869L14.4102 3.31869C14.5002 3.27869 14.5902 3.26869 14.6802 3.29869C14.7702 3.32869 14.8502 3.38869 14.8902 3.47869C14.9802 3.65869 14.9102 3.86869 14.7302 3.95869L4.81018 8.91869C4.76018 8.94869 4.71018 8.95869 4.65018 8.95869ZM14.5702 3.47869C14.5702 3.47869 14.5202 3.47869 14.5002 3.49869L4.58018 8.45869C4.58018 8.45869 4.51018 8.50869 4.50018 8.54869C4.49018 8.58869 4.49018 8.63869 4.50018 8.66869C4.54018 8.74869 4.64018 8.77869 4.72018 8.73869L14.6402 3.78869C14.6402 3.78869 14.7102 3.73869 14.7202 3.69869C14.7302 3.65869 14.7302 3.60869 14.7202 3.57869C14.7002 3.53869 14.6702 3.50869 14.6202 3.49869C14.6002 3.49869 14.5902 3.49869 14.5702 3.49869V3.47869Z" fill="#433A34"/>
<path d="M14.5603 15.698C14.5603 15.698 14.4803 15.698 14.4503 15.668L4.64031 10.878C4.51031 10.818 4.46031 10.658 4.52031 10.528C4.58031 10.398 4.74031 10.348 4.87031 10.408L14.6803 15.198C14.8103 15.258 14.8603 15.418 14.8003 15.548C14.7503 15.638 14.6603 15.698 14.5603 15.698Z" fill="#433A34"/>
<path d="M14.5601 15.7962C14.5001 15.7962 14.4501 15.7862 14.4001 15.7562L4.59012 10.9662C4.50012 10.9262 4.44012 10.8462 4.41012 10.7562C4.38012 10.6662 4.38012 10.5662 4.43012 10.4762C4.52012 10.2962 4.73012 10.2262 4.91012 10.3062L14.7301 15.0962C14.8201 15.1362 14.8801 15.2162 14.9101 15.3062C14.9401 15.3962 14.9401 15.4962 14.8901 15.5862C14.8301 15.7062 14.7001 15.7862 14.5701 15.7862L14.5601 15.7962ZM4.75012 10.4862C4.69012 10.4862 4.63012 10.5162 4.60012 10.5762C4.58012 10.6162 4.58012 10.6562 4.60012 10.7062C4.61012 10.7462 4.64012 10.7762 4.68012 10.7962L14.4901 15.5862C14.5701 15.6262 14.6701 15.5862 14.7101 15.5062C14.7301 15.4662 14.7301 15.4262 14.7101 15.3762C14.6901 15.3262 14.6701 15.3062 14.6301 15.2862L4.82012 10.4962C4.82012 10.4962 4.77012 10.4762 4.75012 10.4762V10.4862Z" fill="#433A34"/>
</g>
<defs>
<clipPath id="clip0_519_740">
<rect width="19.22" height="19.06" fill="white"/>
</clipPath>
</defs>
</svg>
