<svg width="30" height="30" viewBox="0 0 30 30" fill="none" xmlns="http://www.w3.org/2000/svg">
<path d="M12.6673 13.171L14.681 11.326C15.2317 10.8205 15.6187 10.1621 15.7924 9.43509C15.9661 8.70812 15.9186 7.94581 15.656 7.24601L14.7973 4.95288C14.4765 4.09679 13.8413 3.39523 13.0212 2.99111C12.2012 2.587 11.2579 2.51074 10.3835 2.77788C7.16604 3.76226 4.69292 6.75288 5.45417 10.3041C5.95479 12.6404 6.91292 15.5729 8.72792 18.6929C10.5467 21.8204 12.6242 24.1304 14.4054 25.7541C17.0942 28.201 20.9379 27.5898 23.411 25.2835C24.0736 24.6652 24.4756 23.8175 24.5351 22.9132C24.5947 22.0089 24.3074 21.1159 23.7317 20.416L22.1567 18.5035C21.6816 17.9252 21.0444 17.5022 20.327 17.289C19.6096 17.0758 18.8448 17.0822 18.131 17.3073L15.5285 18.1266C14.8561 17.4334 14.2671 16.6638 13.7735 15.8335C13.2973 14.9939 12.9258 14.0991 12.6673 13.1691" fill="white"/>
</svg>
