<svg width="30" height="29" viewBox="0 0 30 29" fill="none" xmlns="http://www.w3.org/2000/svg">
<g clip-path="url(#clip0_519_773)">
<path d="M29.4608 15.3803C29.3559 15.3803 29.2661 15.3353 29.1762 15.2604L14.9925 1.07672L0.823727 15.2604C0.673951 15.4102 0.419333 15.4102 0.269558 15.2604C0.119783 15.1107 0.119783 14.856 0.269558 14.7063L14.7229 0.252957C14.8727 0.103181 15.1273 0.103181 15.277 0.252957L29.7304 14.7063C29.8801 14.856 29.8801 15.1107 29.7304 15.2604C29.6555 15.3353 29.5506 15.3803 29.4458 15.3803H29.4608Z" fill="#433A34"/>
<path d="M29.4606 15.528C29.3109 15.528 29.1761 15.468 29.0862 15.3632L14.9923 1.28432L0.928442 15.3632C0.718757 15.5729 0.374274 15.5729 0.164588 15.3632C-0.0450971 15.1535 -0.0450971 14.809 0.164588 14.5994L14.6179 0.146031C14.8126 -0.048677 15.1871 -0.048677 15.3818 0.146031L29.8351 14.5994C29.9399 14.7042 29.9998 14.839 29.9998 14.9738C29.9998 15.1086 29.9399 15.2584 29.8351 15.3482C29.7302 15.4381 29.5954 15.513 29.4606 15.513V15.528ZM14.9923 0.924863C14.9923 0.924863 15.0672 0.924863 15.0972 0.969795L29.2809 15.1535C29.3708 15.2434 29.5355 15.2434 29.6254 15.1535C29.6703 15.1086 29.7003 15.0487 29.7003 14.9738C29.7003 14.8989 29.6703 14.854 29.6254 14.7941L15.1721 0.355716C15.0822 0.265851 14.9175 0.265851 14.8276 0.355716L0.359296 14.809C0.359296 14.809 0.284409 14.9139 0.284409 14.9888C0.284409 15.0637 0.314364 15.1236 0.359296 15.1685C0.449161 15.2584 0.613914 15.2584 0.70378 15.1685L14.8875 0.969795C14.8875 0.969795 14.9474 0.924863 14.9923 0.924863Z" fill="#433A34"/>
<path d="M25.567 28.833H18.5875C18.3778 28.833 18.198 28.6533 18.198 28.4436V18.4386H11.7877V28.4436C11.7877 28.6533 11.6079 28.833 11.3982 28.833H4.41871C4.20903 28.833 4.0293 28.6533 4.0293 28.4436V11.4441C4.0293 11.2344 4.20903 11.0547 4.41871 11.0547C4.6284 11.0547 4.80813 11.2344 4.80813 11.4441V28.0392H10.9938V18.0342C10.9938 17.8245 11.1736 17.6448 11.3833 17.6448H18.5725C18.7822 17.6448 18.9619 17.8245 18.9619 18.0342V28.0392H25.1476V11.4441C25.1476 11.2344 25.3273 11.0547 25.537 11.0547C25.7467 11.0547 25.9264 11.2344 25.9264 11.4441V28.4436C25.9264 28.6533 25.7467 28.833 25.537 28.833H25.567Z" fill="#433A34"/>
<path d="M25.5669 28.9692H18.5873C18.2878 28.9692 18.0481 28.7295 18.0481 28.43V18.5747H11.9373V28.43C11.9373 28.7295 11.6977 28.9692 11.3981 28.9692H4.41859C4.11904 28.9692 3.87939 28.7295 3.87939 28.43V11.4454C3.87939 11.1459 4.11904 10.9062 4.41859 10.9062C4.71814 10.9062 4.95778 11.1459 4.95778 11.4454V27.9057H10.8589V18.0505C10.8589 17.751 11.0986 17.5113 11.3981 17.5113H18.5873C18.8869 17.5113 19.1265 17.751 19.1265 18.0505V27.9057H25.0277V11.4454C25.0277 11.1459 25.2673 10.9062 25.5669 10.9062C25.8664 10.9062 26.1061 11.1459 26.1061 11.4454V28.4449C26.1061 28.7445 25.8664 28.9841 25.5669 28.9841V28.9692ZM11.7875 18.2752H18.1979C18.2728 18.2752 18.3477 18.3351 18.3477 18.425V28.43C18.3477 28.5648 18.4525 28.6696 18.5873 28.6696H25.5669C25.7017 28.6696 25.8065 28.5648 25.8065 28.43V11.4454C25.8065 11.3106 25.7017 11.2058 25.5669 11.2058C25.4321 11.2058 25.3272 11.3106 25.3272 11.4454V28.0405C25.3272 28.1154 25.2673 28.1903 25.1774 28.1903H18.9917C18.9168 28.1903 18.842 28.1304 18.842 28.0405V18.0356C18.842 17.9008 18.7371 17.7959 18.6023 17.7959H11.4131C11.2783 17.7959 11.1735 17.9008 11.1735 18.0356V28.0405C11.1735 28.1154 11.1135 28.1903 11.0237 28.1903H4.82298C4.74809 28.1903 4.6732 28.1304 4.6732 28.0405V11.4454C4.6732 11.3106 4.56836 11.2058 4.43356 11.2058C4.29877 11.2058 4.19392 11.3106 4.19392 11.4454V28.4449C4.19392 28.5797 4.29877 28.6846 4.43356 28.6846H11.4131C11.5479 28.6846 11.6527 28.5797 11.6527 28.4449V18.4399C11.6527 18.3651 11.7126 18.2902 11.8025 18.2902L11.7875 18.2752Z" fill="#433A34"/>
</g>
<defs>
<clipPath id="clip0_519_773">
<rect width="30" height="28.9665" fill="white"/>
</clipPath>
</defs>
</svg>
