<svg width="40" height="40" viewBox="0 0 40 40" fill="none" xmlns="http://www.w3.org/2000/svg">
<g clip-path="url(#clip0_1375_49)">
<g clip-path="url(#clip1_1375_49)">
<path d="M30.1646 9.83534C30.2818 9.95255 30.3477 10.1115 30.3477 10.2773C30.3477 10.443 30.2818 10.602 30.1646 10.7192L20.8839 20L30.1646 29.2808C30.2818 29.398 30.3477 29.557 30.3477 29.7227C30.3477 29.8885 30.2818 30.0474 30.1646 30.1647C30.0474 30.2819 29.8885 30.3477 29.7227 30.3477C29.5569 30.3477 29.398 30.2819 29.2808 30.1647L20 20.8839L10.7192 30.1647C10.602 30.2819 10.443 30.3477 10.2773 30.3477C10.1115 30.3477 9.95252 30.2819 9.83531 30.1647C9.7181 30.0474 9.65226 29.8885 9.65226 29.7227C9.65226 29.557 9.7181 29.398 9.83531 29.2808L19.1161 20L9.83531 10.7192C9.7181 10.602 9.65226 10.443 9.65226 10.2773C9.65226 10.1115 9.7181 9.95255 9.83531 9.83534C9.95252 9.71813 10.1115 9.65228 10.2773 9.65228C10.443 9.65228 10.602 9.71813 10.7192 9.83534L20 19.1161L29.2808 9.83534C29.398 9.71813 29.5569 9.65228 29.7227 9.65228C29.8885 9.65228 30.0474 9.71813 30.1646 9.83534Z" fill="#7593A7"/>
</g>
</g>
<defs>
<clipPath id="clip0_1375_49">
<rect width="40" height="40" fill="white"/>
</clipPath>
<clipPath id="clip1_1375_49">
<rect width="40" height="40" fill="white"/>
</clipPath>
</defs>
</svg>
