<svg width="17" height="15" viewBox="0 0 17 15" fill="none" xmlns="http://www.w3.org/2000/svg">
<g clip-path="url(#clip0_519_756)">
<path d="M3.30978 14.5663C2.84978 14.5663 2.43978 14.4064 2.13978 14.0963L0.559783 12.5163C0.209783 12.1663 0.0497829 11.6863 0.0997829 11.1563C0.149783 10.6463 0.389783 10.1463 0.789783 9.74635L5.62978 4.90635C6.45978 4.07635 7.69978 3.97635 8.39978 4.67635L9.97978 6.25635C10.3298 6.60635 10.4898 7.08635 10.4398 7.61635C10.3898 8.12635 10.1498 8.62635 9.74978 9.02635C9.64978 9.12635 9.47978 9.12635 9.37978 9.02635C9.27978 8.92635 9.27978 8.75635 9.37978 8.65635C9.68978 8.34635 9.87978 7.95635 9.91978 7.56635C9.95978 7.19635 9.84978 6.85635 9.61978 6.62635L8.03978 5.04635C7.54978 4.55635 6.63978 4.65635 6.00978 5.27635L1.16978 10.1163C0.859783 10.4263 0.669783 10.8163 0.629783 11.2063C0.589783 11.5763 0.699783 11.9163 0.929783 12.1463L2.50978 13.7263C2.73978 13.9563 3.07978 14.0663 3.44978 14.0264C3.83978 13.9864 4.22978 13.7963 4.53978 13.4863L7.30978 10.7163C7.40978 10.6163 7.57978 10.6163 7.67978 10.7163C7.77978 10.8163 7.77978 10.9863 7.67978 11.0863L4.90978 13.8563C4.51978 14.2464 4.01978 14.4963 3.49978 14.5463C3.42978 14.5463 3.36978 14.5463 3.30978 14.5463V14.5663Z" fill="#433A34"/>
<path d="M3.30985 14.6629C2.82985 14.6629 2.38985 14.4829 2.06985 14.1729L0.489853 12.5929C0.119853 12.2229 -0.0501466 11.7129 0.00985344 11.1529C0.0598534 10.6129 0.319853 10.0929 0.729853 9.68293L5.56985 4.84293C5.98985 4.42293 6.51985 4.17293 7.05985 4.12293C7.61985 4.08293 8.11985 4.25293 8.46985 4.60293L10.0499 6.18293C10.4199 6.55293 10.5899 7.06293 10.5299 7.62293C10.4799 8.16293 10.2199 8.68293 9.80985 9.09293C9.66985 9.23293 9.43985 9.23293 9.29985 9.09293C9.22985 9.02293 9.18985 8.93293 9.18985 8.84293C9.18985 8.75293 9.22985 8.65293 9.29985 8.59293C9.58985 8.30293 9.76985 7.93293 9.80985 7.56293C9.83985 7.22293 9.74985 6.91293 9.52985 6.70293L7.94985 5.12293C7.72985 4.90293 7.41985 4.81293 7.05985 4.85293C6.69985 4.89293 6.33985 5.07293 6.05985 5.36293L1.23985 10.1829C0.949854 10.4729 0.769853 10.8429 0.729853 11.2129C0.699853 11.5529 0.789853 11.8629 1.00985 12.0729L2.58985 13.6529C2.79985 13.8629 3.10985 13.9629 3.44985 13.9329C3.81985 13.8929 4.18985 13.7129 4.47985 13.4229L7.24985 10.6529C7.38985 10.5129 7.61985 10.5129 7.75985 10.6529C7.89985 10.7929 7.89985 11.0229 7.75985 11.1629L4.98985 13.9329C4.57985 14.3429 4.05985 14.6029 3.51985 14.6529C3.44985 14.6529 3.37985 14.6529 3.31985 14.6529L3.30985 14.6629ZM7.23985 4.30293C7.18985 4.30293 7.12985 4.30293 7.07985 4.30293C6.57985 4.34293 6.08985 4.58293 5.70985 4.96293L0.869853 9.81293C0.489853 10.1929 0.259853 10.6729 0.209853 11.1629C0.159853 11.6629 0.309853 12.1229 0.639853 12.4429L2.21985 14.0229C2.53985 14.3529 2.98985 14.5029 3.49985 14.4529C3.98985 14.4029 4.46985 14.1729 4.84985 13.7929L7.61985 11.0229C7.67985 10.9629 7.67985 10.8529 7.61985 10.7929C7.55985 10.7329 7.44985 10.7329 7.38985 10.7929L4.61985 13.5629C4.29985 13.8829 3.88985 14.0929 3.46985 14.1329C3.06985 14.1729 2.69985 14.0529 2.44985 13.8029L0.869853 12.2229C0.619853 11.9729 0.499853 11.6029 0.539853 11.2029C0.579853 10.7829 0.779853 10.3829 1.10985 10.0529L5.94985 5.21293C6.26985 4.89293 6.66985 4.69293 7.06985 4.65293C7.47985 4.60293 7.85985 4.72293 8.11985 4.98293L9.69985 6.56293C9.94985 6.81293 10.0699 7.18293 10.0299 7.58293C9.98985 8.00293 9.78985 8.40293 9.45985 8.73293C9.42985 8.76293 9.40985 8.80293 9.40985 8.85293C9.40985 8.90293 9.42985 8.94293 9.45985 8.97293C9.51985 9.03293 9.62985 9.03293 9.68985 8.97293C10.0699 8.59293 10.2999 8.11293 10.3499 7.62293C10.3999 7.12293 10.2499 6.66293 9.91985 6.34293L8.33985 4.76293C8.05985 4.48293 7.66985 4.33293 7.23985 4.33293V4.30293Z" fill="#433A34"/>
<path d="M9.53 10.4548C9.09 10.4548 8.67 10.3048 8.36 9.99479L6.78 8.41479C6.43 8.06479 6.27 7.58479 6.32 7.05479C6.37 6.54479 6.61 6.04479 7.01 5.64479C7.11 5.54479 7.28 5.54479 7.38 5.64479C7.48 5.74479 7.48 5.91479 7.38 6.01479C7.07 6.32479 6.88 6.71479 6.84 7.10479C6.8 7.47479 6.91 7.81479 7.14 8.04479L8.72 9.62479C9.21 10.1148 10.12 10.0148 10.75 9.39479L15.59 4.55479C15.9 4.24479 16.09 3.85479 16.13 3.46479C16.17 3.09479 16.06 2.75479 15.83 2.52479L14.25 0.944787C13.76 0.454787 12.84 0.554787 12.22 1.17479L9.18 4.21479C9.08 4.31479 8.91 4.31479 8.81 4.21479C8.71 4.11479 8.71 3.94479 8.81 3.84479L11.85 0.804787C12.68 -0.0252131 13.92 -0.125213 14.62 0.574787L16.2 2.15479C16.55 2.50479 16.71 2.98479 16.66 3.51479C16.61 4.02479 16.37 4.52479 15.97 4.92479L11.13 9.76479C10.67 10.2248 10.08 10.4648 9.53 10.4648V10.4548Z" fill="#433A34"/>
<path d="M9.53007 10.5482C9.05007 10.5482 8.61007 10.3782 8.29007 10.0582L6.71007 8.47823C6.34007 8.10823 6.17007 7.59823 6.23007 7.03823C6.28007 6.49823 6.54007 5.97823 6.95007 5.56823C7.09007 5.42823 7.32007 5.42823 7.46007 5.56823C7.53007 5.63823 7.57007 5.72823 7.57007 5.81823C7.57007 5.90823 7.53007 6.00823 7.46007 6.06823C7.17007 6.35823 6.99007 6.72823 6.95007 7.09823C6.92007 7.43823 7.01007 7.74823 7.23007 7.95823L8.81007 9.53823C9.27007 9.99823 10.1101 9.88823 10.7001 9.30823L15.5401 4.46823C15.8301 4.17823 16.0101 3.80823 16.0501 3.43823C16.0801 3.09823 15.9901 2.78823 15.7701 2.57823L14.1901 0.998231C13.9701 0.778231 13.6601 0.678231 13.3001 0.728231C12.9401 0.768231 12.5801 0.948231 12.3001 1.23823L9.26007 4.27823C9.12007 4.41823 8.89007 4.41823 8.75007 4.27823C8.61007 4.13823 8.61007 3.90823 8.75007 3.76823L11.7901 0.728231C12.2101 0.308231 12.7401 0.0582309 13.2801 0.00823091C13.8301 -0.0417691 14.3401 0.138231 14.6901 0.488231L16.2701 2.06823C16.6401 2.43823 16.8101 2.94823 16.7501 3.50823C16.7001 4.04823 16.4401 4.56823 16.0301 4.97823L11.1901 9.81823C10.7301 10.2782 10.1201 10.5482 9.52007 10.5482H9.53007ZM7.19007 5.65823C7.19007 5.65823 7.11007 5.67823 7.07007 5.70823C6.69007 6.08823 6.46007 6.56823 6.41007 7.05823C6.36007 7.55823 6.51007 8.01823 6.84007 8.33823L8.42007 9.91823C8.70007 10.1982 9.09007 10.3482 9.52007 10.3482C10.0701 10.3482 10.6201 10.1082 11.0501 9.67823L15.8901 4.83823C16.2701 4.45823 16.5001 3.97823 16.5501 3.48823C16.6001 2.98823 16.4501 2.52823 16.1201 2.20823L14.5401 0.628231C14.2201 0.308231 13.7801 0.158231 13.2801 0.198231C12.7801 0.238231 12.2901 0.478231 11.9101 0.858231L8.87007 3.89823C8.81007 3.95823 8.81007 4.06823 8.87007 4.12823C8.93007 4.18823 9.04007 4.18823 9.10007 4.12823L12.1401 1.08823C12.4601 0.768231 12.8601 0.568231 13.2601 0.528231C13.6701 0.478231 14.0501 0.598231 14.3101 0.858231L15.8901 2.43823C16.1401 2.68823 16.2601 3.05823 16.2201 3.45823C16.1801 3.87823 15.9801 4.27823 15.6501 4.60823L10.8101 9.44823C10.1501 10.1082 9.18007 10.2182 8.64007 9.67823L7.06007 8.09823C6.81007 7.84823 6.69007 7.47823 6.73007 7.07823C6.77007 6.65823 6.97007 6.25823 7.30007 5.92823C7.33007 5.89823 7.35007 5.85823 7.35007 5.80823C7.35007 5.75823 7.33007 5.72823 7.30007 5.68823C7.27007 5.65823 7.23007 5.63823 7.18007 5.63823L7.19007 5.65823Z" fill="#433A34"/>
</g>
<defs>
<clipPath id="clip0_519_756">
<rect width="16.77" height="14.66" fill="white"/>
</clipPath>
</defs>
</svg>
