<svg width="245" height="48" viewBox="0 0 245 48" fill="none" xmlns="http://www.w3.org/2000/svg">
<path d="M222.815 14.2504V13.7104H231.572V14.2504L229.036 15.1191L231.83 23.8525L234.765 31.8816L237.347 23.7821L240.305 14.9782L236.526 14.2504V13.7104H244.954V14.2504L241.01 15.0017L238.005 23.9934L233.098 39.8169C232.425 42.2428 231.368 44.0975 229.929 45.3809C228.489 46.6643 227.119 47.306 225.82 47.306L222.768 46.367V45.8035H224.646C226.634 45.8035 228.309 45.2714 229.67 44.2071C231.048 43.1428 232.002 41.5385 232.535 39.3943L232.746 37.2814L228.59 25.1203L225.045 15.0721L222.815 14.2504Z" fill="#322C28"/>
<path d="M213.721 36.0137V35.5207L216.726 34.699L216.773 23.6413L216.726 2.06597L213.228 1.36166V0.798216L220.083 0L220.459 0.0234753L220.717 0.751262L220.67 23.6413L220.717 34.699L223.652 35.5207V36.0137H213.721Z" fill="#322C28"/>
<path d="M190.18 36.014V35.521L192.95 34.6993L192.997 23.8294L192.95 15.8238L190.18 15.0021V14.4386L196.307 13.6404L196.753 13.8986L196.918 17.8193L196.894 23.8294L196.941 34.6993L199.477 35.521V36.014H190.18ZM196.8 18.148L196.518 17.7958C197.051 16.5281 197.927 15.4481 199.148 14.556C200.384 13.6482 201.856 13.1943 203.562 13.1943C205.612 13.1943 207.138 13.6874 208.14 14.6734C209.141 15.6594 209.642 16.9976 209.642 18.688C209.642 19.7992 209.626 21.0983 209.595 22.5851C209.564 24.072 209.548 24.8155 209.548 24.8155L209.666 34.6993L212.436 35.521V36.014H202.834V35.521L205.675 34.6993L205.721 23.7825V19.2514C205.721 17.7802 205.424 16.6768 204.829 15.9411C204.25 15.1899 203.342 14.8142 202.106 14.8142C200.963 14.8142 199.93 15.1038 199.007 15.6829C198.084 16.2463 197.348 17.068 196.8 18.148Z" fill="#322C28"/>
<path d="M160.221 18.6176C160.221 12.9988 161.512 8.55384 164.095 5.28271C166.677 1.99593 170.121 0.352539 174.425 0.352539C178.729 0.352539 182.172 1.91767 184.755 5.04794C187.337 8.17821 188.628 12.5997 188.628 18.3124C188.628 23.7591 187.353 28.1728 184.802 31.5535C182.25 34.9342 178.815 36.6245 174.495 36.6245C170.269 36.6245 166.834 35.0046 164.189 31.7648C161.544 28.5093 160.221 24.1269 160.221 18.6176ZM164.705 17.6786C164.705 23.6417 165.59 28.1728 167.358 31.2718C169.142 34.3551 171.506 35.8967 174.448 35.8967C177.641 35.8967 180.051 34.4959 181.679 31.6943C183.323 28.8771 184.144 24.4321 184.144 18.3594C184.144 12.7406 183.276 8.45993 181.538 5.51748C179.817 2.57503 177.453 1.1038 174.448 1.1038C171.255 1.1038 168.829 2.41069 167.17 5.02446C165.527 7.63824 164.705 11.8563 164.705 17.6786Z" fill="#322C28"/>
<path d="M126.225 25.2378C126.225 21.3876 127.125 18.4294 128.925 16.3635C130.725 14.2818 133.033 13.241 135.851 13.241C137.197 13.241 138.457 13.5306 139.63 14.1097C140.82 14.6731 141.603 15.354 141.978 16.1522L141.11 17.1382C140.734 16.1052 140.147 15.2992 139.349 14.7201C138.566 14.141 137.502 13.8514 136.156 13.8514C134.45 13.8514 133.08 14.7592 132.047 16.5748C131.03 18.3903 130.521 21.1137 130.521 24.7448C130.521 28.7359 130.983 31.4983 131.907 33.0321C132.846 34.5503 134.137 35.3094 135.78 35.3094C137.064 35.3094 138.159 34.9494 139.067 34.2295C139.975 33.5095 140.671 32.5783 141.156 31.4357L142.096 31.3653C141.516 32.8365 140.624 34.0182 139.419 34.9103C138.214 35.7868 136.735 36.225 134.982 36.225C132.384 36.225 130.271 35.3016 128.643 33.4547C127.031 31.5922 126.225 28.8532 126.225 25.2378ZM137.377 1.36166V0.798216L144.138 0L144.396 0.0234753L144.795 0.774741L144.725 23.5944L144.936 34.699L147.777 35.5207V36.0137H142.213L141.603 35.3798L141.016 32.5157V23.6179L140.804 2.06597L137.377 1.36166Z" fill="#322C28"/>
<path d="M102.801 36.014V35.521L105.572 34.6993L105.619 23.8294L105.572 15.8238L102.801 15.0021V14.4386L108.929 13.6404L109.375 13.8986L109.539 17.8193L109.516 23.8294L109.563 34.6993L112.098 35.521V36.014H102.801ZM109.422 18.148L109.14 17.7958C109.672 16.5281 110.549 15.4481 111.769 14.556C113.006 13.6482 114.477 13.1943 116.183 13.1943C118.233 13.1943 119.759 13.6874 120.761 14.6734C121.763 15.6594 122.264 16.9976 122.264 18.688C122.264 19.7992 122.248 21.0983 122.217 22.5851C122.185 24.072 122.17 24.8155 122.17 24.8155L122.287 34.6993L125.057 35.521V36.014H115.455V35.521L118.296 34.6993L118.343 23.7825V19.2514C118.343 17.7802 118.046 16.6768 117.451 15.9411C116.872 15.1899 115.964 14.8142 114.728 14.8142C113.585 14.8142 112.552 15.1038 111.629 15.6829C110.705 16.2463 109.97 17.068 109.422 18.148Z" fill="#322C28"/>
<path d="M82.8213 30.8021C82.8213 28.9082 83.823 27.2179 85.8264 25.731C87.8297 24.2441 91.0382 23.0077 95.4519 22.0217L95.6163 22.4912C92.8616 23.1642 90.7409 24.1424 89.254 25.4258C87.7828 26.6936 87.0472 28.2665 87.0472 30.1447C87.0472 31.835 87.3445 33.0402 87.9393 33.7602C88.534 34.4801 89.3949 34.8401 90.5218 34.8401C91.6956 34.8401 92.7364 34.4488 93.6442 33.6662C94.5676 32.8837 95.0841 31.9916 95.1937 30.9899L95.4754 31.0133C95.4284 32.2811 94.7789 33.4863 93.5268 34.6288C92.2903 35.7557 90.733 36.3191 88.8549 36.3191C86.9454 36.3191 85.4585 35.8183 84.3943 34.8166C83.3456 33.8149 82.8213 32.4767 82.8213 30.8021ZM84.7699 16.3167C85.1925 15.5655 85.9672 14.8612 87.0941 14.2038C88.2366 13.5465 89.7548 13.2178 91.6486 13.2178C93.8242 13.2178 95.5771 13.8986 96.9075 15.2603C98.2379 16.6219 98.9187 18.9696 98.95 22.3034L99.0674 34.6992L101.861 35.5209V36.0139H96.4614L95.8745 35.4505L95.0528 31.8116L95.1232 22.5616C95.1545 19.2122 94.7633 16.9976 93.9494 15.9176C93.1355 14.822 92.0165 14.2742 90.5922 14.2742C89.2775 14.2742 88.1975 14.4934 87.3524 14.9316C86.5228 15.3542 85.795 15.9176 85.169 16.6219L84.7699 16.3167Z" fill="#322C28"/>
<path d="M53.312 24.8624C53.312 21.3565 54.1885 18.5393 55.9414 16.4107C57.6944 14.2665 59.9873 13.1943 62.8202 13.1943C65.4183 13.1943 67.4452 14.1256 68.9007 15.9881C70.3563 17.8506 71.2171 20.3079 71.4832 23.3599H67.6799C67.5391 20.9652 67.0852 18.7819 66.3183 16.8098C65.5514 14.8377 64.2993 13.8517 62.562 13.8517C60.9968 13.8517 59.7525 14.6812 58.8291 16.3403C57.9213 17.9993 57.4753 20.6131 57.4909 24.1816C57.4909 28.4387 58.1013 31.3499 59.3221 32.915C60.5429 34.4802 62.2254 35.2627 64.3697 35.2627C65.6844 35.2627 66.8035 34.9732 67.7269 34.3941C68.666 33.7993 69.4564 33.0246 70.0981 32.0698L70.4972 32.375C69.9337 33.5019 69.0729 34.4802 67.9147 35.3097C66.7722 36.1235 65.3088 36.5305 63.5245 36.5305C60.5195 36.5305 58.0622 35.5131 56.1527 33.4785C54.2589 31.4281 53.312 28.5561 53.312 24.8624ZM56.3405 23.8294V23.1486H70.4033L71.4832 23.2425L71.5067 23.8294H56.3405Z" fill="#322C28"/>
<path d="M29.9585 36.014V35.521L32.7288 34.6993L32.7757 23.8294L32.7288 15.8238L29.9585 15.0021V14.4386L36.086 13.6404L36.5321 13.8986L36.6964 17.8193L36.6729 23.8294L36.7199 34.6993L39.2554 35.521V36.014H29.9585ZM36.579 18.148L36.2973 17.7958C36.8294 16.5281 37.7059 15.4481 38.9267 14.556C40.1632 13.6482 41.6344 13.1943 43.3404 13.1943C45.3907 13.1943 46.9167 13.6874 47.9184 14.6734C48.9201 15.6594 49.4209 16.9976 49.4209 18.688C49.4209 19.7992 49.4053 21.0983 49.374 22.5851C49.3427 24.072 49.327 24.8155 49.327 24.8155L49.4444 34.6993L52.2147 35.521V36.014H42.6126V35.521L45.4533 34.6993L45.5003 23.7825V19.2514C45.5003 17.7802 45.2029 16.6768 44.6081 15.9411C44.029 15.1899 43.1213 14.8142 41.8848 14.8142C40.7423 14.8142 39.7093 15.1038 38.7858 15.6829C37.8624 16.2463 37.1268 17.068 36.579 18.148Z" fill="#322C28"/>
<path d="M0 18.6176C0 12.9988 1.29124 8.55384 3.87371 5.28271C6.45618 1.99593 9.89947 0.352539 14.2036 0.352539C18.5077 0.352539 21.951 1.91767 24.5335 5.04794C27.1159 8.17821 28.4072 12.5997 28.4072 18.3124C28.4072 23.7591 27.1316 28.1728 24.5804 31.5535C22.0293 34.9342 18.5938 36.6245 14.274 36.6245C10.0482 36.6245 6.61269 35.0046 3.96761 31.7648C1.32254 28.5093 0 24.1269 0 18.6176ZM4.48411 17.6786C4.48411 23.6417 5.36841 28.1728 7.13701 31.2718C8.92126 34.3551 11.2846 35.8967 14.2271 35.8967C17.4199 35.8967 19.8302 34.4959 21.458 31.6943C23.1014 28.8771 23.9231 24.4321 23.9231 18.3594C23.9231 12.7406 23.0544 8.45993 21.3171 5.51748C19.5955 2.57503 17.2321 1.1038 14.2271 1.1038C11.0342 1.1038 8.60823 2.41069 6.94919 5.02446C5.3058 7.63824 4.48411 11.8563 4.48411 17.6786Z" fill="#322C28"/>
</svg>
