<svg width="106" height="25" viewBox="0 0 106 25" fill="none" xmlns="http://www.w3.org/2000/svg">
<path d="M51.4154 0.353055H49.9217C49.7845 0.353055 49.653 0.407542 49.556 0.504529C49.459 0.601516 49.4045 0.733061 49.4045 0.870222V18.1228L49.1537 17.6703C49.1537 17.6703 46.1438 12.3159 44.5776 9.5198C42.9055 6.52714 39.6956 0.802988 39.6956 0.802988C39.6123 0.672504 39.4991 0.563725 39.3654 0.485639C39.2317 0.407553 39.0813 0.362401 38.9268 0.353917H37.5597C37.4236 0.355505 37.2936 0.410692 37.1979 0.507508C37.1022 0.604323 37.0486 0.734962 37.0486 0.871083V23.185C37.0486 23.3211 37.1022 23.4518 37.1979 23.5486C37.2936 23.6454 37.4236 23.7006 37.5597 23.7022H39.0405C39.1777 23.7022 39.3092 23.6477 39.4062 23.5507C39.5032 23.4537 39.5577 23.3222 39.5577 23.185V5.68761C39.5577 5.68761 39.6689 5.87724 39.8163 6.11858C39.8163 6.11858 40.0309 6.49352 40.2421 6.85985C43.3545 12.428 49.4269 23.2522 49.4269 23.2522C49.5097 23.3833 49.6227 23.4925 49.7565 23.5706C49.8904 23.6488 50.041 23.6936 50.1958 23.7013H51.4094C51.5465 23.7013 51.6781 23.6468 51.7751 23.5498C51.8721 23.4529 51.9266 23.3213 51.9266 23.1842V0.866773C51.9252 0.73003 51.8703 0.599269 51.7736 0.502573C51.6769 0.405876 51.5461 0.350957 51.4094 0.349609" fill="#7593A7"/>
<path d="M62.4301 0.352051H60.7674C60.6302 0.352051 60.4987 0.406537 60.4017 0.503524C60.3047 0.600512 60.2502 0.732057 60.2502 0.869218V23.1935C60.2516 23.3302 60.3065 23.461 60.4032 23.5577C60.4999 23.6544 60.6307 23.7093 60.7674 23.7107H62.4223C62.5595 23.7107 62.691 23.6562 62.788 23.5592C62.885 23.4622 62.9395 23.3307 62.9395 23.1935V0.869218C62.9395 0.732057 62.885 0.600512 62.788 0.503524C62.691 0.406537 62.5595 0.352051 62.4223 0.352051" fill="#7593A7"/>
<path d="M28.2566 0.352051H26.5784C26.5105 0.352051 26.4433 0.365429 26.3805 0.391419C26.3178 0.417409 26.2608 0.455501 26.2128 0.503524C26.1647 0.551548 26.1266 0.608561 26.1006 0.671307C26.0747 0.734052 26.0613 0.801302 26.0613 0.869218V23.1935C26.0613 23.2614 26.0747 23.3287 26.1006 23.3914C26.1266 23.4542 26.1647 23.5112 26.2128 23.5592C26.2608 23.6072 26.3178 23.6453 26.3805 23.6713C26.4433 23.6973 26.5105 23.7107 26.5784 23.7107H28.2489C28.386 23.7107 28.5176 23.6562 28.6146 23.5592C28.7116 23.4622 28.766 23.3307 28.766 23.1935V0.869218C28.766 0.732057 28.7116 0.600512 28.6146 0.503524C28.5176 0.406537 28.386 0.352051 28.2489 0.352051" fill="#7593A7"/>
<path d="M17.2819 0.34857H15.1469C14.9916 0.357672 14.8408 0.403816 14.7071 0.483144C14.5733 0.562471 14.4605 0.672674 14.378 0.804537L9.20639 10.2643C9.17167 10.085 9.1259 9.90795 9.06935 9.73425C9.06935 9.73425 8.86076 9.09124 8.63234 8.5758C8.193 7.57026 7.68318 6.597 7.10671 5.6633C5.96276 3.74041 4.50622 2.02169 2.797 0.577846C2.56564 0.398279 2.27365 0.315468 1.98246 0.346844H0.523198C0.385613 0.347281 0.253699 0.40172 0.155848 0.498443C0.0579969 0.595165 0.0020326 0.72644 1.19784e-09 0.864011V23.1866C-4.65571e-06 23.255 0.0135695 23.3227 0.0399359 23.3859C0.0663024 23.449 0.104937 23.5063 0.153601 23.5544C0.202265 23.6025 0.259991 23.6405 0.323435 23.6661C0.386878 23.6917 0.454777 23.7045 0.523198 23.7037H2.01005C2.14721 23.7037 2.27875 23.6492 2.37574 23.5523C2.47272 23.4553 2.52721 23.3237 2.52721 23.1866V3.8153C2.65256 3.91821 2.77038 4.02997 2.87975 4.14973C2.87975 4.14973 3.41501 4.71085 3.90115 5.3349C5.34626 7.26509 6.43343 9.43885 7.11102 11.7529C7.3627 12.5623 7.66438 13.8362 7.66438 13.8362C7.68545 13.9859 7.76342 14.1216 7.88208 14.2152C8.00073 14.3088 8.15091 14.3531 8.30136 14.3387H9.42188C9.57638 14.3301 9.72655 14.2845 9.85985 14.2059C9.99316 14.1274 10.1057 14.018 10.1881 13.8871L14.9176 5.25129C15.0512 5.00047 15.1659 4.82032 15.1659 4.82032V23.1797C15.1659 23.3161 15.2197 23.447 15.3158 23.5438C15.4119 23.6407 15.5423 23.6957 15.6787 23.6968H17.2819C17.4191 23.6968 17.5506 23.6423 17.6476 23.5454C17.7446 23.4484 17.7991 23.3168 17.7991 23.1797V0.869183C17.7973 0.732578 17.7422 0.602069 17.6456 0.505466C17.549 0.408863 17.4185 0.353802 17.2819 0.352016" fill="#7593A7"/>
<path d="M105.014 0.352051H103.335C103.198 0.352051 103.066 0.406537 102.969 0.503524C102.872 0.600512 102.818 0.732057 102.818 0.869217L102.823 10.0385V10.5557H93.2431V10.0385L93.2483 0.869217C93.2483 0.732057 93.1938 0.600512 93.0968 0.503524C92.9999 0.406537 92.8683 0.352051 92.7312 0.352051H91.0607C90.9243 0.353188 90.7939 0.408176 90.6978 0.50504C90.6017 0.601904 90.5478 0.7328 90.5479 0.869217V23.1814C90.5478 23.3178 90.6017 23.4487 90.6978 23.5456C90.7939 23.6425 90.9243 23.6975 91.0607 23.6986H92.7312C92.8683 23.6986 92.9999 23.6441 93.0968 23.5471C93.1938 23.4501 93.2483 23.3186 93.2483 23.1814L93.2431 13.5277V13.0105H102.818V23.1866C102.818 23.3238 102.873 23.4553 102.97 23.5523C103.067 23.6493 103.198 23.7038 103.336 23.7038H105.015C105.151 23.7024 105.282 23.6475 105.379 23.5508C105.476 23.4541 105.53 23.3233 105.532 23.1866V0.869217C105.532 0.732057 105.477 0.600512 105.38 0.503524C105.283 0.406537 105.151 0.352051 105.014 0.352051Z" fill="#7593A7"/>
<path d="M82.958 12.981C82.2248 12.3057 81.3788 11.7646 80.4584 11.3821C78.862 10.6994 77.2614 10.04 75.6496 9.3841C74.9632 9.13851 74.321 8.78339 73.7481 8.33253C73.3121 7.9725 72.9763 7.50608 72.7732 6.97834C72.5701 6.45061 72.5065 5.87941 72.5887 5.31994C72.6708 4.76047 72.8959 4.23165 73.2422 3.78458C73.5884 3.33752 74.0441 2.98732 74.5653 2.76784C75.9604 2.15582 77.5354 2.09424 78.9741 2.59545C79.7155 2.82824 80.3675 3.28318 80.8419 3.8987C81.0911 4.23942 81.3185 4.59554 81.5229 4.96493C81.5568 5.02329 81.6021 5.07421 81.6562 5.11465C81.7103 5.1551 81.7719 5.18423 81.8375 5.20032C81.903 5.21641 81.9712 5.21913 82.0378 5.2083C82.1045 5.19748 82.1682 5.17333 82.2253 5.13731L83.5027 4.33657C83.619 4.26025 83.7029 4.14372 83.7385 4.00932C83.7742 3.87492 83.759 3.7321 83.6958 3.60823C83.4458 3.14829 83.1495 2.71507 82.8115 2.31532C81.6036 0.981379 79.9221 0.172485 78.1259 0.0613412C77.0822 -0.057388 76.026 -0.00351379 74.9997 0.220802C73.8578 0.446975 72.7916 0.958137 71.9001 1.70679C71.3242 2.1974 70.8562 2.802 70.5255 3.48247C70.1948 4.16294 70.0087 4.90454 69.9789 5.66051C69.8755 6.94811 70.2406 8.22974 71.0072 9.26946C71.6255 10.1064 72.4413 10.7774 73.3818 11.2226C74.517 11.7605 75.6823 12.2216 76.8296 12.7215C77.8449 13.1654 78.8827 13.5637 79.8628 14.0748C80.5005 14.3668 81.0436 14.8317 81.4306 15.4167C81.8175 16.0018 82.0328 16.6835 82.0521 17.3846C82.113 18.2212 81.9028 19.0551 81.4525 19.7627C81.0023 20.4704 80.336 21.0141 79.5525 21.3134C78.0845 21.8859 76.4633 21.9307 74.9661 21.4401C74.0479 21.173 73.2572 20.5831 72.7397 19.7791C72.3281 19.1135 72.1204 18.3419 72.1423 17.5596V17.3588C72.1256 17.2367 72.0625 17.1257 71.9663 17.0487C71.8701 16.9717 71.748 16.9346 71.6252 16.945H70.003C69.8665 16.9471 69.7361 17.0022 69.6395 17.0987C69.543 17.1953 69.4878 17.3257 69.4858 17.4622C69.4858 17.4622 69.4858 17.8673 69.5246 18.2423C69.5955 19.211 69.9051 20.1471 70.4258 20.9671C70.9465 21.7871 71.6621 22.4654 72.5087 22.9416C73.5665 23.5492 74.7457 23.9153 75.9616 24.0138C77.4389 24.1877 78.9363 24.0281 80.3437 23.5467C81.9375 23.027 83.2609 21.8978 84.0251 20.4057C84.5879 19.2586 84.8244 17.9788 84.7086 16.7063C84.6307 15.2844 84.003 13.9484 82.958 12.981Z" fill="#7593A7"/>
</svg>
