<svg width="120" height="120" viewBox="0 0 120 120" fill="none" xmlns="http://www.w3.org/2000/svg">
<circle cx="60" cy="60" r="60" fill="#BECCD6"/>
<g clip-path="url(#clip0_1642_2)">
<path d="M62.1096 79.7878H57.8902C57.0674 79.7878 56.4134 79.1127 56.4134 78.311V76.5178C56.4134 75.6528 55.8648 74.8933 55.0421 74.619C54.4091 74.4081 53.7762 74.1338 53.1644 73.8385C52.4049 73.4587 51.5189 73.6064 50.9281 74.1971L49.6201 75.5051C49.0505 76.0747 48.08 76.0747 47.5315 75.5051L44.5357 72.5304C43.9661 71.9608 43.9661 71.0114 44.5357 70.4418L45.8648 69.1127C46.4556 68.522 46.6032 67.6359 46.2235 66.8764C45.9281 66.2646 45.6539 65.6317 45.4429 64.9988C45.1686 64.176 44.4091 63.6275 43.5653 63.6275H41.7087C40.8859 63.6275 40.2319 62.9524 40.2319 62.1507V57.9313C40.2319 57.1085 40.907 56.4545 41.7087 56.4545H43.5864C44.4302 56.4545 45.1897 55.906 45.464 55.1043C45.675 54.4714 45.9492 53.8595 46.2446 53.2477C46.6243 52.4882 46.4767 51.6022 45.8859 51.0114L44.5146 49.6401C44.2404 49.3659 44.0716 48.9861 44.0716 48.5853C44.0716 48.1844 44.2193 47.8258 44.5146 47.5304L47.5104 44.5558C48.0589 43.9861 49.0505 43.9861 49.599 44.5558L50.9703 45.9271C51.561 46.5178 52.4471 46.6655 53.2066 46.2857C53.7973 45.9904 54.4302 45.7372 55.0632 45.5262C55.8648 45.252 56.4134 44.5136 56.4134 43.6697V41.7287C56.4134 40.906 57.0885 40.252 57.8902 40.252H62.1096C62.9324 40.252 63.5864 40.9271 63.5864 41.7287V43.6697C63.5864 44.5136 64.1349 45.252 64.9366 45.5262C65.5695 45.7372 66.1813 45.9904 66.7931 46.2857C67.5526 46.6655 68.4387 46.5178 69.0294 45.9271L70.4007 44.5558C70.9703 43.9861 71.9197 43.9861 72.4893 44.5558L75.464 47.5515C75.7383 47.8258 75.907 48.2055 75.907 48.6064C75.907 49.0072 75.7594 49.3659 75.464 49.6612L74.0927 51.0325C73.502 51.6233 73.3543 52.5304 73.734 53.2688C74.0294 53.8595 74.3037 54.4925 74.5146 55.1254C74.7889 55.9271 75.5484 56.4756 76.3923 56.4756H78.2699C79.0927 56.4756 79.7467 57.1507 79.7467 57.9524V62.1718C79.7467 62.9946 79.0716 63.6486 78.2699 63.6486H76.4134C75.5695 63.6486 74.81 64.1971 74.5357 65.0199C74.3248 65.6528 74.0505 66.2857 73.7551 66.8975C73.3754 67.657 73.5231 68.5431 74.1138 69.1338L75.4429 70.4629C76.0125 71.0325 76.0125 71.9819 75.4429 72.5515L72.4682 75.5262C71.8986 76.0958 70.9492 76.0958 70.3796 75.5262L69.0716 74.2182C68.4809 73.6275 67.5737 73.4798 66.8353 73.8595C66.2235 74.1549 65.5906 74.4292 64.9577 74.6401C64.1349 74.9144 63.5864 75.695 63.5864 76.5389V78.3321C63.5864 79.1549 62.9113 79.8089 62.1096 79.8089V79.7878ZM52.2783 72.4882C52.7425 72.4882 53.2066 72.5937 53.6497 72.8047C54.2193 73.079 54.81 73.3321 55.4007 73.5431C56.6665 73.9861 57.5315 75.1676 57.5315 76.4967V78.2899C57.5315 78.5009 57.7003 78.6697 57.9113 78.6697H62.1307C62.3416 78.6697 62.5104 78.5009 62.5104 78.2899V76.4967C62.5104 75.1676 63.3543 73.9861 64.6412 73.5431C65.2319 73.3321 65.8227 73.1001 66.3923 72.8047C67.5737 72.214 68.9872 72.446 69.9155 73.3743L71.2235 74.6823C71.3712 74.83 71.6032 74.83 71.7509 74.6823L74.7256 71.7077C74.7256 71.7077 74.8311 71.5389 74.8311 71.4334C74.8311 71.3279 74.7889 71.2435 74.7256 71.1591L73.3965 69.83C72.4682 68.9017 72.2573 67.5093 72.8269 66.3279C73.1011 65.7583 73.3543 65.1676 73.5442 64.5768C73.9661 63.311 75.1475 62.4671 76.4767 62.4671H78.3332C78.5442 62.4671 78.7129 62.2984 78.7129 62.0874V57.868C78.7129 57.657 78.5442 57.4882 78.3332 57.4882H76.4556C75.1475 57.4882 73.9661 56.6444 73.5231 55.3785C73.3121 54.7878 73.08 54.2182 72.8058 53.6697C72.2151 52.4882 72.4471 51.0747 73.3754 50.1465L74.7467 48.7752C74.7467 48.7752 74.8522 48.6064 74.8522 48.5009C74.8522 48.3954 74.81 48.311 74.7467 48.2266L71.772 45.2309C71.6243 45.0832 71.3923 45.0832 71.2446 45.2309L69.8733 46.6022C68.945 47.5304 67.5526 47.7414 66.3712 47.1718C65.8227 46.8975 65.2319 46.6655 64.6412 46.4545C63.3965 46.0325 62.5526 44.8722 62.5526 43.5431V41.6022C62.5526 41.3912 62.3838 41.2224 62.1729 41.2224H57.9535C57.7425 41.2224 57.5737 41.3912 57.5737 41.6022V43.5431C57.5737 44.8511 56.7298 46.0325 55.4851 46.4545C54.8944 46.6444 54.3248 46.8975 53.7551 47.1718C52.5737 47.7625 51.1602 47.5304 50.253 46.6022L48.8817 45.2309C48.734 45.0832 48.4809 45.0832 48.3543 45.2309L45.3585 48.2266C45.3585 48.2266 45.253 48.3954 45.253 48.5009C45.253 48.6064 45.2952 48.6908 45.3585 48.7752L46.7298 50.1465C47.6581 51.0747 47.8902 52.4882 47.2994 53.6697C47.0252 54.2182 46.772 54.8089 46.5821 55.3785C46.1602 56.6444 44.9788 57.4882 43.6497 57.4882H41.772C41.561 57.4882 41.3923 57.657 41.3923 57.868V62.0874C41.3923 62.2984 41.561 62.4671 41.772 62.4671H43.6286C44.9577 62.4671 46.1391 63.311 46.561 64.5768C46.772 65.1676 47.0041 65.7583 47.2783 66.3279C47.8691 67.5093 47.637 68.9017 46.7087 69.83L45.3796 71.1591C45.3796 71.1591 45.2741 71.3279 45.2741 71.4334C45.2741 71.5389 45.3163 71.6233 45.3796 71.7077L48.3754 74.6823C48.5231 74.83 48.7762 74.83 48.9028 74.6823L50.2108 73.3743C50.8016 72.7836 51.561 72.4882 52.3627 72.4882H52.2783Z" fill="white"/>
<path d="M62.1098 79.9992H57.8904C56.9621 79.9992 56.2026 79.2397 56.2026 78.3115V76.5182C56.2026 75.7587 55.7174 75.0625 54.979 74.8094C54.325 74.5773 53.6921 74.3241 53.0592 74.0077C52.3841 73.6701 51.5824 73.7967 51.055 74.3241L49.7469 75.6321C49.4516 75.9275 49.0085 76.1174 48.5444 76.1174C48.0803 76.1174 47.6583 75.9486 47.3419 75.6321L44.3461 72.6575C43.6921 72.0034 43.6921 70.9275 44.3461 70.2735L45.6752 68.9444C46.2026 68.417 46.3292 67.6153 45.9917 66.9402C45.6963 66.3283 45.422 65.6743 45.2111 65.0203C44.9579 64.2819 44.2828 63.7967 43.5233 63.7967H41.6668C40.7385 63.7967 39.979 63.0372 39.979 62.1089V57.8895C39.979 56.9613 40.7385 56.2018 41.6668 56.2018H43.5444C44.3039 56.2018 44.979 55.7165 45.2322 54.9781C45.4431 54.3452 45.7174 53.7123 46.0128 53.1005C46.3503 52.4254 46.2237 51.6237 45.6963 51.0963L44.325 49.725C44.0085 49.4085 43.8398 48.9866 43.8398 48.5224C43.8398 48.0583 44.0085 47.6364 44.325 47.3199L47.3208 44.3241C47.6161 44.0288 48.0592 43.8389 48.5233 43.8389C48.9874 43.8389 49.4094 44.0077 49.7258 44.3241L51.0971 45.7165C51.6246 46.244 52.4263 46.3705 53.1014 46.033C53.7132 45.7376 54.3461 45.4634 54.979 45.2524C55.6963 44.9992 56.1815 44.3452 56.1815 43.5857V41.6448C56.1815 40.7165 56.941 39.957 57.8693 39.957H62.0887C63.017 39.957 63.7765 40.7165 63.7765 41.6448V43.5857C63.7765 44.3452 64.2617 44.9992 64.979 45.2524C65.6119 45.4634 66.2448 45.7376 66.8566 46.033C67.5317 46.3705 68.3334 46.244 68.8609 45.7165L70.2322 44.3452C70.8862 43.6912 71.9621 43.6912 72.6161 44.3452L75.6119 47.341C75.9284 47.6575 76.0971 48.0794 76.0971 48.5435C76.0971 49.0077 75.9284 49.4296 75.6119 49.7461L74.2406 51.1174C73.7132 51.6448 73.5866 52.4465 73.9242 53.1216C74.2195 53.7334 74.4938 54.3663 74.7047 54.9992C74.9579 55.7165 75.633 56.2229 76.3925 56.2229H78.2701C79.1984 56.2229 79.9579 56.9824 79.9579 57.9106V62.13C79.9579 63.0583 79.1984 63.8178 78.2701 63.8178H76.4136C75.6541 63.8178 74.979 64.303 74.7258 65.0414C74.5149 65.6954 74.2406 66.3283 73.9453 66.9613C73.6077 67.6364 73.7343 68.438 74.2617 68.9655L75.5908 70.2946C76.2448 70.9486 76.2448 72.0245 75.5908 72.6786L72.6161 75.6743C71.9621 76.3283 70.8862 76.3283 70.2322 75.6743L68.9242 74.3663C68.3967 73.8389 67.595 73.7123 66.9199 74.0499C66.3081 74.3663 65.6541 74.6195 65.0001 74.8516C64.2617 75.1047 63.7765 75.8009 63.7765 76.5604V78.3537C63.7765 79.2819 63.017 80.0414 62.0887 80.0414L62.1098 79.9992ZM52.2786 73.3959C52.6161 73.3959 52.9326 73.4802 53.249 73.6279C53.8398 73.9233 54.4727 74.1975 55.1056 74.4085C56.0128 74.725 56.6246 75.5689 56.6246 76.5182V78.3115C56.6246 79.0077 57.1942 79.5773 57.8904 79.5773H62.1098C62.806 79.5773 63.3756 79.0077 63.3756 78.3115V76.5182C63.3756 75.5689 63.9874 74.725 64.8946 74.4085C65.5275 74.1975 66.1604 73.9233 66.7512 73.6279C67.595 73.206 68.5866 73.3748 69.2406 74.0288L70.5486 75.3368C71.055 75.8431 71.8566 75.8431 72.363 75.3368L75.3377 72.341C75.844 71.8347 75.844 71.033 75.3377 70.5478L74.0085 69.2186C73.3545 68.5646 73.2069 67.5731 73.6077 66.7503C73.9031 66.1596 74.1562 65.5267 74.3672 64.8937C74.6626 63.9866 75.5064 63.3959 76.4558 63.3959H78.3123C79.0085 63.3959 79.5782 62.8262 79.5782 62.13V57.9106C79.5782 57.2144 79.0085 56.6448 78.3123 56.6448H76.4347C75.5064 56.6448 74.6626 56.0541 74.3672 55.1469C74.1562 54.5351 73.9031 53.9022 73.6077 53.3115C73.1858 52.4676 73.3545 51.476 74.0085 50.822L75.3799 49.4507C75.6119 49.2186 75.7596 48.8811 75.7596 48.5435C75.7596 48.206 75.633 47.8895 75.3799 47.6364L72.4052 44.6406C71.8988 44.1342 71.0971 44.1342 70.6119 44.6406L69.2406 46.0119C68.5866 46.6659 67.595 46.8136 66.7723 46.4127C66.1815 46.1174 65.5697 45.8642 64.9368 45.6532C64.0507 45.3579 63.46 44.5351 63.46 43.6068V41.6659C63.46 40.9697 62.8904 40.4001 62.1942 40.4001H57.9748C57.2786 40.4001 56.709 40.9697 56.709 41.6659V43.6068C56.709 44.5351 56.1182 45.3579 55.2322 45.6532C54.6204 45.8642 53.9874 46.1174 53.3967 46.4127C52.5739 46.8347 51.5613 46.6659 50.9284 46.0119L49.5571 44.6406C49.325 44.4085 49.0085 44.2819 48.6499 44.2819C48.3123 44.2819 47.9748 44.4085 47.7427 44.6406L44.768 47.6364C44.536 47.8684 44.3883 48.206 44.3883 48.5435C44.3883 48.8811 44.5149 49.1975 44.768 49.4507L46.1393 50.822C46.7934 51.476 46.941 52.4676 46.5402 53.3115C46.2448 53.9022 45.9917 54.514 45.7807 55.1469C45.4642 56.033 44.6415 56.6448 43.7132 56.6448H41.8355C41.1393 56.6448 40.5697 57.2144 40.5697 57.9106V62.13C40.5697 62.8262 41.1393 63.3959 41.8355 63.3959H43.6921C44.6415 63.3959 45.4642 64.0077 45.7807 64.8937C45.9917 65.5267 46.2448 66.1596 46.5402 66.7503C46.941 67.5731 46.7934 68.5646 46.1393 69.2186L44.8102 70.5478C44.3039 71.0541 44.3039 71.8558 44.8102 72.341L47.7849 75.3368C48.017 75.5689 48.3334 75.6954 48.6921 75.6954C49.0296 75.6954 49.3672 75.5689 49.5993 75.3368L50.9073 74.0288C51.3081 73.6279 51.8566 73.3959 52.4263 73.3959H52.2786ZM62.1098 78.8811H57.8904C57.5739 78.8811 57.2997 78.6279 57.2997 78.2904V76.4971C57.2997 75.2524 56.498 74.1553 55.3166 73.7334C54.7047 73.5224 54.114 73.2693 53.5444 72.995C53.1436 72.8051 52.7005 72.6997 52.2575 72.6997C51.498 72.6997 50.8018 72.995 50.2533 73.5224L48.9452 74.8305C48.8398 74.9359 48.6921 74.9992 48.5233 74.9992C48.3756 74.9992 48.2069 74.9359 48.1014 74.8305L45.1056 71.8347C45.0001 71.7292 44.9368 71.5815 44.9368 71.4127C44.9368 71.244 45.0001 71.1174 45.1056 70.9908L46.4347 69.6617C47.2997 68.7967 47.5106 67.4887 46.9621 66.3916C46.6879 65.822 46.4347 65.2313 46.2237 64.6195C45.8229 63.438 44.7258 62.6364 43.4811 62.6364H41.6246C41.3081 62.6364 41.0339 62.3832 41.0339 62.0456V57.8262C41.0339 57.5098 41.287 57.2355 41.6246 57.2355H43.5022C44.7258 57.2355 45.8229 56.4549 46.2237 55.2735C46.4347 54.6828 46.6668 54.0921 46.9621 53.5224C47.5106 52.4254 47.2997 51.0963 46.4347 50.2524L45.0634 48.8811C44.9579 48.7756 44.8946 48.6279 44.8946 48.4591C44.8946 48.2904 44.9579 48.1638 45.0634 48.0372L48.0592 45.0414C48.2701 44.8305 48.671 44.8305 48.882 45.0414L50.2744 46.4338C51.1393 47.2988 52.4474 47.5098 53.5444 46.9613C54.114 46.687 54.7047 46.4338 55.2955 46.244C56.4558 45.8431 57.2364 44.7672 57.2364 43.5435V41.6026C57.2364 41.2861 57.4896 41.0119 57.8271 41.0119H62.0465C62.363 41.0119 62.6372 41.265 62.6372 41.6026V43.5435C62.6372 44.7672 63.4178 45.8642 64.5993 46.244C65.19 46.4549 65.7807 46.687 66.3503 46.9613C67.4474 47.5098 68.7554 47.2988 69.6204 46.4338L70.9917 45.0625C71.0971 44.957 71.2448 44.8937 71.4136 44.8937C71.5613 44.8937 71.709 44.957 71.8355 45.0625L74.8102 48.0583C74.9157 48.1638 74.979 48.3115 74.979 48.4802C74.979 48.649 74.9157 48.7756 74.8102 48.9022L73.4389 50.2735C72.5739 51.1385 72.363 52.4465 72.9115 53.5435C73.1858 54.1132 73.4389 54.7039 73.6499 55.2946C74.0507 56.476 75.1478 57.2566 76.3714 57.2566H78.249C78.5655 57.2566 78.8398 57.5098 78.8398 57.8473V62.0667C78.8398 62.3832 78.5866 62.6575 78.249 62.6575H76.3925C75.1478 62.6575 74.0507 63.4591 73.6499 64.6406C73.4389 65.2524 73.2069 65.8431 72.9115 66.4127C72.363 67.5098 72.5739 68.8178 73.4389 69.6828L74.768 71.0119C74.8735 71.1174 74.9368 71.2651 74.9368 71.4338C74.9368 71.6026 74.8735 71.7292 74.768 71.8558L71.7934 74.8305C71.5613 75.0625 71.2026 75.0625 70.9706 74.8305L69.6625 73.5224C68.7976 72.6575 67.4896 72.4465 66.3925 72.995C65.8229 73.2904 65.2322 73.5224 64.6204 73.7334C63.4389 74.1343 62.6372 75.2524 62.6372 76.4971V78.2904C62.6372 78.6068 62.3841 78.8811 62.0465 78.8811H62.1098ZM52.2786 72.2777C52.7849 72.2777 53.2912 72.4043 53.7343 72.6153C54.2828 72.8895 54.8735 73.1427 55.4642 73.3326C56.8144 73.7967 57.7216 75.0625 57.7216 76.476V78.2693C57.7216 78.2693 57.806 78.438 57.8904 78.438H62.1098C62.1098 78.438 62.2786 78.3537 62.2786 78.2693V76.476C62.2786 75.0625 63.1858 73.7967 64.536 73.3326C65.1267 73.1216 65.6963 72.8895 66.2659 72.6153C67.5317 71.9824 69.0296 72.2355 70.0212 73.2271L71.3292 74.5351C71.3292 74.5351 71.498 74.5984 71.5613 74.5351L74.536 71.5604C74.536 71.5604 74.5782 71.4971 74.5782 71.4338C74.5782 71.3705 74.5782 71.3494 74.536 71.3072L73.2069 69.9781C72.2153 68.9866 71.9832 67.4887 72.595 66.244C72.8693 65.6954 73.1014 65.1047 73.3123 64.514C73.7765 63.1638 75.0212 62.2566 76.4347 62.2566H78.2912C78.2912 62.2566 78.46 62.1722 78.46 62.0878V57.8684C78.46 57.8684 78.3756 57.6997 78.2912 57.6997H76.4136C75.0001 57.6997 73.7554 56.7925 73.2912 55.4634C73.1014 54.8937 72.8482 54.3241 72.5739 53.7756C71.941 52.5098 72.1942 51.0119 73.1858 50.0203L74.5571 48.649C74.5571 48.649 74.5993 48.5646 74.5993 48.5224C74.5993 48.4802 74.5993 48.438 74.5571 48.3959L71.5613 45.4001C71.5613 45.4001 71.4769 45.3579 71.4347 45.3579C71.4347 45.3579 71.3503 45.3579 71.3081 45.4001L69.9368 46.7714C68.9452 47.7629 67.4474 47.995 66.1815 47.3832C65.633 47.1089 65.0634 46.8769 64.4938 46.687C63.1647 46.244 62.2575 44.9781 62.2575 43.5857V41.6448C62.2575 41.6448 62.1731 41.476 62.0887 41.476H57.8693C57.8693 41.476 57.7005 41.5604 57.7005 41.6448V43.5857C57.7005 44.9781 56.7934 46.244 55.4642 46.687C54.8946 46.8769 54.325 47.1089 53.7765 47.3832C52.5107 47.995 51.0128 47.7629 50.0212 46.7714L48.6499 45.379C48.6499 45.379 48.46 45.3157 48.4178 45.379L45.4431 48.3748C45.4431 48.3748 45.4009 48.4591 45.4009 48.5013C45.4009 48.5435 45.4009 48.5857 45.4431 48.6279L46.8144 49.9992C47.806 50.9908 48.0381 52.4887 47.4263 53.7545C47.152 54.303 46.9199 54.8726 46.709 55.4423C46.2448 56.7714 45.0001 57.6786 43.5866 57.6786H41.709C41.709 57.6786 41.5402 57.7629 41.5402 57.8473V62.0667C41.5402 62.0667 41.6246 62.2355 41.709 62.2355H43.5655C44.979 62.2355 46.2448 63.1427 46.6879 64.4929C46.8777 65.0836 47.1309 65.6532 47.4052 66.2229C48.017 67.4676 47.7849 68.9866 46.7934 69.957L45.4642 71.2861C45.4642 71.2861 45.422 71.3705 45.422 71.4127C45.422 71.4549 45.422 71.4971 45.4642 71.5393L48.4389 74.5351C48.4389 74.5351 48.5022 74.5773 48.5655 74.5773C48.5655 74.5773 48.6499 74.5773 48.6921 74.5351L50.0001 73.2271C50.6119 72.6153 51.4347 72.2777 52.2997 72.2777H52.2786Z" fill="white"/>
<path d="M60.0002 71.055C53.9031 71.055 48.9453 66.0972 48.9453 60.0002C48.9453 53.9031 53.9031 48.9453 60.0002 48.9453C66.0972 48.9453 71.055 53.9031 71.055 60.0002C71.055 66.0972 66.0972 71.055 60.0002 71.055ZM60.0002 50.0635C54.5149 50.0635 50.0635 54.5149 50.0635 60.0002C50.0635 65.4854 54.5149 69.9369 60.0002 69.9369C65.4854 69.9369 69.9369 65.4854 69.9369 60.0002C69.9369 54.5149 65.4854 50.0635 60.0002 50.0635Z" fill="white"/>
<path d="M60.0002 71.266C53.7977 71.266 48.7344 66.2238 48.7344 60.0002C48.7344 53.7766 53.7766 48.7344 60.0002 48.7344C66.2238 48.7344 71.266 53.7766 71.266 60.0002C71.266 66.2238 66.2238 71.266 60.0002 71.266ZM60.0002 49.1774C54.0297 49.1774 49.1563 54.0508 49.1563 60.0213C49.1563 65.9918 54.0297 70.8652 60.0002 70.8652C65.9707 70.8652 70.8441 65.9918 70.8441 60.0213C70.8441 54.0508 65.9707 49.1774 60.0002 49.1774ZM60.0002 70.169C54.4095 70.169 49.8525 65.612 49.8525 60.0213C49.8525 54.4306 54.4095 49.8736 60.0002 49.8736C65.5909 49.8736 70.1479 54.4306 70.1479 60.0213C70.1479 65.612 65.5909 70.169 60.0002 70.169ZM60.0002 50.2745C54.6415 50.2745 50.2745 54.6415 50.2745 60.0002C50.2745 65.3588 54.6415 69.7259 60.0002 69.7259C65.3588 69.7259 69.7259 65.3588 69.7259 60.0002C69.7259 54.6415 65.3588 50.2745 60.0002 50.2745Z" fill="white"/>
</g>
<defs>
<clipPath id="clip0_1642_2">
<rect width="40" height="40" fill="white" transform="translate(40 40)"/>
</clipPath>
</defs>
</svg>
