<svg width="180" height="180" viewBox="0 0 180 180" fill="none" xmlns="http://www.w3.org/2000/svg">
<circle cx="90" cy="90" r="90" fill="#DDD0B4"/>
<path d="M92.4417 63.1172H91.0832C89.3852 63.1172 87.8145 63.6257 86.4985 64.4733C84.6731 65.6599 82.3808 65.6599 80.5554 64.4733C79.2394 63.6045 77.6687 63.1172 75.9707 63.1172H74.6123C69.9427 63.1172 66.1221 66.9313 66.1221 71.6142V76.615C66.1221 79.3696 67.4593 81.8064 69.5181 83.3532H69.4969C69.4969 83.3532 72.044 87.019 70.4733 96.2789C68.9026 105.539 74.0816 116.896 76.6711 115.795C79.2606 114.693 77.4989 110.709 79.6427 103.123C80.6615 99.4997 82.211 96.5756 83.5482 94.5202C84.8854 96.5967 86.4348 99.4997 87.4537 103.123C89.5762 110.709 87.8145 114.693 90.4252 115.795C93.0147 116.896 98.215 105.539 96.6231 96.2789C95.0312 87.019 97.5994 83.3744 97.5994 83.3744H97.5782C99.6159 81.8064 100.974 79.3696 100.974 76.615V71.6142C100.974 66.9313 97.1537 63.1172 92.4629 63.1172H92.4417Z" stroke="#433A34" stroke-width="2" stroke-linejoin="round"/>
<path d="M114.877 81.5535H106.515V73.1836H99.6587V81.5535H91.2959V88.3765H99.6587V96.7464H106.515V88.3765H114.877V81.5535Z" fill="white" stroke="#433A34" stroke-width="2" stroke-linejoin="round"/>
</svg>
