<svg width="33" height="40" viewBox="0 0 33 40" fill="none" xmlns="http://www.w3.org/2000/svg">
<g id="image" clip-path="url(#clip0_821_2743)">
<g id="Group">
<path id="Vector (Stroke)" fill-rule="evenodd" clip-rule="evenodd" d="M20.3973 21.0703C20.9064 21.0703 21.3191 21.483 21.3191 21.9921V25.8564C21.3191 26.2489 21.208 26.6492 21.0718 27.0067C20.9311 27.376 20.7382 27.7645 20.5209 28.1509C20.0863 28.9236 19.5173 29.7523 18.9633 30.5025C18.4067 31.2563 17.852 31.9487 17.4374 32.4515C17.2298 32.7034 17.0565 32.9087 16.9346 33.0516C16.8737 33.123 16.8256 33.1789 16.7924 33.2173L16.7542 33.2614L16.7439 33.2732L16.7403 33.2773C16.7402 33.2774 16.7399 33.2778 16.0463 32.6706C15.327 33.2471 15.3269 33.247 15.3268 33.2469L15.3232 33.2425L15.3139 33.2307L15.2787 33.1865C15.2483 33.148 15.2042 33.0921 15.1483 33.0205C15.0365 32.8774 14.8776 32.6718 14.6872 32.4196C14.307 31.9161 13.7983 31.2229 13.288 30.4687C12.7799 29.7179 12.2586 28.8896 11.8608 28.1185C11.4878 27.3957 11.1348 26.5616 11.1348 25.8564V22.265C11.1348 21.7559 11.5475 21.3432 12.0566 21.3432C12.5657 21.3432 12.9784 21.7559 12.9784 22.265V25.8564C12.9784 26.0694 13.1241 26.5462 13.4992 27.2732C13.8494 27.9519 14.3255 28.7123 14.8149 29.4355C15.2673 30.1041 15.7211 30.7263 16.0781 31.2018C16.4712 30.7231 16.9765 30.0894 17.4802 29.4073C18.014 28.6845 18.5328 27.9248 18.914 27.2471C19.1046 26.9081 19.2516 26.6058 19.3489 26.3505C19.4507 26.0832 19.4755 25.925 19.4755 25.8564V21.9921C19.4755 21.483 19.8882 21.0703 20.3973 21.0703ZM16.0463 32.6706L15.3268 33.2469C15.4974 33.4598 15.7536 33.5863 16.0263 33.5922C16.2989 33.5981 16.5607 33.4825 16.7403 33.2773L16.0463 32.6706Z" fill="#8D7F74"/>
<path id="Vector (Stroke)_2" fill-rule="evenodd" clip-rule="evenodd" d="M24.6487 12.276C25.1521 12.2004 25.6215 12.5473 25.6971 13.0508L27.4153 24.5036C27.4552 24.769 27.3774 25.0386 27.2022 25.2419C27.0271 25.4453 26.7721 25.5622 26.5037 25.5622H21.2382C20.7291 25.5622 20.3164 25.1495 20.3164 24.6404C20.3164 24.1313 20.7291 23.7186 21.2382 23.7186H25.4333L23.8738 13.3244C23.7983 12.8209 24.1452 12.3515 24.6487 12.276Z" fill="#8D7F74"/>
<path id="Vector (Stroke)_3" fill-rule="evenodd" clip-rule="evenodd" d="M8.57377 12.276C9.07725 12.3515 9.42416 12.8209 9.34862 13.3244L7.78916 23.7186H11.1287C11.6379 23.7186 12.0506 24.1313 12.0506 24.6404C12.0506 25.1495 11.6379 25.5622 11.1287 25.5622H6.71871C6.45035 25.5622 6.19531 25.4453 6.02019 25.2419C5.84508 25.0386 5.76727 24.769 5.80708 24.5036L7.52537 13.0508C7.60091 12.5473 8.0703 12.2004 8.57377 12.276Z" fill="#8D7F74"/>
<path id="Vector (Stroke)_4" fill-rule="evenodd" clip-rule="evenodd" d="M16.5626 3.56241C12.6396 3.56241 9.46085 6.74114 9.46085 10.6642V14.5137C9.46085 18.4368 12.6396 21.6155 16.5626 21.6155C20.4857 21.6155 23.6644 18.4368 23.6644 14.5137V10.6642C23.6644 6.74114 20.4857 3.56241 16.5626 3.56241ZM7.61719 10.6642C7.61719 5.72291 11.6213 1.71875 16.5626 1.71875C21.5039 1.71875 25.508 5.72291 25.508 10.6642V14.5137C25.508 19.455 21.5039 23.4592 16.5626 23.4592C11.6213 23.4592 7.61719 19.455 7.61719 14.5137V10.6642Z" fill="#8D7F74"/>
<path id="Vector (Stroke)_5" fill-rule="evenodd" clip-rule="evenodd" d="M17.1203 6.92969C17.1204 6.92981 17.1205 6.92994 17.1206 6.93007L17.1206 6.93011L17.1258 6.93704C17.131 6.94391 17.1395 6.95521 17.1514 6.97065C17.1752 7.00154 17.2121 7.04894 17.2617 7.11051C17.3608 7.23372 17.5098 7.41313 17.7034 7.62998C18.0916 8.06489 18.6536 8.64407 19.347 9.22115C20.7589 10.3962 22.5918 11.4599 24.5427 11.4599C25.0518 11.4599 25.4645 11.8726 25.4645 12.3817C25.4645 12.8909 25.0518 13.3036 24.5427 13.3036C21.9508 13.3036 19.7019 11.9152 18.1676 10.6382C17.435 10.0285 16.837 9.42057 16.4086 8.94736C15.0254 10.5187 13.2739 11.4374 11.8236 11.9711C10.9559 12.2903 10.1763 12.4793 9.61144 12.5889C9.32841 12.6438 9.09761 12.6791 8.93458 12.7009C8.85302 12.7119 8.78828 12.7195 8.74228 12.7244C8.71928 12.7269 8.70095 12.7288 8.68754 12.7301L8.67113 12.7316L8.66575 12.7321L8.66377 12.7323L8.66296 12.7323C8.6626 12.7324 8.66227 12.7324 8.58398 11.8139" fill="#8D7F74"/>
<path id="Vector" d="M8.61332 6.9322H24.631L26.6369 0.921875H6.60742L8.61332 6.9322Z" fill="white"/>
<path id="Vector (Stroke)_6" fill-rule="evenodd" clip-rule="evenodd" d="M5.85946 0.382964C6.03271 0.142499 6.31101 0 6.60738 0H26.6369C26.9333 0 27.2116 0.142499 27.3848 0.382964C27.5581 0.623428 27.6051 0.932526 27.5113 1.21366L25.5054 7.22398C25.3798 7.60024 25.0276 7.85398 24.631 7.85398H8.61328C8.21662 7.85398 7.86444 7.60024 7.73887 7.22398L5.73297 1.21366C5.63914 0.932527 5.68621 0.623428 5.85946 0.382964ZM7.88685 1.84366L9.27744 6.01032H23.9668L25.3574 1.84366H7.88685Z" fill="#8D7F74"/>
</g>
<g id="Group_2">
<path id="Vector (Stroke)_7" fill-rule="evenodd" clip-rule="evenodd" d="M19.6016 27.6835C19.6016 27.1744 20.0143 26.7617 20.5234 26.7617H21.1429C27.6693 26.7617 32.9718 32.056 32.9718 38.5906C32.9718 39.0997 32.559 39.5125 32.0499 39.5125C31.5408 39.5125 31.1281 39.0997 31.1281 38.5906C31.1281 33.0751 26.6519 28.6054 21.1429 28.6054H20.5234C20.0143 28.6054 19.6016 28.1927 19.6016 27.6835Z" fill="#8D7F74"/>
<path id="Vector (Stroke)_8" fill-rule="evenodd" clip-rule="evenodd" d="M11.8289 28.5976C6.31335 28.5976 1.84366 33.0738 1.84366 38.5828C1.84366 39.0919 1.43094 39.5046 0.921829 39.5046C0.412717 39.5046 0 39.0919 0 38.5828C0 32.0564 5.29432 26.7539 11.8289 26.7539C12.338 26.7539 12.7507 27.1666 12.7507 27.6757C12.7507 28.1848 12.338 28.5976 11.8289 28.5976Z" fill="#8D7F74"/>
<path id="Vector_2" d="M24.1454 32.5195H21.5938V39.9974H24.1454V32.5195Z" fill="#8D7F74"/>
<path id="Vector_3" d="M26.6068 34.9844H19.1289V37.536H26.6068V34.9844Z" fill="#8D7F74"/>
</g>
</g>
<defs>
<clipPath id="clip0_821_2743">
<rect width="32.9646" height="40" fill="white"/>
</clipPath>
</defs>
</svg>
