<svg width="150" height="150" viewBox="0 0 150 150" fill="none" xmlns="http://www.w3.org/2000/svg">
<circle cx="75" cy="75" r="75" fill="#FAEFD8"/>
<path d="M102.084 65.4993H93.7503M93.7503 65.4993H85.417M93.7503 65.4993V57.166M93.7503 65.4993V73.8327" stroke="white" stroke-width="6.25" stroke-linecap="round"/>
<path d="M75.0002 51.2246L72.7168 53.3579C73.0092 53.6708 73.3627 53.9203 73.7555 54.0908C74.1483 54.2614 74.5719 54.3494 75.0002 54.3494C75.4284 54.3494 75.852 54.2614 76.2448 54.0908C76.6376 53.9203 76.9911 53.6708 77.2835 53.3579L75.0002 51.2246ZM36.0502 85.0079C36.2563 85.3712 36.5332 85.6894 36.8645 85.9439C37.1957 86.1983 37.5746 86.3837 37.9788 86.4892C38.3829 86.5947 38.8041 86.6181 39.2174 86.558C39.6308 86.498 40.0279 86.3556 40.3853 86.1395C40.7427 85.9233 41.0531 85.6377 41.2982 85.2995C41.5434 84.9613 41.7182 84.5774 41.8124 84.1705C41.9067 83.7636 41.9184 83.3419 41.8468 82.9304C41.7753 82.5189 41.622 82.1259 41.396 81.7746L36.0502 85.0079ZM52.2377 95.3788C51.9553 95.0692 51.6136 94.8196 51.2328 94.6448C50.8521 94.4699 50.44 94.3735 50.0212 94.3611C49.6024 94.3487 49.1854 94.4206 48.795 94.5727C48.4045 94.7247 48.0487 94.9537 47.7485 95.246C47.4483 95.5383 47.21 95.888 47.0478 96.2743C46.8855 96.6606 46.8025 97.0756 46.8038 97.4945C46.8052 97.9135 46.8907 98.328 47.0554 98.7132C47.2202 99.0985 47.4607 99.4467 47.7627 99.7371L52.2377 95.3788ZM36.4585 66.8246C36.4585 54.7204 41.7418 47.2413 48.2752 44.6788C54.796 42.1246 63.9168 43.9496 72.7168 53.3579L77.2835 49.0913C67.3335 38.4496 55.621 35.0913 45.996 38.8579C36.3835 42.6246 30.2085 52.9663 30.2085 66.8246H36.4585ZM89.6252 111.166C95.846 106.12 103.296 99.3579 109.221 91.8038C115.083 84.3288 119.792 75.6413 119.792 66.8163H113.542C113.542 73.5329 109.875 80.8329 104.3 87.9454C98.7835 94.9829 91.7335 101.412 85.6918 106.312L89.6252 111.166ZM119.792 66.8163C119.792 52.9621 113.617 42.6204 104 38.8579C94.3752 35.0871 82.6668 38.4413 72.7168 49.0871L77.2835 53.3579C86.0835 43.9496 95.2043 42.1204 101.725 44.6746C108.258 47.2329 113.542 54.7163 113.542 66.8163H119.792ZM60.3752 111.17C65.6668 115.47 69.3418 118.625 75.0002 118.625V112.375C71.9877 112.375 70.1127 111.025 64.3085 106.316L60.3752 111.17ZM85.6918 106.312C79.8877 111.02 78.0127 112.375 75.0002 112.375V118.625C80.6585 118.625 84.3377 115.47 89.6293 111.17L85.6918 106.312ZM41.4002 81.7746C38.2793 76.6246 36.4585 71.5621 36.4585 66.8246H30.2085C30.2085 73.1246 32.6085 79.3246 36.0502 85.0079L41.4002 81.7746ZM64.3085 106.316C60.0784 102.905 56.0482 99.2531 52.2377 95.3788L47.7627 99.7371C51.7393 103.79 55.9534 107.608 60.3752 111.17L64.3085 106.316Z" fill="white"/>
</svg>
