<svg width="120" height="120" viewBox="0 0 120 120" fill="none" xmlns="http://www.w3.org/2000/svg">
<circle cx="60" cy="60" r="60" fill="#AA9B7A"/>
<g clip-path="url(#clip0_1643_6)">
<path d="M76.9922 70.5996C76.9922 70.5996 76.915 70.5996 76.8687 70.5842L62.4477 66.2609C62.2778 66.2146 62.1543 66.0448 62.1543 65.8749V45.2007C62.1543 45.0772 62.2161 44.9537 62.3087 44.8765C62.4013 44.7993 62.5403 44.7684 62.6638 44.8147L77.0076 48.6902L91.3514 44.8147C91.4749 44.7839 91.5985 44.8147 91.7065 44.8765C91.7992 44.9537 91.8609 45.0772 91.8609 45.2007V66.5543C91.8609 66.7396 91.7374 66.894 91.5521 66.9403L77.1157 70.5842C77.1157 70.5842 77.0539 70.5842 77.0231 70.5842L76.9922 70.5996ZM62.9572 65.5661L77.0076 69.7658L91.0426 66.2301V45.7257L77.1157 49.4931C77.1157 49.4931 76.9767 49.5085 76.8995 49.4931L62.9572 45.7257V65.5661Z" fill="white"/>
<path d="M76.9923 70.7377C76.9923 70.7377 76.8842 70.7377 76.8379 70.7069L62.4014 66.3991C62.1698 66.3373 62 66.1212 62 65.8741V45.1999C62 45.0301 62.0772 44.8602 62.2162 44.7522C62.3551 44.6441 62.525 44.6132 62.6948 44.6595L76.9923 48.535L91.2898 44.6595C91.4596 44.6132 91.6294 44.6595 91.7684 44.7522C91.9074 44.8602 91.9846 45.0146 91.9846 45.1999V66.5535C91.9846 66.816 91.8147 67.0321 91.5677 67.0939L77.1312 70.7377C77.1312 70.7377 77.0386 70.7532 76.9923 70.7532V70.7377ZM62.5558 44.9529C62.5558 44.9529 62.4478 44.9683 62.4014 44.9992C62.3397 45.0455 62.3088 45.1227 62.3088 45.1999V65.8741C62.3088 65.9822 62.386 66.0903 62.4941 66.1212L76.9305 70.4444C76.9305 70.4444 77.0232 70.4444 77.0695 70.4444L91.5059 66.8005C91.614 66.7697 91.6912 66.677 91.6912 66.5535V45.1999C91.6912 45.1227 91.6603 45.0455 91.5986 44.9992C91.5368 44.9529 91.4596 44.9374 91.3824 44.9529L77.0386 48.8283C77.0386 48.8283 76.9923 48.8283 76.9614 48.8283L62.6176 44.9529C62.6176 44.9529 62.5713 44.9529 62.5558 44.9529ZM77.0077 69.9349C77.0077 69.9349 76.9768 69.9349 76.9614 69.9349L62.911 65.7197C62.911 65.7197 62.8029 65.6425 62.8029 65.5808V45.7249C62.8029 45.7249 62.8183 45.6322 62.8646 45.6014C62.8955 45.5705 62.9573 45.555 63.0036 45.5705L76.9305 49.3378C76.9305 49.3378 77.0232 49.3378 77.0695 49.3378L90.9964 45.5705C90.9964 45.5705 91.089 45.5705 91.1354 45.6014C91.1817 45.6322 91.1971 45.6786 91.1971 45.7249V66.2293C91.1971 66.2293 91.1508 66.3528 91.089 66.3837L77.054 69.9194H77.0232L77.0077 69.9349ZM63.1117 65.4573L77.0077 69.6106L90.8883 66.1057V45.9256L77.1467 49.6466C77.054 49.6775 76.946 49.6775 76.8533 49.6466L63.1117 45.9256V65.4573Z" fill="white"/>
<path d="M91.4441 45.6003C91.4441 45.6003 91.3824 45.6003 91.3515 45.6003L76.9923 41.9719L62.6485 45.5848C62.4323 45.6466 62.2161 45.5076 62.1544 45.2915C62.0926 45.0753 62.2316 44.8591 62.4477 44.7974L76.8996 41.169C76.8996 41.169 77.0386 41.1535 77.1003 41.169L91.5368 44.8128C91.7529 44.8746 91.8919 45.0907 91.8301 45.3069C91.7838 45.4922 91.614 45.6157 91.4441 45.6157V45.6003Z" fill="white"/>
<path d="M91.4443 45.7556C91.4443 45.7556 91.3516 45.7556 91.3053 45.7401L76.9924 42.1272L62.6949 45.7401C62.4015 45.8173 62.0927 45.6321 62.0155 45.3387C61.9847 45.1997 62.0155 45.0453 62.0773 44.9218C62.1545 44.7983 62.278 44.7057 62.417 44.6748L76.8689 41.0155C76.9615 41 77.0541 41 77.1468 41.0155L91.5832 44.6593C91.7222 44.6902 91.8457 44.7829 91.9229 44.9064C92.0001 45.0299 92.0155 45.1843 91.9847 45.3233C91.9229 45.5703 91.7067 45.7401 91.4443 45.7401V45.7556ZM76.9924 41.8184H77.0233L91.3671 45.4313C91.4906 45.4622 91.645 45.385 91.6758 45.2461C91.6913 45.1843 91.6759 45.1071 91.645 45.0608C91.6141 44.999 91.5523 44.9681 91.4906 44.9527L77.0541 41.3088C77.0541 41.3088 76.9769 41.3088 76.9306 41.3088L62.4942 44.9527C62.4942 44.9527 62.3707 45.0145 62.3398 45.0608C62.3089 45.1225 62.2935 45.1843 62.3089 45.2461C62.3398 45.385 62.4787 45.4622 62.6177 45.4313L76.9615 41.8338H76.9924V41.8184Z" fill="white"/>
<path d="M76.9923 70.5991C76.7761 70.5991 76.5908 70.4138 76.5908 70.1976V49.1065C76.5908 48.8904 76.7761 48.7051 76.9923 48.7051C77.2084 48.7051 77.3937 48.8904 77.3937 49.1065V70.1822C77.3937 70.3983 77.2084 70.5836 76.9923 70.5836V70.5991Z" fill="white"/>
<path d="M76.9924 70.7381C76.6836 70.7381 76.4365 70.4911 76.4365 70.1823V49.1066C76.4365 48.7978 76.6836 48.5508 76.9924 48.5508C77.3012 48.5508 77.5482 48.7978 77.5482 49.1066V70.1823C77.5482 70.4911 77.3012 70.7381 76.9924 70.7381ZM76.9924 48.8441C76.8534 48.8441 76.7453 48.9522 76.7453 49.0912V70.1668C76.7453 70.3058 76.8534 70.4139 76.9924 70.4139C77.1313 70.4139 77.2394 70.3058 77.2394 70.1668V49.1066C77.2394 48.9677 77.1313 48.8596 76.9924 48.8596V48.8441Z" fill="white"/>
<path d="M83.5384 47.7474C83.5384 47.7474 83.4612 47.7474 83.4149 47.7319L71.1401 43.7638C70.9239 43.7021 70.8158 43.4705 70.8776 43.2543C70.9393 43.0382 71.1709 42.9301 71.3871 42.9918L83.6619 46.9599C83.8781 47.0217 83.9862 47.2533 83.9244 47.4695C83.8627 47.6393 83.7083 47.7474 83.5384 47.7474Z" fill="white"/>
<path d="M83.5386 47.9017C83.5386 47.9017 83.4306 47.9017 83.3688 47.8708L71.094 43.9027C70.955 43.8564 70.8315 43.7638 70.7697 43.6248C70.708 43.4858 70.6925 43.3469 70.7388 43.1925C70.8315 42.8991 71.1403 42.7447 71.4336 42.8374L83.7085 46.8055C83.8474 46.8518 83.971 46.9444 84.0327 47.0834C84.0945 47.2223 84.1099 47.3613 84.0636 47.5157C83.9864 47.7473 83.7702 47.9017 83.5386 47.9017ZM71.2638 43.1307C71.1557 43.1307 71.0631 43.1925 71.0322 43.3006C71.0168 43.3623 71.0322 43.4395 71.0476 43.5013C71.0785 43.563 71.1248 43.6094 71.202 43.6248L83.4769 47.5929C83.6158 47.6392 83.7548 47.562 83.8011 47.4231C83.8166 47.3613 83.8011 47.2841 83.7857 47.2223C83.7548 47.1606 83.7085 47.1143 83.6313 47.0988L71.341 43.1307C71.341 43.1307 71.2947 43.1307 71.2638 43.1307Z" fill="white"/>
</g>
<g clip-path="url(#clip1_1643_6)">
<path d="M42.9922 83.5996C42.9922 83.5996 42.915 83.5996 42.8687 83.5842L28.4477 79.2609C28.2778 79.2146 28.1543 79.0448 28.1543 78.8749V58.2007C28.1543 58.0772 28.2161 57.9537 28.3087 57.8765C28.4013 57.7993 28.5403 57.7684 28.6638 57.8147L43.0076 61.6902L57.3514 57.8147C57.4749 57.7839 57.5985 57.8147 57.7065 57.8765C57.7992 57.9537 57.8609 58.0772 57.8609 58.2007V79.5543C57.8609 79.7396 57.7374 79.894 57.5521 79.9403L43.1157 83.5842C43.1157 83.5842 43.0539 83.5842 43.0231 83.5842L42.9922 83.5996ZM28.9572 78.5661L43.0076 82.7658L57.0426 79.2301V58.7257L43.1157 62.4931C43.1157 62.4931 42.9767 62.5085 42.8995 62.4931L28.9572 58.7257V78.5661Z" fill="white"/>
<path d="M42.9923 83.7377C42.9923 83.7377 42.8842 83.7377 42.8379 83.7069L28.4014 79.3991C28.1698 79.3373 28 79.1212 28 78.8741V58.1999C28 58.0301 28.0772 57.8602 28.2162 57.7522C28.3551 57.6441 28.525 57.6132 28.6948 57.6595L42.9923 61.535L57.2898 57.6595C57.4596 57.6132 57.6294 57.6595 57.7684 57.7522C57.9074 57.8602 57.9846 58.0146 57.9846 58.1999V79.5535C57.9846 79.816 57.8147 80.0321 57.5677 80.0939L43.1312 83.7377C43.1312 83.7377 43.0386 83.7532 42.9923 83.7532V83.7377ZM28.5558 57.9529C28.5558 57.9529 28.4478 57.9683 28.4014 57.9992C28.3397 58.0455 28.3088 58.1227 28.3088 58.1999V78.8741C28.3088 78.9822 28.386 79.0903 28.4941 79.1212L42.9305 83.4444C42.9305 83.4444 43.0232 83.4444 43.0695 83.4444L57.5059 79.8005C57.614 79.7697 57.6912 79.677 57.6912 79.5535V58.1999C57.6912 58.1227 57.6603 58.0455 57.5986 57.9992C57.5368 57.9529 57.4596 57.9374 57.3824 57.9529L43.0386 61.8283C43.0386 61.8283 42.9923 61.8283 42.9614 61.8283L28.6176 57.9529C28.6176 57.9529 28.5713 57.9529 28.5558 57.9529ZM43.0077 82.9349C43.0077 82.9349 42.9768 82.9349 42.9614 82.9349L28.911 78.7197C28.911 78.7197 28.8029 78.6425 28.8029 78.5808V58.7249C28.8029 58.7249 28.8183 58.6322 28.8646 58.6014C28.8955 58.5705 28.9573 58.555 29.0036 58.5705L42.9305 62.3378C42.9305 62.3378 43.0232 62.3378 43.0695 62.3378L56.9964 58.5705C56.9964 58.5705 57.089 58.5705 57.1354 58.6014C57.1817 58.6322 57.1971 58.6786 57.1971 58.7249V79.2293C57.1971 79.2293 57.1508 79.3528 57.089 79.3837L43.054 82.9194H43.0232L43.0077 82.9349ZM29.1117 78.4573L43.0077 82.6106L56.8883 79.1057V58.9256L43.1467 62.6466C43.054 62.6775 42.946 62.6775 42.8533 62.6466L29.1117 58.9256V78.4573Z" fill="white"/>
<path d="M57.4441 58.6003C57.4441 58.6003 57.3824 58.6003 57.3515 58.6003L42.9923 54.9719L28.6485 58.5848C28.4323 58.6466 28.2161 58.5076 28.1544 58.2915C28.0926 58.0753 28.2316 57.8591 28.4477 57.7974L42.8996 54.169C42.8996 54.169 43.0386 54.1535 43.1003 54.169L57.5368 57.8128C57.7529 57.8746 57.8919 58.0907 57.8301 58.3069C57.7838 58.4922 57.614 58.6157 57.4441 58.6157V58.6003Z" fill="white"/>
<path d="M57.4443 58.7556C57.4443 58.7556 57.3516 58.7556 57.3053 58.7401L42.9924 55.1272L28.6949 58.7401C28.4015 58.8173 28.0927 58.6321 28.0155 58.3387C27.9847 58.1997 28.0155 58.0453 28.0773 57.9218C28.1545 57.7983 28.278 57.7057 28.417 57.6748L42.8689 54.0155C42.9615 54 43.0541 54 43.1468 54.0155L57.5832 57.6593C57.7222 57.6902 57.8457 57.7829 57.9229 57.9064C58.0001 58.0299 58.0155 58.1843 57.9847 58.3233C57.9229 58.5703 57.7067 58.7401 57.4443 58.7401V58.7556ZM42.9924 54.8184H43.0233L57.3671 58.4313C57.4906 58.4622 57.645 58.385 57.6758 58.2461C57.6913 58.1843 57.6759 58.1071 57.645 58.0608C57.6141 57.999 57.5523 57.9681 57.4906 57.9527L43.0541 54.3088C43.0541 54.3088 42.9769 54.3088 42.9306 54.3088L28.4942 57.9527C28.4942 57.9527 28.3707 58.0145 28.3398 58.0608C28.3089 58.1225 28.2935 58.1843 28.3089 58.2461C28.3398 58.385 28.4787 58.4622 28.6177 58.4313L42.9615 54.8338H42.9924V54.8184Z" fill="white"/>
<path d="M42.9923 83.5991C42.7761 83.5991 42.5908 83.4138 42.5908 83.1976V62.1065C42.5908 61.8904 42.7761 61.7051 42.9923 61.7051C43.2084 61.7051 43.3937 61.8904 43.3937 62.1065V83.1822C43.3937 83.3983 43.2084 83.5836 42.9923 83.5836V83.5991Z" fill="white"/>
<path d="M42.9924 83.7381C42.6836 83.7381 42.4365 83.4911 42.4365 83.1823V62.1066C42.4365 61.7978 42.6836 61.5508 42.9924 61.5508C43.3012 61.5508 43.5482 61.7978 43.5482 62.1066V83.1823C43.5482 83.4911 43.3012 83.7381 42.9924 83.7381ZM42.9924 61.8441C42.8534 61.8441 42.7453 61.9522 42.7453 62.0912V83.1668C42.7453 83.3058 42.8534 83.4139 42.9924 83.4139C43.1313 83.4139 43.2394 83.3058 43.2394 83.1668V62.1066C43.2394 61.9677 43.1313 61.8596 42.9924 61.8596V61.8441Z" fill="white"/>
<path d="M49.5384 60.7474C49.5384 60.7474 49.4612 60.7474 49.4149 60.7319L37.1401 56.7638C36.9239 56.7021 36.8158 56.4705 36.8776 56.2543C36.9393 56.0382 37.1709 55.9301 37.3871 55.9918L49.6619 59.9599C49.8781 60.0217 49.9862 60.2533 49.9244 60.4695C49.8627 60.6393 49.7083 60.7474 49.5384 60.7474Z" fill="white"/>
<path d="M49.5386 60.9017C49.5386 60.9017 49.4306 60.9017 49.3688 60.8708L37.094 56.9027C36.955 56.8564 36.8315 56.7638 36.7697 56.6248C36.708 56.4858 36.6925 56.3469 36.7388 56.1925C36.8315 55.8991 37.1403 55.7447 37.4336 55.8374L49.7085 59.8055C49.8474 59.8518 49.971 59.9444 50.0327 60.0834C50.0945 60.2223 50.1099 60.3613 50.0636 60.5157C49.9864 60.7473 49.7702 60.9017 49.5386 60.9017ZM37.2638 56.1307C37.1557 56.1307 37.0631 56.1925 37.0322 56.3006C37.0168 56.3623 37.0322 56.4395 37.0476 56.5013C37.0785 56.563 37.1248 56.6094 37.202 56.6248L49.4769 60.5929C49.6158 60.6392 49.7548 60.562 49.8011 60.4231C49.8166 60.3613 49.8011 60.2841 49.7857 60.2223C49.7548 60.1606 49.7085 60.1143 49.6313 60.0988L37.341 56.1307C37.341 56.1307 37.2947 56.1307 37.2638 56.1307Z" fill="white"/>
</g>
<defs>
<clipPath id="clip0_1643_6">
<rect width="30" height="29.7375" fill="white" transform="translate(62 41)"/>
</clipPath>
<clipPath id="clip1_1643_6">
<rect width="30" height="29.7375" fill="white" transform="translate(28 54)"/>
</clipPath>
</defs>
</svg>
