<svg width="180" height="180" viewBox="0 0 180 180" fill="none" xmlns="http://www.w3.org/2000/svg">
<circle cx="90" cy="90" r="90" fill="#FAEFD8"/>
<path d="M96.9624 50.658C94.4699 49.5325 91.7377 52.1427 89.9881 54.2021C88.2626 52.1427 85.5064 49.5564 83.0139 50.658C79.7784 52.1188 78.2206 56.1897 79.5148 59.8057C80.809 63.4217 89.9642 69.8874 89.9642 69.8874C89.9642 69.8874 99.1194 63.3978 100.414 59.8057C101.708 56.2137 100.15 52.1188 96.9144 50.658H96.9624Z" fill="white" stroke="#5E524A" stroke-width="2" stroke-linejoin="round"/>
<path d="M98.9997 75.25H97.6336C95.908 75.25 94.3262 75.7529 93.0081 76.615C91.1627 77.8123 88.8619 77.8123 87.0165 76.615C85.6743 75.7529 84.0926 75.25 82.3909 75.25H81.0249C76.2795 75.25 72.4209 79.1055 72.4209 83.8469V88.8997C72.4209 91.7015 73.787 94.1441 75.8481 95.7246C75.8481 95.7246 78.4365 99.4364 76.8307 108.8C75.2489 118.163 80.4736 129.657 83.1099 128.532C85.7223 127.406 83.9488 123.383 86.1057 115.72C87.1363 112.056 88.6941 109.111 90.0362 107.004C91.3784 109.087 92.9601 112.056 93.9667 115.72C96.1237 123.383 94.3502 127.406 96.9625 128.532C99.5749 129.657 104.824 118.139 103.242 108.8C101.66 99.4603 104.224 95.7486 104.224 95.7486C106.285 94.1681 107.652 91.7015 107.652 88.8997V83.8469C107.652 79.1055 103.793 75.25 99.0476 75.25H98.9997Z" stroke="#5E524A" stroke-width="2" stroke-linejoin="round"/>
</svg>
