<svg width="180" height="180" viewBox="0 0 180 180" fill="none" xmlns="http://www.w3.org/2000/svg">
<circle cx="90" cy="90" r="90" fill="#4C6677"/>
<g clip-path="url(#clip0_821_755)">
<path d="M63.3797 98.7245C63.802 97.4854 64.1747 96.2959 64.0008 95.0568C63.1809 88.7128 53.5163 82.4679 60.7461 76.7682C67.007 71.8367 70.7834 79.2959 74.4107 78.7507C79.4045 78.8994 83.156 71.3411 89.2927 76.3222C95.33 81.2289 86.7585 89.3571 85.2182 94.363C85.0442 94.9329 85.1436 95.5525 85.3672 96.1968" stroke="white" stroke-width="2.5" stroke-linecap="round" stroke-linejoin="round"/>
<path d="M98.4361 96.4938C106.337 97.0638 113.84 98.3524 119.952 100.31M119.927 122.812H57.2188M57.2188 100.31C65.815 97.5842 76.9703 96.5681 88.1504 96.3203" stroke="white" stroke-width="2.5" stroke-linecap="round" stroke-linejoin="round"/>
<path d="M122.809 73.0253L114.561 83.2848C113.418 84.6974 109.79 83.6565 106.436 80.9802M106.436 80.9802C103.082 78.3038 101.294 74.9831 102.436 73.5705L115.356 57.2148M106.436 80.9802C105.368 80.1376 104.449 79.2207 103.753 78.3285L98.6848 84.623C98.1382 85.2921 99.0078 86.9029 100.623 88.1915C102.238 89.4802 104.002 90.0006 104.548 89.3067L109.617 83.0122C108.598 82.5166 107.505 81.8227 106.436 80.9802ZM91.0078 100.161L100.648 88.1915" stroke="white" stroke-width="2.5" stroke-linecap="round" stroke-linejoin="round"/>
<path d="M86.582 101.029C89.2653 100.732 92.5448 100.732 94.9547 101.798" stroke="white" stroke-width="2.5" stroke-linecap="round" stroke-linejoin="round"/>
<path d="M116.025 76.3967C114.757 75.9011 113.341 75.0833 112 73.993C110.584 72.853 109.465 71.6139 108.695 70.4492" stroke="white" stroke-width="2.5" stroke-linecap="round" stroke-linejoin="round"/>
</g>
<defs>
<clipPath id="clip0_821_755">
<rect width="68" height="68" fill="white" transform="translate(56 56)"/>
</clipPath>
</defs>
</svg>
