<svg width="180" height="180" viewBox="0 0 180 180" fill="none" xmlns="http://www.w3.org/2000/svg">
<circle cx="90" cy="90" r="90" fill="#BECCD6"/>
<g clip-path="url(#clip0_821_537)">
<path d="M91.3695 111.42C91.3195 111.42 91.2595 111.42 91.2095 111.42C90.2895 111.3 88.8595 110.43 88.7295 107.9C88.3395 105.56 87.6695 101.83 87.3995 100.95C87.3995 100.93 86.7195 98.9301 85.4195 98.9301C84.1195 98.9301 83.4495 100.93 83.4495 100.95C83.1395 101.93 82.3995 106.23 82.1195 107.9C81.9895 110.42 80.5595 111.29 79.7295 111.41C77.5195 111.55 75.9595 109.09 75.6695 108.6C72.4495 103.79 70.7195 92.7201 70.6495 92.2501C69.2095 85.1301 70.6195 79.8901 70.6795 79.6801C72.1295 74.8001 77.5995 74.2101 77.8295 74.1901C80.2695 73.9401 81.9195 74.7101 82.3095 74.9001C82.4995 74.9801 82.9395 75.1401 83.8795 75.3601L83.2995 77.7901C82.3795 77.5701 81.7095 77.3701 81.2595 77.1701L81.1595 77.1201C81.1595 77.1201 79.9395 76.4901 78.0895 76.6801C77.9295 76.7001 74.0495 77.1401 73.0895 80.3801C73.0895 80.4101 71.7895 85.2701 73.1195 91.8301C73.1495 92.0001 74.8495 102.89 77.7795 107.27C78.2795 108.08 78.9595 108.75 79.3295 108.91C79.4395 108.77 79.5995 108.42 79.6195 107.74L79.6395 107.58C79.7395 106.97 80.6495 101.56 81.0595 100.23C81.4895 98.8301 82.8995 96.4501 85.4195 96.4501C87.9395 96.4501 89.3495 98.8301 89.7795 100.24C90.1895 101.57 91.0995 106.98 91.1995 107.59L91.2195 107.75C91.2495 108.48 91.4195 108.82 91.5395 108.94C91.8495 108.82 92.5995 108.06 93.0395 107.33C95.5295 103.61 97.1395 95.2901 97.5695 92.8201L100.029 93.2501C99.4495 96.5601 97.7995 104.7 95.1495 108.66C94.8895 109.09 93.3695 111.44 91.3695 111.44V111.42Z" fill="white"/>
<path d="M97.0894 89.6C93.9294 89.6 90.9394 88.22 88.8894 85.83C87.0094 83.64 86.0994 80.85 86.3194 77.97C86.5394 75.09 87.8694 72.48 90.0594 70.6C92.0194 68.92 94.5094 68 97.0894 68C100.249 68 103.239 69.37 105.289 71.77C107.169 73.96 108.079 76.75 107.859 79.62C107.639 82.5 106.309 85.12 104.129 87C102.169 88.68 99.6794 89.6 97.0994 89.6H97.0894ZM97.0794 70.5C95.0994 70.5 93.1894 71.21 91.6794 72.5C89.9994 73.94 88.9794 75.96 88.8094 78.17C88.6394 80.38 89.3394 82.52 90.7894 84.21C92.3694 86.05 94.6694 87.1 97.0894 87.11C99.0694 87.11 100.989 86.4 102.489 85.11C104.169 83.67 105.189 81.65 105.359 79.44C105.529 77.23 104.829 75.09 103.379 73.4C101.799 71.56 99.4994 70.5 97.0794 70.5Z" fill="white"/>
<path d="M104.287 85.0973L102.502 86.8477L109.174 93.6519L110.959 91.9015L104.287 85.0973Z" fill="white"/>
<path d="M99.2596 75.7385C97.1996 74.0185 95.0996 75.5085 94.8696 75.6785L93.3496 73.6985C94.6696 72.6785 97.9396 71.3885 100.87 73.8185L99.2696 75.7385H99.2596Z" fill="white"/>
</g>
<defs>
<clipPath id="clip0_821_537">
<rect width="40.96" height="43.42" fill="white" transform="translate(70 68)"/>
</clipPath>
</defs>
</svg>
