<svg width="120" height="120" viewBox="0 0 120 120" fill="none" xmlns="http://www.w3.org/2000/svg">
<circle cx="60" cy="60" r="60" fill="#DDD1B4"/>
<g clip-path="url(#clip0_1643_7)">
<path d="M58.98 78.3169C58.8174 78.3169 58.6752 78.2356 58.5735 78.1137L39.3256 54.6787C39.163 54.4958 39.163 54.2113 39.3256 54.008L48.9394 41.4064C49.041 41.2641 49.2036 41.2031 49.3662 41.2031H69.041C69.2036 41.2031 69.3662 41.2844 69.4678 41.4267L78.6955 54.2113C78.8378 54.4145 78.8378 54.6787 78.6752 54.8617L59.3865 78.1137C59.2849 78.2356 59.1426 78.2966 58.98 78.2966V78.3169ZM40.4028 54.3332L58.98 76.9552L77.5776 54.5161L68.7565 42.26H49.6304L40.4028 54.3332Z" fill="white"/>
<path d="M58.9799 78.5C58.7563 78.5 58.553 78.3984 58.4108 78.2358L39.1628 54.8008C38.9392 54.5366 38.9392 54.1707 39.1628 53.8862L48.7766 41.2846C48.9189 41.1016 49.1425 41 49.3661 41H69.0408C69.2847 41 69.488 41.122 69.6303 41.3049L78.8579 54.0894C79.0612 54.3537 79.0409 54.7195 78.8376 54.9837L59.5693 78.2358C59.427 78.3984 59.2238 78.5 59.0002 78.5H58.9799ZM49.3661 41.4065C49.2644 41.4065 49.1628 41.4472 49.1018 41.5285L39.4677 54.1301C39.3661 54.252 39.3864 54.4146 39.4677 54.5366L58.7156 77.9715C58.7156 77.9715 58.8782 78.0935 58.9799 78.0935C59.0815 78.0935 59.1628 78.0528 59.2441 77.9715L78.5327 54.7195C78.6343 54.5976 78.6343 54.435 78.5327 54.313L69.3051 41.5285C69.3051 41.5285 69.1425 41.3862 69.0408 41.3862H49.3661V41.4065ZM59.0002 77.1382C59.0002 77.1382 58.8782 77.1179 58.8376 77.0569L40.2604 54.4553C40.2604 54.4553 40.1994 54.2724 40.2604 54.2114L49.4677 42.1382C49.4677 42.1382 49.5693 42.0569 49.6303 42.0569H68.7563C68.7563 42.0569 68.8782 42.0976 68.9189 42.1382L77.7604 54.374C77.7604 54.374 77.801 54.5569 77.7604 54.6179L59.1628 77.0569C59.1628 77.0569 59.0612 77.1382 59.0002 77.1382ZM40.6669 54.3333L58.9799 76.6301L77.3335 54.4959L68.6547 42.4634H49.7116L40.6669 54.3333Z" fill="white"/>
<path d="M58.9801 78.3171C58.7769 78.3171 58.5736 78.1952 58.4923 77.9919L48.8582 54.5366C48.7769 54.3537 48.8175 54.1708 48.9192 54.0082L58.5533 41.4065C58.7362 41.183 59.0614 41.122 59.3053 41.3049C59.5492 41.4878 59.5899 41.813 59.407 42.0569L49.9761 54.4147L59.4883 77.5651C59.5899 77.8293 59.4883 78.1545 59.2037 78.2561C59.1427 78.2765 59.0614 78.2968 59.0005 78.2968L58.9801 78.3171Z" fill="white"/>
<path d="M58.9799 78.4991C58.675 78.4991 58.4108 78.3162 58.3092 78.052L48.675 54.617C48.5734 54.3731 48.6141 54.1089 48.7767 53.8853L58.4108 41.2837C58.5328 41.1211 58.6954 41.0195 58.8986 40.9991C59.1019 40.9788 59.2848 41.0195 59.4474 41.1414C59.61 41.2634 59.7116 41.426 59.7319 41.6292C59.7523 41.8325 59.7116 42.0154 59.5897 42.178L50.2197 54.4544L59.6913 77.5032C59.8539 77.869 59.671 78.2959 59.2848 78.4585C59.2035 78.4991 59.1019 78.5195 59.0002 78.5195L58.9799 78.4991ZM58.9799 41.3853C58.9799 41.3853 58.9596 41.3853 58.9393 41.3853C58.858 41.3853 58.7767 41.4463 58.7157 41.5073L49.0815 54.1089C49.0815 54.1089 49.0002 54.3325 49.0409 54.4341L58.675 77.869C58.736 78.0316 58.9393 78.1129 59.1019 78.052C59.2645 77.991 59.3458 77.7877 59.2848 77.6251L49.7929 54.4951C49.7929 54.4951 49.7929 54.3528 49.8132 54.2918L59.2441 41.9341C59.2441 41.9341 59.3254 41.7715 59.3051 41.6902C59.3051 41.6089 59.2441 41.5276 59.1832 41.4666C59.1222 41.426 59.0612 41.4056 58.9799 41.4056V41.3853Z" fill="white"/>
<path d="M59 78.3153C59 78.3153 58.8577 78.3153 58.7967 78.2747C58.5325 78.1527 58.3902 77.8479 58.5122 77.5836L68.0244 54.4332L58.5732 42.0552C58.3902 41.8316 58.4309 41.4861 58.6748 41.3031C58.9187 41.1202 59.2439 41.1609 59.4268 41.4048L69.061 54.0064C69.1829 54.1487 69.2032 54.3519 69.1219 54.5348L59.4878 77.9698C59.4065 78.1731 59.2032 78.295 59 78.295V78.3153Z" fill="white"/>
<path d="M59.0001 78.4991C59.0001 78.4991 58.8172 78.4991 58.7155 78.4382C58.3497 78.2756 58.1668 77.8487 58.309 77.4829L67.7806 54.4341L58.4107 42.178C58.2887 42.0154 58.2481 41.8325 58.2684 41.6292C58.2887 41.426 58.3903 41.2634 58.5529 41.1414C58.7155 41.0195 58.8985 40.9788 59.1017 40.9991C59.305 41.0195 59.4676 41.1211 59.5895 41.2837L69.2237 53.8853C69.3863 54.0886 69.4269 54.3731 69.3253 54.617L59.6911 78.052C59.5692 78.3365 59.305 78.4991 59.0204 78.4991H59.0001ZM59.0001 41.3853C59.0001 41.3853 58.8578 41.4056 58.7968 41.4463C58.7155 41.5073 58.6749 41.5886 58.6749 41.6699C58.6749 41.7512 58.6749 41.8528 58.7359 41.9138L68.1668 54.2715C68.1668 54.2715 68.2277 54.3934 68.1871 54.4747L58.6749 77.6251C58.6139 77.7877 58.6749 77.991 58.8578 78.052C59.0204 78.1129 59.2237 78.052 59.2846 77.869L68.9188 54.4341C68.9594 54.3325 68.9391 54.1902 68.8781 54.1089L59.2643 41.5276C59.2643 41.5276 59.122 41.4056 59.0407 41.4056H59.0001V41.3853Z" fill="white"/>
<path d="M78.2682 54.8811H39.7316C39.447 54.8811 39.2031 54.6372 39.2031 54.3527C39.2031 54.0681 39.447 53.8242 39.7316 53.8242H78.2682C78.5527 53.8242 78.7966 54.0681 78.7966 54.3527C78.7966 54.6372 78.5527 54.8811 78.2682 54.8811Z" fill="white"/>
<path d="M78.2683 55.065H39.7317C39.3252 55.065 39 54.7398 39 54.3333C39 53.9268 39.3252 53.6016 39.7317 53.6016H78.2683C78.6748 53.6016 79 53.9268 79 54.3333C79 54.7398 78.6748 55.065 78.2683 55.065ZM39.7317 54.0081C39.5488 54.0081 39.4065 54.1503 39.4065 54.3333C39.4065 54.5162 39.5488 54.6585 39.7317 54.6585H78.2683C78.4512 54.6585 78.5935 54.5162 78.5935 54.3333C78.5935 54.1503 78.4512 54.0081 78.2683 54.0081H39.7317Z" fill="white"/>
</g>
<defs>
<clipPath id="clip0_1643_7">
<rect width="40" height="37.5" fill="white" transform="translate(39 41)"/>
</clipPath>
</defs>
</svg>
