<svg width="180" height="180" viewBox="0 0 180 180" fill="none" xmlns="http://www.w3.org/2000/svg">
<circle cx="90" cy="90" r="90" fill="#89A6B9"/>
<g clip-path="url(#clip0_821_382)">
<path d="M90.5006 91.1111C81.62 91.1111 74.3034 87.1891 73.1444 82.1016C73.0467 82.8558 72.9629 83.6374 72.9629 84.4191C72.9629 93.9222 80.8102 101.629 90.4867 101.629C100.163 101.629 108.01 93.9222 108.01 84.4191C108.01 83.6237 107.941 82.8558 107.829 82.1016C106.67 87.1891 99.3533 91.1111 90.4727 91.1111H90.5006Z" stroke="white" stroke-width="2" stroke-linejoin="round"/>
<path d="M67.1543 84.9818C67.1543 84.9818 74.0242 84.2138 76.1466 77.3984" stroke="white" stroke-width="2" stroke-linejoin="round"/>
<path d="M113.832 84.9818C113.832 84.9818 106.962 84.2001 104.84 77.3984" stroke="white" stroke-width="2" stroke-linejoin="round"/>
</g>
<defs>
<clipPath id="clip0_821_382">
<rect width="47" height="26" fill="white" transform="translate(67 77)"/>
</clipPath>
</defs>
</svg>
