<svg width="180" height="180" viewBox="0 0 180 180" fill="none" xmlns="http://www.w3.org/2000/svg">
<circle cx="90" cy="90" r="90" fill="#E2EFF8"/>
<g clip-path="url(#clip0_821_530)">
<path d="M97.5793 109.581C94.0693 109.581 92.9193 105.821 92.8093 103.831L91.8393 96.2208C91.7693 95.1008 90.1793 94.7708 89.8193 94.7108H89.4293C89.0693 94.7708 87.4793 95.0908 87.4193 96.1408L86.4293 103.911C86.3193 105.811 85.1693 109.571 81.6693 109.571C80.3393 109.571 77.7293 108.511 77.3993 104.501L76.5693 93.6808C76.4693 93.3408 76.0793 92.2008 75.3693 91.2308L75.3093 91.1408C75.1693 90.9108 71.8893 85.4508 72.1893 79.9708C72.1893 79.8808 72.1893 75.9308 74.8293 73.2808C76.3693 71.7508 78.4793 70.9708 81.0193 71.0008C81.1293 71.0008 83.8793 71.0208 86.3093 72.8508C86.5393 72.9708 87.5893 73.4708 89.1293 73.5608H89.6393H89.9793C91.6593 73.4308 92.9093 72.7008 92.9193 72.6908L94.2093 74.8308C94.1393 74.8708 92.6593 75.7608 90.5793 76.0108V76.0908L89.7593 76.0708L88.6593 76.1308V76.0208C86.4693 75.8208 85.0593 75.0008 84.9993 74.9608L84.8793 74.8808C83.1193 73.5208 81.0393 73.4908 81.0193 73.4908C79.0993 73.4708 77.6593 74.0008 76.5993 75.0508C74.7093 76.9408 74.6893 80.0008 74.6893 80.0308C74.4393 84.5908 77.1393 89.3208 77.4193 89.8008C78.5193 91.3208 78.9893 93.0608 79.0093 93.1308L79.0493 93.3608L79.8893 104.301C80.0993 106.861 81.4293 107.061 81.6993 107.071C83.6893 107.071 83.9393 103.711 83.9493 103.681L84.9393 95.9008C85.0793 93.6008 87.3093 92.4708 89.1793 92.2208H89.3493H90.0893C91.9593 92.4708 94.1893 93.6008 94.3393 95.9808L95.3093 103.591C95.3093 103.711 95.5593 107.071 97.5893 107.071C97.8193 107.061 99.1493 106.861 99.3593 104.291L100.239 93.1208C100.239 93.1208 100.509 92.1408 101.069 91.0508L103.289 92.1908C102.949 92.8508 102.759 93.4408 102.689 93.6708L101.859 104.481C101.529 108.501 98.9293 109.561 97.5893 109.561L97.5793 109.581Z" fill="#A6B7C2"/>
<path d="M77.82 94.7617H69V97.2617H77.82V94.7617Z" fill="#A6B7C2"/>
<path d="M110.23 94.7617H101.41V97.2617H110.23V94.7617Z" fill="#A6B7C2"/>
<path d="M104.279 89.9916L101.409 85.8016L98.5391 89.9916L98.6791 84.9216L93.8991 86.6216L96.9891 82.6016L92.1191 81.1716L96.9891 79.7416L93.8991 75.7216L98.6791 77.4216L98.5391 72.3516L101.409 76.5416L104.279 72.3516L104.139 77.4216L108.919 75.7216L105.829 79.7416L110.699 81.1716L105.829 82.6016L108.919 86.6216L104.139 84.9216L104.279 89.9916ZM101.409 83.1516L102.639 84.9416L102.579 82.7716L104.629 83.5016L103.309 81.7816L105.389 81.1716L103.309 80.5616L104.629 78.8416L102.579 79.5716L102.639 77.4016L101.409 79.1916L100.179 77.4016L100.239 79.5716L98.1891 78.8416L99.5091 80.5616L97.4291 81.1716L99.5091 81.7816L98.1891 83.5016L100.239 82.7716L100.179 84.9416L101.409 83.1516Z" fill="#A6B7C2"/>
</g>
<defs>
<clipPath id="clip0_821_530">
<rect width="41.69" height="38.58" fill="white" transform="translate(69 71)"/>
</clipPath>
</defs>
</svg>
