<svg width="180" height="180" viewBox="0 0 180 180" fill="none" xmlns="http://www.w3.org/2000/svg">
<circle cx="90" cy="90" r="90" fill="#E2EFF8"/>
<g clip-path="url(#clip0_821_771)">
<path d="M97.5813 109.581C94.0713 109.581 92.9213 105.821 92.8113 103.831L91.8413 96.2208C91.7713 95.1008 90.1813 94.7708 89.8213 94.7108H89.4313C89.0713 94.7708 87.4813 95.0908 87.4213 96.1408L86.4313 103.911C86.3213 105.811 85.1713 109.571 81.6713 109.571C80.3413 109.571 77.7313 108.511 77.4013 104.501L76.5713 93.6808C76.4713 93.3408 76.0813 92.2008 75.3713 91.2308L75.3113 91.1408C75.1713 90.9108 71.8913 85.4508 72.1913 79.9708C72.1913 79.8808 72.1913 75.9308 74.8313 73.2808C76.3713 71.7508 78.4813 70.9708 81.0213 71.0008C81.1313 71.0008 83.8813 71.0208 86.3113 72.8508C86.5413 72.9708 87.5913 73.4708 89.1313 73.5608H89.6413H89.9813C91.6613 73.4308 92.9113 72.7008 92.9213 72.6908L94.2113 74.8308C94.1413 74.8708 92.6613 75.7608 90.5813 76.0108V76.0908L89.7613 76.0708L88.6613 76.1308V76.0208C86.4713 75.8208 85.0613 75.0008 85.0013 74.9608L84.8813 74.8808C83.1213 73.5208 81.0413 73.4908 81.0213 73.4908C79.1013 73.4708 77.6613 74.0008 76.6013 75.0508C74.7113 76.9408 74.6913 80.0008 74.6913 80.0308C74.4413 84.5908 77.1413 89.3208 77.4213 89.8008C78.5213 91.3208 78.9913 93.0608 79.0113 93.1308L79.0513 93.3608L79.8913 104.301C80.1013 106.861 81.4313 107.061 81.7013 107.071C83.6913 107.071 83.9413 103.711 83.9513 103.681L84.9413 95.9008C85.0813 93.6008 87.3113 92.4708 89.1813 92.2208H89.3513H90.0913C91.9613 92.4708 94.1913 93.6008 94.3413 95.9808L95.3113 103.591C95.3113 103.711 95.5613 107.071 97.5913 107.071C97.8213 107.061 99.1513 106.861 99.3613 104.291L100.241 93.1208C100.241 93.1208 100.511 92.1408 101.071 91.0508L103.291 92.1908C102.951 92.8508 102.761 93.4408 102.691 93.6708L101.861 104.481C101.531 108.501 98.9313 109.561 97.5913 109.561L97.5813 109.581Z" fill="#7593A7"/>
<path d="M77.82 94.7617H69V97.2617H77.82V94.7617Z" fill="#7593A7"/>
<path d="M110.23 94.7617H101.41V97.2617H110.23V94.7617Z" fill="#7593A7"/>
<path d="M104.281 89.9916L101.411 85.8016L98.5411 89.9916L98.6811 84.9216L93.9011 86.6216L96.9911 82.6016L92.1211 81.1716L96.9911 79.7416L93.9011 75.7216L98.6811 77.4216L98.5411 72.3516L101.411 76.5416L104.281 72.3516L104.141 77.4216L108.921 75.7216L105.831 79.7416L110.701 81.1716L105.831 82.6016L108.921 86.6216L104.141 84.9216L104.281 89.9916ZM101.411 83.1516L102.641 84.9416L102.581 82.7716L104.631 83.5016L103.311 81.7816L105.391 81.1716L103.311 80.5616L104.631 78.8416L102.581 79.5716L102.641 77.4016L101.411 79.1916L100.181 77.4016L100.241 79.5716L98.1911 78.8416L99.5111 80.5616L97.4311 81.1716L99.5111 81.7816L98.1911 83.5016L100.241 82.7716L100.181 84.9416L101.411 83.1516Z" fill="#7593A7"/>
</g>
<defs>
<clipPath id="clip0_821_771">
<rect width="41.69" height="38.58" fill="white" transform="translate(69 71)"/>
</clipPath>
</defs>
</svg>
