<svg width="180" height="180" viewBox="0 0 180 180" fill="none" xmlns="http://www.w3.org/2000/svg">
<circle cx="90" cy="90" r="90" fill="#BECCD6"/>
<g clip-path="url(#clip0_821_778)">
<path d="M95.1903 102.782H85.8603C83.8303 102.782 81.6403 101.532 81.5703 98.8017V88.1817C81.5703 84.3917 83.4303 77.1917 90.4803 77.0117C97.5903 77.1917 99.4503 84.3917 99.4503 88.1817V98.7817C99.3803 101.552 97.1903 102.792 95.1803 102.792L95.1903 102.782ZM90.5203 100.282H95.1903C95.7103 100.282 96.9303 100.132 96.9603 98.7417V88.1717C96.9603 87.8217 96.8603 79.6617 90.4903 79.5017C84.1803 79.6617 84.0803 87.8217 84.0803 88.1717V98.7617C84.1103 100.122 85.3303 100.272 85.8503 100.272H90.5203V100.282Z" fill="white"/>
<path d="M79.8417 102.78H71.5617C69.6917 102.78 67.6717 101.57 67.6117 98.9002V88.6902C67.6017 88.5102 67.3417 82.8302 70.2317 79.7902C71.4217 78.5402 72.9417 77.9102 74.7517 77.9102C81.0517 78.0802 83.4017 84.9602 83.7717 88.5702V88.6902V98.8702C83.7117 101.56 81.6917 102.77 79.8417 102.77V102.78ZM75.7017 100.28H79.8317V101.53L79.8417 100.28C80.3617 100.28 81.2417 100.09 81.2717 98.8502V88.7702C81.1817 88.0502 80.1117 80.5602 74.7117 80.4202C73.6317 80.4202 72.7417 80.7802 72.0417 81.5202C70.2517 83.4002 70.0417 87.2902 70.1117 88.6302V98.8802C70.1417 100.09 71.0217 100.28 71.5417 100.28H75.6917H75.7017Z" fill="white"/>
<path d="M109.41 102.778H101.13C99.2597 102.778 97.2397 101.568 97.1797 98.8984V88.5584C97.5497 84.9484 99.8997 78.0784 106.17 77.8984C108.02 77.8984 109.54 78.5284 110.72 79.7784C113.6 82.8184 113.35 88.4984 113.33 88.7384V98.8584C113.27 101.548 111.25 102.758 109.4 102.758L109.41 102.778ZM105.26 100.278H109.39V101.528L109.4 100.278C109.92 100.278 110.8 100.088 110.83 98.8484V88.6884C110.9 87.2784 110.68 83.3784 108.9 81.5084C108.19 80.7684 107.31 80.4084 106.2 80.4084C100.84 80.5584 99.7697 88.0384 99.6797 88.7584V98.8684C99.7097 100.078 100.59 100.268 101.11 100.268H105.26V100.278Z" fill="white"/>
<path d="M71.61 91.0195H65V93.0195H71.61V91.0195Z" fill="white"/>
<path d="M87.6406 91.0195H77.6406V93.0195H87.6406V91.0195Z" fill="white"/>
<path d="M103.479 91.0195H93.6094V93.0195H103.479V91.0195Z" fill="white"/>
<path d="M115.579 91.0195H109.789V93.0195H115.579V91.0195Z" fill="white"/>
<path d="M107.43 89.8906H105.43V94.6006H107.43V89.8906Z" fill="white"/>
<path d="M91.5195 89.8906H89.5195V94.6006H91.5195V89.8906Z" fill="white"/>
<path d="M75.6406 89.8906H73.6406V94.6006H75.6406V89.8906Z" fill="white"/>
</g>
<defs>
<clipPath id="clip0_821_778">
<rect width="50.58" height="25.78" fill="white" transform="translate(65 77)"/>
</clipPath>
</defs>
</svg>
