<svg width="120" height="120" viewBox="0 0 120 120" fill="none" xmlns="http://www.w3.org/2000/svg">
<circle cx="60" cy="60" r="60" fill="#89A6B9"/>
<g clip-path="url(#clip0_1642_3)">
<path d="M60.0997 53.9473C56.7406 53.9473 54.0171 56.6708 54.0171 60.0299C54.0171 63.3889 56.7406 66.1125 60.0997 66.1125C63.4588 66.1125 66.1823 63.3889 66.1823 60.0299C66.1823 56.6708 63.4588 53.9473 60.0997 53.9473ZM60.0997 65.1683C57.2672 65.1683 54.9613 62.8624 54.9613 60.0299C54.9613 57.1974 57.2672 54.8914 60.0997 54.8914C62.9322 54.8914 65.2382 57.1974 65.2382 60.0299C65.2382 62.8624 62.9322 65.1683 60.0997 65.1683Z" fill="white"/>
<path d="M60.0996 66.294C56.6498 66.294 53.8354 63.4797 53.8354 60.0298C53.8354 56.58 56.6498 53.7656 60.0996 53.7656C63.5495 53.7656 66.3638 56.58 66.3638 60.0298C66.3638 63.4797 63.5495 66.294 60.0996 66.294ZM60.0996 54.1288C56.8495 54.1288 54.1986 56.7797 54.1986 60.0298C54.1986 63.2799 56.8495 65.9309 60.0996 65.9309C63.3497 65.9309 66.0007 63.2799 66.0007 60.0298C66.0007 56.7797 63.3497 54.1288 60.0996 54.1288ZM60.0996 65.3498C57.1763 65.3498 54.7796 62.9713 54.7796 60.0298C54.7796 57.0884 57.1582 54.7098 60.0996 54.7098C63.0411 54.7098 65.4197 57.0884 65.4197 60.0298C65.4197 62.9713 63.0411 65.3498 60.0996 65.3498ZM60.0996 55.0729C57.3579 55.0729 55.1428 57.2881 55.1428 60.0298C55.1428 62.7715 57.3579 64.9867 60.0996 64.9867C62.8413 64.9867 65.0565 62.7715 65.0565 60.0298C65.0565 57.2881 62.8413 55.0729 60.0996 55.0729Z" fill="white"/>
<path d="M50.6581 53.3112L45.9917 52.6576C45.7375 52.6213 45.5015 52.8028 45.4651 53.057C45.4288 53.3112 45.6104 53.5473 45.8646 53.5836L51.9109 54.437H51.9654C52.0198 54.437 52.0743 54.437 52.1469 54.4007C52.1833 54.4007 52.2196 54.3643 52.2559 54.328L52.3104 54.2736C52.3104 54.2736 52.3648 54.2009 52.383 54.1283C52.4011 54.0738 52.4193 54.0194 52.4193 53.9467L51.2572 47.8823C51.2391 47.7552 51.1665 47.6644 51.0575 47.5918C50.9486 47.5191 50.8396 47.501 50.7125 47.5191C50.6218 47.5191 50.531 47.5736 50.4765 47.6462C50.3676 47.7552 50.3131 47.9186 50.3494 48.0638L51.2209 52.5668L40.9622 42.3081C40.7806 42.1265 40.4901 42.1265 40.3085 42.3081C40.127 42.4896 40.127 42.7801 40.3085 42.9617L50.6581 53.3112Z" fill="white"/>
<path d="M51.9837 54.6004H51.8929L45.8284 53.747C45.4834 53.6925 45.2292 53.3657 45.2837 53.0207C45.3019 52.8573 45.3926 52.6939 45.5379 52.6031C45.665 52.4941 45.8466 52.4578 46.01 52.476L50.1498 53.057L40.1816 43.0888C40.0545 42.9617 40 42.7983 40 42.6349C40 42.4715 40.0726 42.308 40.1816 42.1809C40.4358 41.9449 40.8352 41.9449 41.0894 42.1809L50.9305 52.0221L50.168 48.1001C50.1316 47.9004 50.1861 47.6825 50.3495 47.5191C50.4403 47.4283 50.5493 47.3739 50.6764 47.3375C50.8398 47.3012 51.0213 47.3375 51.1484 47.4283C51.2937 47.5191 51.3845 47.6644 51.4208 47.8459L52.5828 53.9104C52.5828 54.0375 52.5828 54.1101 52.5465 54.1828C52.5102 54.2735 52.4739 54.328 52.4376 54.3825L52.365 54.4551C52.365 54.4551 52.256 54.5277 52.2197 54.5459C52.1289 54.5822 52.0563 54.6004 51.9837 54.6004ZM45.9192 52.821C45.9192 52.821 45.7921 52.8391 45.7558 52.8754C45.7013 52.9299 45.6468 52.9844 45.6468 53.057C45.6287 53.2204 45.7376 53.3475 45.8829 53.3838L51.9655 54.2372C51.9655 54.2372 52.02 54.2372 52.0744 54.2009C52.0744 54.2009 52.1108 54.1828 52.1289 54.1646L52.1834 54.1101C52.1834 54.1101 52.1834 54.092 52.2197 54.0193C52.2197 54.0012 52.2197 53.9649 52.2197 53.9104L51.0576 47.8823C51.0576 47.8823 51.0032 47.737 50.9305 47.7007C50.8579 47.6644 50.8034 47.6462 50.7127 47.6644C50.6582 47.6644 50.6037 47.7007 50.5674 47.737C50.4948 47.8096 50.4766 47.9004 50.4948 47.9912L51.3663 52.4941C51.3663 52.4941 51.3482 52.6576 51.2755 52.6939C51.2029 52.7302 51.1121 52.712 51.0576 52.6576L40.8352 42.4351C40.7263 42.3262 40.5447 42.3262 40.4358 42.4351C40.3813 42.4896 40.345 42.5622 40.345 42.6349C40.345 42.7075 40.3813 42.7801 40.4358 42.8346L50.7853 53.1841C50.7853 53.1841 50.8579 53.3294 50.8216 53.3838C50.7853 53.4565 50.7127 53.4928 50.64 53.4746L45.9737 52.821H45.9374H45.9192Z" fill="white"/>
<path d="M52.3285 65.3861V65.3498L52.2559 65.3316C52.2196 65.3134 52.1833 65.2771 52.1288 65.259C52.0743 65.259 52.038 65.2227 51.9472 65.2227L45.8464 66.076C45.5922 66.1124 45.4107 66.3484 45.447 66.6026C45.4833 66.8568 45.7193 67.0384 45.9735 67.002L50.6399 66.3484L40.3085 76.6616C40.127 76.8432 40.127 77.1337 40.3085 77.3153C40.3993 77.406 40.5083 77.4605 40.6354 77.4605C40.7625 77.4605 40.8714 77.406 40.9622 77.3334L51.2209 67.0747L50.3494 71.5776C50.3131 71.7229 50.3494 71.8863 50.4765 71.9952C50.5491 72.0679 50.6218 72.1042 50.7125 72.1223C50.8396 72.1405 50.9486 72.1223 51.0575 72.0497C51.1665 71.9771 51.2209 71.8681 51.2572 71.7592L52.4193 65.7674V65.6766C52.4193 65.6766 52.4193 65.5676 52.383 65.495C52.383 65.4587 52.3467 65.4224 52.3285 65.3861Z" fill="white"/>
<path d="M40.6353 77.642C40.4719 77.642 40.3085 77.5694 40.1814 77.4604C39.9272 77.2062 39.9272 76.8068 40.1814 76.5526L50.1496 66.5844L46.0098 67.1654C45.6648 67.2017 45.338 66.9657 45.2835 66.6207C45.229 66.2757 45.4832 65.9489 45.8282 65.8944L51.929 65.041C52.0561 65.041 52.1287 65.041 52.1832 65.0773C52.2558 65.1136 52.3103 65.15 52.3648 65.1863C52.3648 65.1863 52.4374 65.2407 52.4374 65.2589V65.2952C52.4374 65.2952 52.51 65.3678 52.5282 65.4223C52.5645 65.5313 52.5826 65.6039 52.5826 65.6765V65.7855L51.4024 71.7954C51.3661 71.9589 51.2753 72.1041 51.1301 72.2131C50.9848 72.3038 50.8214 72.3402 50.658 72.3038C50.5309 72.2857 50.422 72.2131 50.3312 72.1223C50.1859 71.977 50.1133 71.7591 50.1496 71.5412L50.9122 67.6012L41.0892 77.4423C40.9621 77.5694 40.7987 77.6239 40.6353 77.6239V77.642ZM50.658 66.1486C50.658 66.1486 50.7851 66.1849 50.8214 66.2394C50.8577 66.312 50.8396 66.3846 50.7851 66.4391L40.4356 76.7886C40.3266 76.8976 40.3266 77.0791 40.4356 77.1881C40.5445 77.297 40.7261 77.297 40.835 77.1881L51.0938 66.9293C51.0938 66.9293 51.239 66.8567 51.3116 66.893C51.3843 66.9294 51.4206 67.002 51.4024 67.0928L50.5309 71.5957C50.5309 71.6865 50.5309 71.7773 50.6035 71.8499C50.6398 71.8862 50.6943 71.9225 50.7488 71.9225C50.8214 71.9225 50.894 71.9225 50.9667 71.8862C51.0211 71.8499 51.0756 71.7773 51.0938 71.7047L52.2558 65.6402C52.2558 65.6402 52.2558 65.6039 52.2195 65.5313C52.2195 65.5313 52.2013 65.4949 52.1832 65.4768C52.1832 65.4768 52.1832 65.4768 52.1832 65.4586C52.1287 65.4223 52.1106 65.4042 52.0742 65.386C52.0742 65.386 52.0379 65.386 51.9653 65.386L45.9008 66.2394C45.7374 66.2575 45.6285 66.4028 45.6648 66.5662C45.683 66.7296 45.8464 66.8204 45.9916 66.8023L50.658 66.1486C50.658 66.1486 50.658 66.1486 50.6762 66.1486H50.658Z" fill="white"/>
<path d="M67.6714 54.2554V54.3099L67.7441 54.328C67.7804 54.3462 67.8167 54.3825 67.8712 54.4007C67.9256 54.4007 67.962 54.437 68.0527 54.437L74.1535 53.5836C74.4077 53.5473 74.5893 53.3112 74.553 53.057C74.5167 52.8028 74.2806 52.6394 74.0264 52.6576L69.36 53.3112L79.6733 42.9617C79.8548 42.7801 79.8548 42.4896 79.6733 42.3081C79.4917 42.1265 79.2012 42.1265 79.0196 42.3081L68.7609 52.5668L69.6324 48.0638C69.6687 47.9186 69.6142 47.7552 69.5053 47.6462C69.4327 47.5736 69.36 47.5373 69.2693 47.5191C69.0151 47.4647 68.779 47.6281 68.7246 47.8823L67.5625 53.8741V53.9649C67.5625 53.9649 67.5625 54.0557 67.5988 54.1465C67.5988 54.1828 67.6351 54.2191 67.6533 54.2372L67.6714 54.2554Z" fill="white"/>
<path d="M68.0707 54.6003C67.9436 54.6003 67.8892 54.6003 67.8165 54.564C67.7439 54.5277 67.6894 54.4914 67.635 54.4732H67.6168C67.6168 54.4732 67.5442 54.4187 67.526 54.3824V54.3461C67.526 54.3461 67.4716 54.2735 67.4534 54.2372C67.4171 54.1282 67.3989 54.0556 67.3989 53.983V53.874L68.5791 47.864C68.6518 47.5191 68.9786 47.283 69.3236 47.3556C69.4507 47.3738 69.5596 47.4464 69.6504 47.5372C69.7957 47.6825 69.8683 47.9004 69.832 48.1182L69.0694 52.0583L78.8923 42.1809C79.1465 41.9267 79.546 41.9267 79.8002 42.1809C79.9273 42.308 79.9818 42.4714 79.9818 42.6348C79.9818 42.7982 79.9091 42.9616 79.8002 43.0887L69.832 53.057L73.9718 52.4759C74.3349 52.4215 74.6436 52.6757 74.6981 53.0206C74.7525 53.3656 74.4983 53.6925 74.1533 53.7469L68.0526 54.6003H68.0707ZM67.8347 54.1645C67.8347 54.1645 67.9073 54.219 67.9436 54.2372C67.9436 54.2372 67.98 54.2372 68.0526 54.2372L74.117 53.3838C74.2805 53.3656 74.3894 53.2204 74.3531 53.057C74.3349 52.8935 74.1897 52.7846 74.0263 52.8209L69.3599 53.4746C69.3599 53.4746 69.2146 53.4383 69.1783 53.3838C69.142 53.3112 69.1602 53.2385 69.2146 53.1841L79.546 42.8345C79.546 42.8345 79.6368 42.7074 79.6368 42.6348C79.6368 42.5622 79.6005 42.4896 79.546 42.4351C79.4371 42.3261 79.2555 42.3261 79.1465 42.4351L68.8878 52.6938C68.8878 52.6938 68.7425 52.7664 68.6699 52.7301C68.5973 52.6938 68.561 52.6212 68.5791 52.5304L69.4507 48.0275C69.4688 47.9367 69.4507 47.8459 69.378 47.7733C69.3417 47.7369 69.2873 47.7006 69.2328 47.7006C69.0875 47.6643 68.9241 47.7733 68.906 47.9185L67.7439 53.983C67.7439 53.983 67.7439 54.0193 67.7802 54.0919C67.7802 54.0919 67.7802 54.1282 67.8165 54.1464C67.8165 54.1464 67.8165 54.1464 67.8165 54.1827L67.8347 54.1645Z" fill="white"/>
<path d="M69.3415 66.3308L74.0079 66.9845C74.135 66.9845 74.2439 66.9845 74.3529 66.8937C74.4436 66.8211 74.5163 66.7121 74.5344 66.585C74.5707 66.3308 74.3892 66.0948 74.135 66.0585L68.0887 65.2051H68.0342H68.016C67.9616 65.2051 67.9071 65.2051 67.8526 65.2414C67.8163 65.2414 67.78 65.2777 67.7437 65.2959L67.6892 65.3322V65.3866C67.6892 65.3866 67.6166 65.4593 67.5984 65.5137C67.5984 65.5682 67.5621 65.6227 67.5803 65.6953L68.7423 71.7598C68.7968 72.014 69.0328 72.1774 69.287 72.1229C69.3778 72.1229 69.4686 72.0684 69.5231 71.9958C69.632 71.8869 69.6865 71.7235 69.6502 71.5782L68.7786 67.0753L79.0374 77.334C79.0374 77.334 79.2371 77.4793 79.3642 77.4793C79.4913 77.4793 79.6003 77.4248 79.691 77.3521C79.8726 77.1706 79.8726 76.8801 79.691 76.6985L69.3415 66.349V66.3308Z" fill="white"/>
<path d="M79.3463 77.642C79.1829 77.642 79.0194 77.5694 78.8923 77.4604L69.0512 67.6193L69.8138 71.5594C69.8501 71.7773 69.7957 71.977 69.6322 72.1404C69.5415 72.2312 69.4325 72.2857 69.3054 72.322C68.9604 72.3765 68.6154 72.1586 68.561 71.8136L67.3989 65.7491C67.3989 65.622 67.3989 65.5494 67.4352 65.4768C67.4716 65.386 67.5079 65.3497 67.526 65.2952C67.526 65.2952 67.5805 65.2226 67.5987 65.2044L67.6531 65.1681C67.6531 65.1681 67.7076 65.1318 67.7621 65.0955C67.8529 65.0592 67.9255 65.041 67.9981 65.041H68.0889L74.1534 65.8944C74.4983 65.9489 74.7525 66.2757 74.6981 66.6207C74.6799 66.7841 74.5891 66.9475 74.4439 67.0383C74.2986 67.1472 74.1352 67.1835 73.9718 67.1654L69.832 66.5844L79.8002 76.5526C80.0544 76.8068 80.0544 77.2062 79.8002 77.4604C79.6731 77.5875 79.5097 77.642 79.3463 77.642ZM68.7607 66.893C68.7607 66.893 68.8515 66.9112 68.8878 66.9475L79.1465 77.2062C79.2555 77.3152 79.4371 77.3152 79.546 77.2062C79.6549 77.0973 79.6549 76.9157 79.546 76.8068L69.1965 66.4573C69.1965 66.4573 69.1238 66.312 69.1602 66.2575C69.1965 66.1849 69.2691 66.1486 69.3417 66.1668L74.0081 66.8204C74.0081 66.8204 74.1534 66.8204 74.226 66.7659C74.2805 66.7296 74.3168 66.657 74.3349 66.5844C74.3349 66.5117 74.3349 66.4391 74.2804 66.3665C74.226 66.312 74.1715 66.2575 74.0989 66.2575L68.0163 65.4042C68.0163 65.4042 67.9618 65.4042 67.9073 65.4405C67.9073 65.4405 67.871 65.4586 67.8529 65.4768H67.8165C67.8165 65.4768 67.7621 65.5676 67.7439 65.6039C67.7439 65.6039 67.7439 65.6584 67.7439 65.7128L68.906 71.741C68.9423 71.8862 69.0875 71.9952 69.2328 71.9589C69.2873 71.9589 69.3417 71.9225 69.378 71.8862C69.4507 71.8136 69.4688 71.7228 69.4507 71.632L68.5791 67.1291C68.5791 67.1291 68.5973 66.9657 68.6699 66.9293C68.6881 66.9293 68.7244 66.9112 68.7607 66.9112V66.893Z" fill="white"/>
</g>
<defs>
<clipPath id="clip0_1642_3">
<rect width="40" height="35.6423" fill="white" transform="translate(40 42)"/>
</clipPath>
</defs>
</svg>
