<svg width="57" height="40" viewBox="0 0 57 40" fill="none" xmlns="http://www.w3.org/2000/svg">
<g clip-path="url(#clip0_821_2718)">
<path fill-rule="evenodd" clip-rule="evenodd" d="M12.2503 20.8906C12.7769 20.8906 13.2038 21.3175 13.2038 21.8441V26.5657C13.2038 26.6535 13.2321 26.8319 13.3337 27.1179C13.4313 27.3927 13.578 27.716 13.767 28.0767C14.1451 28.7981 14.659 29.6056 15.187 30.3732C15.6849 31.0972 16.1844 31.7698 16.5731 32.2781C16.9861 31.7674 17.521 31.0865 18.0542 30.3529C18.6122 29.5852 19.155 28.778 19.5541 28.0574C19.7537 27.697 19.9081 27.3749 20.0105 27.102C20.1175 26.817 20.1451 26.6446 20.1451 26.5657V21.867C20.1451 21.3404 20.572 20.9135 21.0986 20.9135C21.6251 20.9135 22.052 21.3404 22.052 21.867V26.5657C22.052 26.9749 21.9375 27.3946 21.7959 27.7721C21.6497 28.1616 21.4489 28.5722 21.2223 28.9813C20.769 29.7996 20.1753 30.6781 19.5967 31.4741C19.0155 32.2737 18.4362 33.0085 18.0032 33.5422C17.7863 33.8095 17.6054 34.0274 17.4781 34.1791C17.4145 34.2549 17.3643 34.3142 17.3297 34.3549L17.2897 34.4017L17.2791 34.4142L17.2753 34.4185C17.2752 34.4186 17.2749 34.419 16.5524 33.7968C15.8133 34.3992 15.8133 34.3991 15.8132 34.399L15.8093 34.3943L15.7992 34.3818L15.7614 34.335C15.7286 34.2943 15.6811 34.2349 15.6209 34.1591C15.5004 34.0074 15.3291 33.7895 15.1239 33.5222C14.7141 32.9883 14.1658 32.2535 13.6158 31.4538C13.0682 30.6577 12.5066 29.7795 12.0781 28.962C11.8638 28.5532 11.6744 28.1438 11.5367 27.7561C11.403 27.3798 11.2969 26.9661 11.2969 26.5657V21.8441C11.2969 21.3175 11.7238 20.8906 12.2503 20.8906ZM16.5524 33.7968L15.8132 34.399C15.9914 34.6176 16.2574 34.7464 16.5395 34.7502C16.8215 34.754 17.0912 34.6323 17.2753 34.4185L16.5524 33.7968Z" fill="#8D7F74"/>
<path fill-rule="evenodd" clip-rule="evenodd" d="M33.6063 1.90694C32.6302 1.90694 31.8366 2.7005 31.8366 3.67658V16.6285C31.8366 17.6046 32.6302 18.3982 33.6063 18.3982H35.3149C35.8415 18.3982 36.2684 18.8251 36.2684 19.3516C36.2684 19.8782 35.8415 20.3051 35.3149 20.3051H33.6063C31.577 20.3051 29.9297 18.6578 29.9297 16.6285V3.67658C29.9297 1.64733 31.577 0 33.6063 0H52.7672C54.7965 0 56.4438 1.64733 56.4438 3.67658V16.6285C56.4438 18.6595 54.7871 20.3051 52.7672 20.3051H40.7687C40.2422 20.3051 39.8153 19.8782 39.8153 19.3516C39.8153 18.8251 40.2422 18.3982 40.7687 18.3982H52.7672C53.7374 18.3982 54.5369 17.6029 54.5369 16.6285V3.67658C54.5369 2.7005 53.7433 1.90694 52.7672 1.90694H33.6063Z" fill="#8D7F74"/>
<path fill-rule="evenodd" clip-rule="evenodd" d="M41.4139 18.657C41.7977 19.0176 41.8165 19.621 41.4559 20.0048L36.0097 25.8019C35.7419 26.0869 35.3273 26.1795 34.9637 26.0355C34.6001 25.8915 34.3613 25.5401 34.3613 25.149V19.3519C34.3613 18.8253 34.7882 18.3984 35.3148 18.3984C35.8414 18.3984 36.2683 18.8253 36.2683 19.3519V22.7416L40.0661 18.6991C40.4267 18.3153 41.0301 18.2964 41.4139 18.657Z" fill="#8D7F74"/>
<path fill-rule="evenodd" clip-rule="evenodd" d="M36.5664 7.24644C36.5664 6.71985 36.9933 6.29297 37.5199 6.29297H50.1743C50.7009 6.29297 51.1278 6.71985 51.1278 7.24644C51.1278 7.77303 50.7009 8.19991 50.1743 8.19991H37.5199C36.9933 8.19991 36.5664 7.77303 36.5664 7.24644Z" fill="#8D7F74"/>
<path fill-rule="evenodd" clip-rule="evenodd" d="M36.5664 12.4808C36.5664 11.9542 36.9933 11.5273 37.5199 11.5273H50.1743C50.7009 11.5273 51.1278 11.9542 51.1278 12.4808C51.1278 13.0074 50.7009 13.4343 50.1743 13.4343H37.5199C36.9933 13.4343 36.5664 13.0074 36.5664 12.4808Z" fill="#8D7F74"/>
<path fill-rule="evenodd" clip-rule="evenodd" d="M16.4524 2.87569C12.2732 2.87569 8.89327 6.26213 8.89327 10.4348V14.5233C8.89327 18.696 12.2732 22.0824 16.4524 22.0824C20.6245 22.0824 24.0115 18.6954 24.0115 14.5233V10.4348C24.0115 6.26213 20.6316 2.87569 16.4524 2.87569ZM6.98633 10.4348C6.98633 5.21007 11.2189 0.96875 16.4524 0.96875C21.6859 0.96875 25.9184 5.21007 25.9184 10.4348V14.5233C25.9184 19.7486 21.6777 23.9893 16.4524 23.9893C11.2189 23.9893 6.98633 19.748 6.98633 14.5233V10.4348Z" fill="#8D7F74"/>
<path fill-rule="evenodd" clip-rule="evenodd" d="M17.0198 6.49578C16.8351 6.24641 16.5403 6.10208 16.23 6.10966C15.9194 6.11725 15.6319 6.2757 15.4597 6.53429C14.2371 8.36987 12.3771 9.42287 10.7575 10.018C9.95413 10.3132 9.22985 10.4882 8.7086 10.5889C8.44861 10.6392 8.24089 10.6706 8.10126 10.6892C8.03149 10.6985 7.97888 10.7046 7.9454 10.7082C7.92867 10.71 7.91674 10.7111 7.90985 10.7118L7.90356 10.7124C7.37962 10.7574 6.99045 11.2183 7.03468 11.7425C7.07895 12.2673 7.54021 12.6568 8.06493 12.6125L7.98477 11.6624C8.06493 12.6125 8.06456 12.6125 8.06493 12.6125L8.06856 12.6122L8.07421 12.6117L8.0915 12.6101C8.10565 12.6087 8.12502 12.6068 8.14935 12.6042C8.19801 12.5989 8.26657 12.591 8.35298 12.5794C8.5257 12.5564 8.77034 12.5192 9.07039 12.4612C9.66923 12.3455 10.4958 12.1458 11.4153 11.8079C12.9585 11.2409 14.8216 10.2627 16.2858 8.58615C16.7412 9.09022 17.3816 9.74261 18.1684 10.397C19.7954 11.7502 22.1767 13.2185 24.9184 13.2185C25.445 13.2185 25.8719 12.7916 25.8719 12.265C25.8719 11.7384 25.445 11.3115 24.9184 11.3115C22.8394 11.3115 20.8881 10.1787 19.3878 8.93085C18.6506 8.31773 18.0531 7.70243 17.6403 7.24042C17.4345 7.01003 17.276 6.81939 17.1705 6.6884C17.1178 6.62294 17.0785 6.57252 17.0531 6.53961C17.0405 6.52317 17.0313 6.51111 17.0258 6.50376L17.0198 6.49578Z" fill="#8D7F74"/>
<path fill-rule="evenodd" clip-rule="evenodd" d="M20.2754 27.2621C20.2754 26.7355 20.7023 26.3086 21.2289 26.3086H21.8696C28.62 26.3086 34.1045 31.7846 34.1045 38.5435C34.1045 39.0701 33.6776 39.497 33.1511 39.497C32.6245 39.497 32.1976 39.0701 32.1976 38.5435C32.1976 32.8387 27.5677 28.2155 21.8696 28.2155H21.2289C20.7023 28.2155 20.2754 27.7887 20.2754 27.2621Z" fill="#8D7F74"/>
<path fill-rule="evenodd" clip-rule="evenodd" d="M12.2349 28.2077C6.53006 28.2077 1.90694 32.8376 1.90694 38.5357C1.90694 39.0623 1.48006 39.4892 0.953471 39.4892C0.426883 39.4892 0 39.0623 0 38.5357C0 31.7853 5.47604 26.3008 12.2349 26.3008C12.7615 26.3008 13.1884 26.7277 13.1884 27.2543C13.1884 27.7808 12.7615 28.2077 12.2349 28.2077Z" fill="#8D7F74"/>
<path d="M24.9732 32.2656H22.334V40.0002H24.9732V32.2656Z" fill="#8D7F74"/>
<path d="M27.5217 34.8125H19.7871V37.4517H27.5217V34.8125Z" fill="#8D7F74"/>
</g>
<defs>
<clipPath id="clip0_821_2718">
<rect width="56.4455" height="40" fill="white"/>
</clipPath>
</defs>
</svg>
