<svg width="58" height="62" viewBox="0 0 58 62" fill="none" xmlns="http://www.w3.org/2000/svg">
<g clip-path="url(#clip0_821_3012)">
<path d="M35.5 39.25H45.5" stroke="black" stroke-width="2" stroke-linecap="round" stroke-linejoin="round"/>
<path d="M40.5 44.25V34.25" stroke="black" stroke-width="2" stroke-linecap="round" stroke-linejoin="round"/>
<path d="M31 60.9983H52C54.76 60.9983 57 58.7583 57 55.9983V29.0383C57 24.1383 54.46 19.6083 50.32 17.0483C50.02 16.8683 49.84 16.5483 49.84 16.1983V10.9883" stroke="black" stroke-width="2" stroke-linecap="round" stroke-linejoin="round"/>
<path d="M33.37 11V16.24C33.37 16.59 33.18 16.91 32.87 17.1C31.81 17.73 30.85 18.5 30 19.36" stroke="black" stroke-width="2" stroke-linecap="round" stroke-linejoin="round"/>
<path d="M51.5 1H31.5V11H51.5V1Z" stroke="black" stroke-width="2" stroke-linecap="round" stroke-linejoin="round"/>
<path d="M28 28.1992H57" stroke="black" stroke-width="2" stroke-linecap="round" stroke-linejoin="round"/>
<path d="M36.1719 50H56.8319" stroke="black" stroke-width="2" stroke-linecap="round" stroke-linejoin="round"/>
<path d="M8.37 23.9983V29.2383C8.37 29.5883 8.18 29.9083 7.87 30.0983C3.62 32.6383 1 34.2283 1 39.1983V55.9983C1 58.7583 3.24 60.9983 6 60.9983H30C32.76 60.9983 35 58.7583 35 55.9983V39.0383C35 34.1383 32.46 32.6083 28.32 30.0483C28.02 29.8683 27.84 29.5483 27.84 29.1983V23.9883" stroke="black" stroke-width="2" stroke-linecap="round" stroke-linejoin="round"/>
<path d="M29.5 14H6.5V24H29.5V14Z" stroke="black" stroke-width="2" stroke-linecap="round" stroke-linejoin="round"/>
<path d="M2 38.1992H34" stroke="black" stroke-width="2" stroke-linecap="round" stroke-linejoin="round"/>
<path d="M1.17188 53H34.8319" stroke="black" stroke-width="2" stroke-linecap="round" stroke-linejoin="round"/>
</g>
<defs>
<clipPath id="clip0_821_3012">
<rect width="58" height="62" fill="white"/>
</clipPath>
</defs>
</svg>
