<svg width="180" height="180" viewBox="0 0 180 180" fill="none" xmlns="http://www.w3.org/2000/svg">
<circle cx="90" cy="90" r="90" fill="#BECCD6"/>
<g clip-path="url(#clip0_821_398)">
<path d="M75.5788 111C71.5775 111 70.2666 106.81 70.1412 104.593L69.0355 96.1132C68.9557 94.8652 67.1432 94.4975 66.7328 94.4307H66.2996C65.8778 94.4975 64.0767 94.8541 64.0083 96.0241L62.8798 104.682C62.7544 106.799 61.4434 110.989 57.4536 110.989C55.9375 110.989 52.9622 109.808 52.586 105.339L51.6399 93.283C51.5259 92.9041 51.0813 91.6338 50.2719 90.553L50.2035 90.4527C50.044 90.1964 46.3049 84.1125 46.6583 78.0062C46.6583 77.9059 46.6583 73.538 49.645 70.5851C51.3891 68.8691 53.726 68 56.61 68H56.7354C56.8608 68 59.9957 68.0334 62.7658 70.0726C63.0279 70.2063 64.2249 70.7634 65.9804 70.8637H66.5618H66.9494C68.8645 70.7188 70.2894 69.9054 70.3008 69.8943C72.9341 68.0223 76.1715 68 76.3083 68H76.4223C79.3064 68 81.6547 68.8691 83.3874 70.5851C86.3741 73.538 86.3741 77.9171 86.3741 78.0954C86.716 84.1013 82.9884 90.1964 82.8288 90.4527L82.7604 90.553C81.9511 91.6338 81.5065 92.9041 81.3925 93.2941L80.4463 105.339C80.0701 109.819 77.0949 111 75.5788 111ZM52.586 88.9596C53.84 90.6533 54.3757 92.5921 54.3985 92.6701L54.4441 92.9264L55.4017 105.128C55.6411 107.98 57.1572 108.203 57.465 108.214C59.7449 108.214 60.0185 104.47 60.0299 104.426L61.1584 95.7678C61.318 93.205 63.8715 91.9458 65.9918 91.6673H66.1856H67.0292C69.1609 91.9458 71.7029 93.205 71.8739 95.857L72.9797 104.337C72.9797 104.47 73.2647 108.192 75.556 108.214C75.8865 108.192 77.3685 107.936 77.5965 105.117L78.5996 92.6701C78.6224 92.5921 79.1582 90.6533 80.4121 88.9596C80.7313 88.4247 83.8092 83.143 83.5242 78.1622C83.5242 78.0396 83.5014 74.6411 81.3469 72.5351C80.1613 71.3763 78.5084 70.7857 76.4109 70.7857H76.2969C76.2969 70.7857 73.8232 70.8191 71.8283 72.2231C71.6687 72.3234 69.9588 73.3151 67.5877 73.5937V73.6828L66.653 73.6605L65.399 73.7274V73.6048C62.9025 73.382 61.2952 72.4683 61.2268 72.4237L61.09 72.3345C59.0837 70.8191 56.7126 70.7857 56.6898 70.7857C54.4897 70.7857 52.8368 71.3763 51.6513 72.5351C49.4968 74.6522 49.474 78.0508 49.474 78.0731C49.189 83.1319 52.2668 88.4247 52.586 88.9596Z" fill="white"/>
<path d="M53.0543 94.4766H43V97.2623H53.0543V94.4766Z" fill="white"/>
<path d="M89.9996 94.4766H79.9453V97.2623H89.9996V94.4766Z" fill="white"/>
</g>
<g clip-path="url(#clip1_821_398)">
<path d="M122.579 111C118.578 111 117.267 106.81 117.141 104.593L116.035 96.1132C115.956 94.8652 114.143 94.4975 113.733 94.4307H113.3C112.878 94.4975 111.077 94.8541 111.008 96.0241L109.88 104.682C109.754 106.799 108.443 110.989 104.454 110.989C102.937 110.989 99.9622 109.808 99.586 105.339L98.6399 93.283C98.5259 92.9041 98.0813 91.6338 97.2719 90.553L97.2035 90.4527C97.044 90.1964 93.3049 84.1125 93.6583 78.0062C93.6583 77.9059 93.6583 73.538 96.645 70.5851C98.3891 68.8691 100.726 68 103.61 68H103.735C103.861 68 106.996 68.0334 109.766 70.0726C110.028 70.2063 111.225 70.7634 112.98 70.8637H113.562H113.949C115.864 70.7188 117.289 69.9054 117.301 69.8943C119.934 68.0223 123.172 68 123.308 68H123.422C126.306 68 128.655 68.8691 130.387 70.5851C133.374 73.538 133.374 77.9171 133.374 78.0954C133.716 84.1013 129.988 90.1964 129.829 90.4527L129.76 90.553C128.951 91.6338 128.506 92.9041 128.392 93.2941L127.446 105.339C127.07 109.819 124.095 111 122.579 111ZM99.586 88.9596C100.84 90.6533 101.376 92.5921 101.399 92.6701L101.444 92.9264L102.402 105.128C102.641 107.98 104.157 108.203 104.465 108.214C106.745 108.214 107.018 104.47 107.03 104.426L108.158 95.7678C108.318 93.205 110.872 91.9458 112.992 91.6673H113.186H114.029C116.161 91.9458 118.703 93.205 118.874 95.857L119.98 104.337C119.98 104.47 120.265 108.192 122.556 108.214C122.887 108.192 124.368 107.936 124.596 105.117L125.6 92.6701C125.622 92.5921 126.158 90.6533 127.412 88.9596C127.731 88.4247 130.809 83.143 130.524 78.1622C130.524 78.0396 130.501 74.6411 128.347 72.5351C127.161 71.3763 125.508 70.7857 123.411 70.7857H123.297C123.297 70.7857 120.823 70.8191 118.828 72.2231C118.669 72.3234 116.959 73.3151 114.588 73.5937V73.6828L113.653 73.6605L112.399 73.7274V73.6048C109.903 73.382 108.295 72.4683 108.227 72.4237L108.09 72.3345C106.084 70.8191 103.713 70.7857 103.69 70.7857C101.49 70.7857 99.8368 71.3763 98.6513 72.5351C96.4968 74.6522 96.474 78.0508 96.474 78.0731C96.189 83.1319 99.2668 88.4247 99.586 88.9596Z" fill="white"/>
<path d="M104 69.5L98.5 72L96 73.5L95 81.5L99.5 93L101.5 106.5L105 110L107.5 106.5L110 96.5L111 94L114.5 93L116.5 94.5L119 106L122.5 110.5L125 107.5L127 100.5V92L131 83V74.5L125 69.5L120.5 70.5L111.5 72L104 69.5Z" fill="white"/>
<path d="M100.054 94.4766H90V97.2623H100.054V94.4766Z" fill="white"/>
<path d="M137 94.4766H126.945V97.2623H137V94.4766Z" fill="white"/>
</g>
<defs>
<clipPath id="clip0_821_398">
<rect width="47" height="43" fill="white" transform="translate(43 68)"/>
</clipPath>
<clipPath id="clip1_821_398">
<rect width="47" height="43" fill="white" transform="translate(90 68)"/>
</clipPath>
</defs>
</svg>
