<svg width="31" height="40" viewBox="0 0 31 40" fill="none" xmlns="http://www.w3.org/2000/svg">
<g clip-path="url(#clip0_821_2708)">
<path fill-rule="evenodd" clip-rule="evenodd" d="M11.9316 20.0782C11.9316 19.5539 12.3567 19.1289 12.8809 19.1289H23.6575C24.1818 19.1289 24.6068 19.5539 24.6068 20.0782C24.6068 20.6025 24.1818 21.0275 23.6575 21.0275H12.8809C12.3567 21.0275 11.9316 20.6025 11.9316 20.0782Z" fill="#8D7F74"/>
<path fill-rule="evenodd" clip-rule="evenodd" d="M10.7102 16.4589C11.1623 16.7243 11.3137 17.306 11.0483 17.7582L8.43579 22.2085C8.27766 22.4779 7.99715 22.6522 7.68561 22.6748C7.37407 22.6973 7.07139 22.5651 6.87614 22.3213L5.44079 20.5291C5.11305 20.1198 5.17912 19.5224 5.58835 19.1947C5.99758 18.8669 6.59501 18.933 6.92274 19.3422L7.49635 20.0585L9.41094 16.797C9.67636 16.3449 10.2581 16.1935 10.7102 16.4589Z" fill="#8D7F74"/>
<path fill-rule="evenodd" clip-rule="evenodd" d="M11.9316 28.0509C11.9316 27.5266 12.3567 27.1016 12.8809 27.1016H23.6575C24.1818 27.1016 24.6068 27.5266 24.6068 28.0509C24.6068 28.5752 24.1818 29.0002 23.6575 29.0002H12.8809C12.3567 29.0002 11.9316 28.5752 11.9316 28.0509Z" fill="#8D7F74"/>
<path fill-rule="evenodd" clip-rule="evenodd" d="M10.7102 24.4316C11.1623 24.697 11.3137 25.2787 11.0483 25.7308L8.43579 30.1812C8.27766 30.4505 7.99715 30.6249 7.68561 30.6474C7.37407 30.67 7.07139 30.5378 6.87614 30.294L5.44079 28.5017C5.11305 28.0925 5.17912 27.4951 5.58835 27.1673C5.99758 26.8396 6.59501 26.9057 6.92274 27.3149L7.49635 28.0311L9.41094 24.7697C9.67636 24.3175 10.2581 24.1661 10.7102 24.4316Z" fill="#8D7F74"/>
<path fill-rule="evenodd" clip-rule="evenodd" d="M0 7.91415C0 7.38986 0.425019 6.96484 0.949307 6.96484H29.8082C30.3325 6.96484 30.7575 7.38986 30.7575 7.91415V39.0514C30.7575 39.5757 30.3325 40.0007 29.8082 40.0007H0.949307C0.425019 40.0007 0 39.5757 0 39.0514V7.91415ZM1.89861 8.86346V38.1021H28.8589V8.86346H1.89861Z" fill="#8D7F74"/>
<path d="M18.0219 5.14895C18.2042 4.76923 18.3181 4.34394 18.3181 3.88827C18.3181 2.26306 17.0042 0.949219 15.379 0.949219C13.7538 0.949219 12.44 2.26306 12.44 3.88827C12.44 4.34394 12.5539 4.76923 12.7362 5.14895H8.24023V10.1917H22.5254V5.14895H18.0295H18.0219Z" fill="white"/>
<path fill-rule="evenodd" clip-rule="evenodd" d="M11.4907 3.88836C11.4907 1.73886 13.2296 0 15.3791 0C17.5286 0 19.2675 1.73886 19.2675 3.88836C19.2675 3.9937 19.263 4.09753 19.2543 4.19973H22.5255C23.0498 4.19973 23.4748 4.62475 23.4748 5.14904V10.1918C23.4748 10.716 23.0498 11.1411 22.5255 11.1411H8.24032C7.71603 11.1411 7.29102 10.716 7.29102 10.1918V5.14904C7.29102 4.62475 7.71603 4.19973 8.24032 4.19973H11.5039C11.4953 4.09753 11.4907 3.9937 11.4907 3.88836ZM15.3791 1.89861C14.2782 1.89861 13.3894 2.78744 13.3894 3.88836C13.3894 4.18318 13.4627 4.46878 13.5921 4.73825C13.7333 5.0324 13.7135 5.37845 13.5397 5.65462C13.3659 5.93078 13.0625 6.09835 12.7362 6.09835H9.18963V9.24245H21.5762V6.09835H18.022C17.6957 6.09835 17.3923 5.93078 17.2185 5.65462C17.0447 5.37845 17.025 5.0324 17.1662 4.73825C17.2955 4.46878 17.3689 4.18318 17.3689 3.88836C17.3689 2.78744 16.48 1.89861 15.3791 1.89861Z" fill="#8D7F74"/>
</g>
<defs>
<clipPath id="clip0_821_2708">
<rect width="30.7575" height="40" fill="white"/>
</clipPath>
</defs>
</svg>
