<svg width="120" height="120" viewBox="0 0 120 120" fill="none" xmlns="http://www.w3.org/2000/svg">
<circle cx="60" cy="60" r="60" fill="#FAEFD8"/>
<g clip-path="url(#clip0_1643_9)">
<path d="M68.1335 79.128H45.6808C45.416 79.128 45.189 78.901 45.189 78.6362V50.7926C45.189 50.5278 45.416 50.3008 45.6808 50.3008H61.8724C62.0049 50.3008 62.1183 50.3575 62.2129 50.4332L68.474 56.4672C68.5685 56.5618 68.6253 56.6942 68.6253 56.8266V78.6362C68.6253 78.901 68.3983 79.128 68.1335 79.128ZM46.1726 78.1444H67.6417V57.0347L61.6833 51.2844H46.1726V78.1255V78.1444Z" fill="white"/>
<path d="M68.1337 79.3169H45.681C45.3026 79.3169 45 79.0142 45 78.6359V50.7923C45 50.414 45.3026 50.1113 45.681 50.1113H61.8726C62.0429 50.1113 62.2131 50.187 62.3455 50.3005L68.6066 56.3345C68.739 56.4669 68.8146 56.6372 68.8146 56.8263V78.6359C68.8146 79.0142 68.512 79.3169 68.1337 79.3169ZM45.681 50.4707C45.5107 50.4707 45.3783 50.6031 45.3783 50.7734V78.617C45.3783 78.7872 45.5107 78.9197 45.681 78.9197H68.1337C68.3039 78.9197 68.4363 78.7872 68.4363 78.617V56.8263C68.4363 56.8263 68.3985 56.6561 68.3417 56.5993L62.0807 50.5653C62.0807 50.5653 61.9483 50.4707 61.8726 50.4707H45.681ZM67.6419 78.3144H46.1728C46.0782 78.3144 45.9836 78.2387 45.9836 78.1252V51.2841C45.9836 51.1895 46.0593 51.0949 46.1728 51.0949H61.6646C61.6646 51.0949 61.7591 51.1139 61.797 51.1517L67.7554 56.902C67.7554 56.902 67.8121 56.9777 67.8121 57.0344V78.1252C67.8121 78.2198 67.7364 78.3144 67.623 78.3144H67.6419ZM46.3619 77.936H67.4527V57.1101L61.6078 51.4732H46.3619V77.955V77.936Z" fill="white"/>
<path d="M74.3189 72.0158H68.1524C67.8876 72.0158 67.6606 71.7889 67.6606 71.524C67.6606 71.2592 67.8876 71.0322 68.1524 71.0322H73.8271V49.7145C73.8271 49.4496 74.0541 49.2227 74.3189 49.2227C74.5837 49.2227 74.8107 49.4496 74.8107 49.7145V71.524C74.8107 71.7889 74.5837 72.0158 74.3189 72.0158Z" fill="white"/>
<path d="M74.3191 72.2047H68.1526C67.7743 72.2047 67.4717 71.9021 67.4717 71.5237C67.4717 71.1454 67.7743 70.8428 68.1526 70.8428H73.6381V49.7142C73.6381 49.3359 73.9408 49.0332 74.3191 49.0332C74.6974 49.0332 75.0001 49.3359 75.0001 49.7142V71.5237C75.0001 71.9021 74.6974 72.2047 74.3191 72.2047ZM68.1526 71.2211C67.9824 71.2211 67.85 71.3535 67.85 71.5237C67.85 71.694 67.9824 71.8264 68.1526 71.8264H74.3191C74.4893 71.8264 74.6217 71.694 74.6217 71.5237V49.7142C74.6217 49.5439 74.4893 49.4115 74.3191 49.4115C74.1489 49.4115 74.0164 49.5439 74.0164 49.7142V71.0319C74.0164 71.1265 73.9408 71.2211 73.8273 71.2211H68.1526Z" fill="white"/>
<path d="M51.8663 51.2853C51.6015 51.2853 51.3745 51.0583 51.3745 50.7935V43.6813C51.3745 43.4164 51.6015 43.1895 51.8663 43.1895H68.512C68.7768 43.1895 69.0038 43.4164 69.0038 43.6813C69.0038 43.9461 68.7768 44.1731 68.512 44.1731H52.3581V50.7935C52.3581 51.0583 52.1311 51.2853 51.8663 51.2853Z" fill="white"/>
<path d="M51.8475 51.4741C51.4692 51.4741 51.1665 51.1715 51.1665 50.7932V43.681C51.1665 43.3026 51.4881 43 51.8475 43H68.4931C68.8714 43 69.1741 43.3026 69.1741 43.681C69.1741 44.0593 68.8714 44.3619 68.4931 44.3619H52.5473V50.7932C52.5473 51.1715 52.2447 51.4741 51.8664 51.4741H51.8475ZM51.8475 43.3783C51.6772 43.3783 51.5448 43.5107 51.5448 43.681V50.7932C51.5448 50.9634 51.6772 51.0958 51.8475 51.0958C52.0177 51.0958 52.1501 50.9634 52.1501 50.7932V44.1728C52.1501 44.0782 52.2258 43.9836 52.3393 43.9836H68.4931C68.6634 43.9836 68.7958 43.8512 68.7958 43.681C68.7958 43.5107 68.6634 43.3783 68.4931 43.3783H51.8475Z" fill="white"/>
<path d="M67.6797 57.3184H61.8727C61.6078 57.3184 61.3809 57.0914 61.3809 56.8266V50.7926C61.3809 50.5278 61.6078 50.3008 61.8727 50.3008C62.1375 50.3008 62.3645 50.5278 62.3645 50.7926V56.3348H67.6797C67.9445 56.3348 68.1715 56.5618 68.1715 56.8266C68.1715 57.0914 67.9445 57.3184 67.6797 57.3184Z" fill="white"/>
<path d="M67.6799 57.5073H61.8729C61.4945 57.5073 61.1919 57.2046 61.1919 56.8263V50.7923C61.1919 50.414 61.4945 50.1113 61.8729 50.1113C62.2512 50.1113 62.5538 50.414 62.5538 50.7923V56.1454H67.6799C68.0582 56.1454 68.3609 56.448 68.3609 56.8263C68.3609 57.2046 68.0582 57.5073 67.6799 57.5073ZM61.8729 50.4896C61.7026 50.4896 61.5702 50.622 61.5702 50.7923V56.8263C61.5702 56.9966 61.7026 57.129 61.8729 57.129H67.6799C67.8502 57.129 67.9826 56.9966 67.9826 56.8263C67.9826 56.6561 67.8502 56.5237 67.6799 56.5237H62.3647C62.2701 56.5237 62.1755 56.448 62.1755 56.3345V50.7923C62.1755 50.622 62.0431 50.4896 61.8729 50.4896Z" fill="white"/>
<path d="M74.3189 50.2071H68.5118C68.247 50.2071 68.02 49.9801 68.02 49.7153V43.6813C68.02 43.4732 68.1524 43.3029 68.3227 43.2273C68.5118 43.1516 68.7199 43.1895 68.8712 43.3408L74.6783 49.3748C74.8107 49.5261 74.8485 49.7342 74.7729 49.9045C74.6972 50.0936 74.508 50.2071 74.3189 50.2071ZM69.0036 49.2235H73.1461L69.0036 44.9108V49.2235Z" fill="white"/>
<path d="M74.3191 50.3964H68.512C68.1337 50.3964 67.8311 50.0938 67.8311 49.7155V43.6814C67.8311 43.3977 68.0013 43.1518 68.2661 43.0572C68.5309 42.9437 68.8147 43.0194 69.0038 43.2086L74.8109 49.2426C75 49.4318 75.0568 49.7344 74.9433 49.9803C74.8298 50.2262 74.5839 50.3964 74.3191 50.3964ZM68.4931 43.3788C68.4931 43.3788 68.4174 43.3788 68.3796 43.3977C68.2661 43.4355 68.1905 43.549 68.1905 43.6814V49.7155C68.1905 49.8857 68.3229 50.0181 68.4931 50.0181H74.3002C74.4326 50.0181 74.5271 49.9425 74.5839 49.829C74.6406 49.7155 74.6028 49.5831 74.5271 49.4885L68.7201 43.4734C68.7201 43.4734 68.5877 43.3788 68.4931 43.3788ZM73.1463 49.4128H69.0038C68.9092 49.4128 68.8147 49.3372 68.8147 49.2237V44.911C68.8147 44.911 68.8525 44.7596 68.9282 44.7407C69.0038 44.7029 69.0795 44.7407 69.1362 44.7785L73.2787 49.0913C73.2787 49.0913 73.3544 49.2237 73.3166 49.2993C73.2787 49.375 73.222 49.4128 73.1463 49.4128ZM69.1741 49.0345H72.6923L69.1741 45.3649V49.0345Z" fill="white"/>
</g>
<defs>
<clipPath id="clip0_1643_9">
<rect width="30" height="36.3178" fill="white" transform="translate(45 43)"/>
</clipPath>
</defs>
</svg>
