<svg width="175" height="165" viewBox="0 0 175 165" fill="none" xmlns="http://www.w3.org/2000/svg">
<path d="M175 45.6382C175 42.2646 165.952 45.8272 164.894 46.5688C156.194 52.6035 145.536 56.9659 134.197 59.9905V1.34507C134.197 -0.850677 128.818 0.254469 127.933 0.458049C109.75 4.42785 95.9463 18.0822 87.7683 34.3104C80.4893 18.8238 67.9758 5.22763 51.3734 0.312635C48.7344 -0.487142 41.1944 0.47259 41.1944 4.32606V59.2926C30.1889 56.0353 19.7344 51.3966 10.9185 45.0565C8.38097 43.2388 0 44.8529 0 48.6773C0 83.1841 1.29049 121.413 28.6084 146.381C49.0389 165.096 86.4923 171.639 110.649 156.967C138.591 139.997 134.197 102.888 134.197 74.7937V66.2143C144.637 63.4805 154.628 59.627 163.647 54.4503C163.212 85.0163 158.992 115.204 139.316 140.114C136.532 143.676 147.769 142.397 149.712 139.881C171.361 112.529 174.971 79.2579 175 45.6236V45.6382ZM52.4898 61.1539V9.79363C67.4103 18.5621 77.4443 35.212 81.5623 51.5129C82.4467 54.9447 92.1763 51.9055 92.8433 49.1863C96.8743 33.1907 108.242 15.7847 122.916 9.96813V62.5644C110.49 64.891 97.7587 65.8216 86.2168 65.7199C75.5158 65.6326 63.9013 64.542 52.5044 62.1572C52.5044 61.8228 52.5044 61.5028 52.5044 61.1684L52.4898 61.1539ZM122.916 101.041C122.916 117.036 121.437 133.221 111.403 146.279C93.1187 170.069 52.6203 156.08 35.3509 138.514C14.1519 116.891 11.6435 85.0745 11.3535 55.948C20.6044 60.8194 30.7544 64.3384 41.2089 66.8105C41.2669 91.1964 42.5139 116.455 63.4228 132.756C66.2793 134.951 76.5163 130.531 73.9788 128.553C54.9694 113.721 52.7653 91.2836 52.5188 69.0644C64.4523 71.0275 76.4873 71.8127 87.7827 71.8127C99.0782 71.8127 111.287 70.8675 122.902 68.7299V101.041H122.916Z" fill="#1F1E6A"/>
</svg>
