<svg width="180" height="180" viewBox="0 0 180 180" fill="none" xmlns="http://www.w3.org/2000/svg">
<circle cx="90" cy="90" r="90" fill="#4C6677"/>
<g clip-path="url(#clip0_821_414)">
<path d="M99.5788 111C95.5775 111 94.2666 106.81 94.1412 104.593L93.0355 96.1132C92.9557 94.8652 91.1432 94.4975 90.7328 94.4307H90.2996C89.8778 94.4975 88.0767 94.8541 88.0083 96.0241L86.8798 104.682C86.7544 106.799 85.4434 110.989 81.4536 110.989C79.9375 110.989 76.9622 109.808 76.586 105.339L75.6399 93.283C75.5259 92.9041 75.0813 91.6338 74.2719 90.553L74.2035 90.4527C74.044 90.1964 70.3049 84.1125 70.6583 78.0062C70.6583 77.9059 70.6583 73.538 73.645 70.5851C75.3891 68.8691 77.726 68 80.61 68H80.7354C80.8608 68 83.9957 68.0334 86.7658 70.0726C87.0279 70.2063 88.2249 70.7634 89.9804 70.8637H90.5618H90.9494C92.8645 70.7188 94.2894 69.9054 94.3008 69.8943C96.9341 68.0223 100.172 68 100.308 68H100.422C103.306 68 105.655 68.8691 107.387 70.5851C110.374 73.538 110.374 77.9171 110.374 78.0954C110.716 84.1013 106.988 90.1964 106.829 90.4527L106.76 90.553C105.951 91.6338 105.506 92.9041 105.392 93.2941L104.446 105.339C104.07 109.819 101.095 111 99.5788 111ZM76.586 88.9596C77.84 90.6533 78.3757 92.5921 78.3985 92.6701L78.4441 92.9264L79.4017 105.128C79.6411 107.98 81.1572 108.203 81.465 108.214C83.7449 108.214 84.0185 104.47 84.0299 104.426L85.1584 95.7678C85.318 93.205 87.8715 91.9458 89.9918 91.6673H90.1856H91.0292C93.1609 91.9458 95.7029 93.205 95.8739 95.857L96.9797 104.337C96.9797 104.47 97.2647 108.192 99.556 108.214C99.8865 108.192 101.368 107.936 101.596 105.117L102.6 92.6701C102.622 92.5921 103.158 90.6533 104.412 88.9596C104.731 88.4247 107.809 83.143 107.524 78.1622C107.524 78.0396 107.501 74.6411 105.347 72.5351C104.161 71.3763 102.508 70.7857 100.411 70.7857H100.297C100.297 70.7857 97.8232 70.8191 95.8283 72.2231C95.6687 72.3234 93.9588 73.3151 91.5877 73.5937V73.6828L90.653 73.6605L89.399 73.7274V73.6048C86.9025 73.382 85.2952 72.4683 85.2268 72.4237L85.09 72.3345C83.0837 70.8191 80.7126 70.7857 80.6898 70.7857C78.4897 70.7857 76.8368 71.3763 75.6513 72.5351C73.4968 74.6522 73.474 78.0508 73.474 78.0731C73.189 83.1319 76.2668 88.4247 76.586 88.9596Z" fill="white"/>
<path d="M81 69.5L75.5 72L73 73.5L72 81.5L76.5 93L78.5 106.5L82 110L84.5 106.5L87 96.5L88 94L91.5 93L93.5 94.5L96 106L99.5 110.5L102 107.5L104 100.5V92L108 83V74.5L102 69.5L97.5 70.5L88.5 72L81 69.5Z" fill="white"/>
<path d="M77.0543 94.4766H67V97.2623H77.0543V94.4766Z" fill="white"/>
<path d="M114 94.4766H103.945V97.2623H114V94.4766Z" fill="white"/>
</g>
<defs>
<clipPath id="clip0_821_414">
<rect width="47" height="43" fill="white" transform="translate(67 68)"/>
</clipPath>
</defs>
</svg>
