<svg width="38" height="40" viewBox="0 0 38 40" fill="none" xmlns="http://www.w3.org/2000/svg">
<g id="image" clip-path="url(#clip0_821_2733)">
<path id="Vector (Stroke)" fill-rule="evenodd" clip-rule="evenodd" d="M7.14648 18.5626C7.14648 18.0383 7.5715 17.6133 8.09579 17.6133H23.6568C24.1811 17.6133 24.6061 18.0383 24.6061 18.5626C24.6061 19.0869 24.1811 19.5119 23.6568 19.5119H8.09579C7.5715 19.5119 7.14648 19.0869 7.14648 18.5626Z" fill="#8D7F74"/>
<path id="Vector (Stroke)_2" fill-rule="evenodd" clip-rule="evenodd" d="M7.14648 30.711C7.14648 30.1867 7.5715 29.7617 8.09579 29.7617H23.6568C24.1811 29.7617 24.6061 30.1867 24.6061 30.711C24.6061 31.2353 24.1811 31.6603 23.6568 31.6603H8.09579C7.5715 31.6603 7.14648 31.2353 7.14648 30.711Z" fill="#8D7F74"/>
<path id="Vector (Stroke)_3" fill-rule="evenodd" clip-rule="evenodd" d="M7.14648 24.6368C7.14648 24.1125 7.5715 23.6875 8.09579 23.6875H23.6568C24.1811 23.6875 24.6061 24.1125 24.6061 24.6368C24.6061 25.1611 24.1811 25.5861 23.6568 25.5861H8.09579C7.5715 25.5861 7.14648 25.1611 7.14648 24.6368Z" fill="#8D7F74"/>
<path id="Vector (Stroke)_4" fill-rule="evenodd" clip-rule="evenodd" d="M0 7.91415C0 7.38986 0.425019 6.96484 0.949307 6.96484H29.8082C30.3325 6.96484 30.7575 7.38986 30.7575 7.91415V39.0514C30.7575 39.5757 30.3325 40.0007 29.8082 40.0007H0.949307C0.425019 40.0007 0 39.5757 0 39.0514V7.91415ZM1.89861 8.86346V38.1021H28.8589V8.86346H1.89861Z" fill="#8D7F74"/>
<path id="Vector" d="M18.0297 5.14895C18.212 4.76923 18.3259 4.34394 18.3259 3.88827C18.3259 2.26306 17.012 0.949219 15.3868 0.949219C13.7616 0.949219 12.4478 2.26306 12.4478 3.88827C12.4478 4.34394 12.5617 4.76923 12.744 5.14895H8.24805V10.1917H22.5332V5.14895H18.0373H18.0297Z" fill="white"/>
<path id="Vector (Stroke)_5" fill-rule="evenodd" clip-rule="evenodd" d="M11.4986 3.88836C11.4986 1.73886 13.2374 0 15.3869 0C17.5364 0 19.2753 1.73886 19.2753 3.88836C19.2753 3.9937 19.2708 4.09753 19.2621 4.19973H22.5333C23.0576 4.19973 23.4826 4.62475 23.4826 5.14904V10.1918C23.4826 10.716 23.0576 11.1411 22.5333 11.1411H8.24814C7.72385 11.1411 7.29883 10.716 7.29883 10.1918V5.14904C7.29883 4.62475 7.72385 4.19973 8.24814 4.19973H11.5117C11.5031 4.09753 11.4986 3.9937 11.4986 3.88836ZM15.3869 1.89861C14.286 1.89861 13.3972 2.78744 13.3972 3.88836C13.3972 4.18318 13.4705 4.46878 13.5999 4.73825C13.7411 5.0324 13.7213 5.37845 13.5475 5.65462C13.3738 5.93078 13.0703 6.09835 12.7441 6.09835H9.19744V9.24245H21.584V6.09835H18.0298C17.7035 6.09835 17.4001 5.93078 17.2263 5.65462C17.0525 5.37845 17.0328 5.0324 17.174 4.73825C17.3033 4.46878 17.3767 4.18318 17.3767 3.88836C17.3767 2.78744 16.4879 1.89861 15.3869 1.89861Z" fill="#8D7F74"/>
<path id="Vector_2" d="M36.4831 31.9281C36.4831 35.862 33.2934 39.0593 29.3519 39.0593C25.4104 39.0593 22.2207 35.8696 22.2207 31.9281C22.2207 27.9865 25.4104 24.7969 29.3519 24.7969C33.2934 24.7969 36.4831 27.9865 36.4831 31.9281Z" fill="white"/>
<path id="Vector (Stroke)_6" fill-rule="evenodd" clip-rule="evenodd" d="M29.352 25.7463C25.9348 25.7463 23.1701 28.5109 23.1701 31.9282C23.1701 35.3454 25.9348 38.11 29.352 38.11C32.7686 38.11 35.5339 35.3385 35.5339 31.9282C35.5339 28.5109 32.7692 25.7463 29.352 25.7463ZM21.2715 31.9282C21.2715 27.4623 24.8862 23.8477 29.352 23.8477C33.8178 23.8477 37.4325 27.4623 37.4325 31.9282C37.4325 36.3857 33.8185 40.0087 29.352 40.0087C24.8862 40.0087 21.2715 36.394 21.2715 31.9282Z" fill="#8D7F74"/>
<path id="Vector (Stroke)_7" fill-rule="evenodd" clip-rule="evenodd" d="M31.2161 28.9902C31.6682 29.2556 31.8196 29.8373 31.5541 30.2894L28.9416 34.7398C28.7835 35.0091 28.503 35.1835 28.1915 35.206C27.8799 35.2286 27.5772 35.0964 27.382 34.8526L25.9466 33.0603C25.6189 32.6511 25.685 32.0536 26.0942 31.7259C26.5034 31.3982 27.1009 31.4643 27.4286 31.8735L28.0022 32.5897L29.9168 29.3282C30.1822 28.8761 30.7639 28.7247 31.2161 28.9902Z" fill="#8D7F74"/>
</g>
<defs>
<clipPath id="clip0_821_2733">
<rect width="37.4331" height="40" fill="white"/>
</clipPath>
</defs>
</svg>
