<svg width="120" height="120" viewBox="0 0 120 120" fill="none" xmlns="http://www.w3.org/2000/svg">
<circle cx="60" cy="60" r="60" fill="#4C6677"/>
<g clip-path="url(#clip0_1642_4)">
<path d="M77.17 54.6793C76.8472 54.6793 76.5705 54.9559 76.5705 55.2787V69.5739L60.5 80.2491L44.4295 69.5739V43.6582L45.3979 43.2893C55.1278 39.4849 65.8492 39.4849 75.6021 43.2893L76.2016 43.5198L60.6845 63.4408L55.5198 58.645C55.2661 58.4144 54.8972 58.4375 54.6667 58.6681C54.4361 58.9217 54.4592 59.2906 54.6897 59.5212L60.3386 64.755C60.3386 64.755 60.5922 64.9164 60.7536 64.9164C60.7536 64.9164 60.7767 64.9164 60.7997 64.9164C60.9611 64.9164 61.1225 64.8242 61.2378 64.6859L77.6542 43.6351C77.6542 43.6351 77.6772 43.589 77.7003 43.566C77.7003 43.5429 77.7464 43.5198 77.7464 43.4968C77.7464 43.4968 77.7464 43.4968 77.7464 43.4737C77.7464 43.4276 77.7464 43.3815 77.7464 43.3584C77.7464 43.3123 77.7464 43.2893 77.7464 43.2432C77.7464 43.1971 77.7464 43.174 77.7233 43.1279C77.7233 43.0818 77.7233 43.0587 77.6772 43.0126C77.6772 42.9895 77.6311 42.9434 77.608 42.9204C77.585 42.8973 77.5619 42.8512 77.5158 42.8281C77.5158 42.8281 77.5158 42.8281 77.5158 42.8051C77.4928 42.8051 77.4697 42.782 77.4467 42.759C77.4236 42.759 77.4005 42.7129 77.3775 42.7129L76.0171 42.1826C66.0105 38.2399 54.9895 38.2399 44.9598 42.1595L43.5995 42.6898C43.3689 42.782 43.2075 43.0126 43.2075 43.2432V69.8736C43.2075 70.0811 43.2997 70.2656 43.4842 70.3808L60.1542 81.448C60.1542 81.448 60.3617 81.5403 60.5 81.5403C60.6384 81.5403 60.7306 81.5172 60.8228 81.448L77.4928 70.3808C77.6542 70.2656 77.7694 70.0811 77.7694 69.8736V55.2557C77.7694 54.9329 77.4928 54.6562 77.17 54.6562V54.6793Z" fill="white"/>
<path d="M60.5 81.793C60.3386 81.793 60.1772 81.7469 60.0389 81.6547L43.3689 70.5875C43.1383 70.4261 43 70.1725 43 69.8958V43.2654C43 42.9195 43.2075 42.6198 43.5303 42.4815L44.8906 41.9512C54.9433 38.0085 66.0336 38.0085 76.1094 41.9512L77.4697 42.4815C77.4697 42.4815 77.5619 42.5276 77.5619 42.5506C77.585 42.5506 77.6311 42.5737 77.6772 42.6198C77.6772 42.6198 77.7233 42.6659 77.7464 42.689C77.7694 42.689 77.7925 42.7581 77.8386 42.7812C77.8847 42.8273 77.9078 42.8734 77.9308 42.9195C77.9308 42.9656 77.9539 43.0118 77.9769 43.0348C78 43.127 78.0231 43.1732 78.0231 43.2193C78.0231 43.2654 78.0231 43.3115 78.0231 43.3576C78.0231 43.4268 78.0231 43.4729 78 43.5421C77.9769 43.6343 77.9539 43.6573 77.9308 43.6804C77.9308 43.6804 77.8847 43.7726 77.8617 43.7957L61.4453 64.8925C61.307 65.077 61.0995 65.1923 60.8458 65.2153H60.7767C60.5692 65.2153 60.3617 65.1461 60.2233 64.9848L54.5744 59.7509C54.2286 59.4281 54.2286 58.9209 54.5283 58.575C54.8511 58.2292 55.3584 58.2292 55.7042 58.5289L60.6845 63.1402L75.8327 43.6343L75.5099 43.519C65.8261 39.7147 55.1739 39.7147 45.4901 43.496L44.6601 43.8187V69.4347L60.5 79.9485L76.3399 69.4347V55.2779C76.3399 54.8168 76.7088 54.4479 77.17 54.4479C77.6311 54.4479 78 54.8168 78 55.2779V69.8958C78 70.1725 77.8617 70.4261 77.6311 70.5875L60.9611 81.6547C60.8228 81.7469 60.6614 81.793 60.5 81.793ZM60.5 39.461C55.2661 39.461 50.0323 40.4294 45.052 42.3662L43.6917 42.8965C43.5534 42.9426 43.4611 43.0809 43.4611 43.2423V69.8728C43.4611 70.0111 43.5303 70.1264 43.6225 70.1956L60.2925 81.2627C60.4078 81.355 60.5922 81.355 60.7075 81.2627L77.3775 70.1956C77.3775 70.1956 77.5389 70.0111 77.5389 69.8728V55.2548C77.5389 55.0473 77.3775 54.8859 77.17 54.8859C76.9624 54.8859 76.8011 55.0473 76.8011 55.2548V69.55C76.8011 69.55 76.7549 69.6883 76.7088 69.7344L60.6383 80.4096C60.6383 80.4096 60.4539 80.4558 60.3847 80.4096L44.3142 69.7575C44.3142 69.7575 44.222 69.6422 44.222 69.573V43.6573C44.222 43.6573 44.2681 43.4729 44.3603 43.4498L45.3287 43.0809C55.1047 39.2535 65.8953 39.2535 75.6713 43.0809L76.2708 43.3115C76.2708 43.3115 76.386 43.4037 76.4091 43.4729C76.4091 43.5421 76.4091 43.6112 76.363 43.6804L60.8458 63.6014C60.8458 63.6014 60.7536 63.6936 60.6845 63.6936C60.6153 63.6936 60.5692 63.6936 60.5231 63.6244L55.3584 58.8286C55.197 58.6903 54.9664 58.6903 54.8281 58.8286C54.6897 58.99 54.6897 59.2206 54.8281 59.3589L60.4769 64.5928C60.4769 64.5928 60.6383 64.685 60.7306 64.685C60.8689 64.685 60.9611 64.6158 61.0303 64.5467L77.4697 43.496C77.4697 43.496 77.4697 43.4729 77.4697 43.4498C77.4697 43.4498 77.4697 43.4268 77.4928 43.4037C77.4928 43.4037 77.4928 43.3576 77.4928 43.3346V43.2654V43.1962V43.127L77.4466 43.0809C77.4466 43.0579 77.4005 43.0348 77.4005 43.0118H77.3544C77.3544 43.0118 77.3083 42.9887 77.3083 42.9656L75.971 42.4353C70.9677 40.4294 65.7339 39.461 60.5 39.461Z" fill="white"/>
</g>
<defs>
<clipPath id="clip0_1642_4">
<rect width="35" height="42.7931" fill="white" transform="translate(43 39)"/>
</clipPath>
</defs>
</svg>
