<svg width="153" height="42" viewBox="0 0 153 42" fill="none" xmlns="http://www.w3.org/2000/svg">
<path d="M3.33594 41H0.40625L5.97266 1.44922H9.37109L17.5742 28.2266C17.7695 28.9297 18.082 30.082 18.5117 31.6836C18.9414 33.2852 19.2539 34.4375 19.4492 35.1406C19.6055 34.6328 19.8398 33.793 20.1523 32.6211C20.6992 30.5898 21.1289 29.1055 21.4414 28.168L30.1719 1.44922H33.5117L38.3164 41H35.0352L32.1641 16.5078C32.0859 15.4922 31.9297 13.9102 31.6953 11.7617C31.4609 9.61328 31.2852 8.03125 31.168 7.01562C30.8555 8.03125 30.3672 9.63281 29.7031 11.8203C29.0781 13.9688 28.5898 15.5508 28.2383 16.5664L20.5625 39.4766L17.8086 39.5938L10.6602 16.4492C10.2695 15.2773 9.72266 13.4023 9.01953 10.8242C8.51172 8.98828 8.12109 7.64062 7.84766 6.78125C7.69141 8.07031 7.41797 10.1406 7.02734 12.9922C6.83203 14.5938 6.67578 15.7852 6.55859 16.5664L3.33594 41ZM43.2617 1.44922H46.4258V41H43.2617V1.44922ZM81.3711 41L78.5586 41.4102L58.2266 7.19141V41H55.1797V1.44922L58.1094 1.03906L78.3242 34.6719V1.44922H81.3711V41ZM90.125 1.44922H93.2891V41H90.125V1.44922ZM120.793 30.8633C120.793 33.4414 120.109 35.6289 118.742 37.4258C116.672 40.1211 113.625 41.4688 109.602 41.4688C106.008 41.4688 102.609 40.3359 99.4062 38.0703L100.871 35.668C103.918 37.6602 106.887 38.6758 109.777 38.7148C111.145 38.7148 112.395 38.4609 113.527 37.9531C116.184 36.6641 117.512 34.3398 117.512 30.9805C117.512 29.7305 117.258 28.5977 116.75 27.582C115.891 25.9023 113.957 24.3203 110.949 22.8359C107.746 21.2344 105.871 20.2578 105.324 19.9062C101.965 17.7578 100.285 14.8281 100.285 11.1172C100.285 8.46094 101.184 6.19531 102.98 4.32031C105.168 2.09375 107.98 0.980469 111.418 0.980469C112.238 0.980469 113.039 1.05859 113.82 1.21484C117.258 1.87891 119.602 3.69531 120.852 6.66406L118.273 8.01172C118.156 7.77734 118.02 7.52344 117.863 7.25C116.34 4.90625 114.113 3.73438 111.184 3.73438C109.816 3.73438 108.527 4.04688 107.316 4.67188C104.777 6 103.508 8.12891 103.508 11.0586C103.508 12.1523 103.723 13.1484 104.152 14.0469C104.934 15.6484 106.809 17.1719 109.777 18.6172C113.098 20.2969 115.031 21.3125 115.578 21.6641C119.055 23.8906 120.793 26.957 120.793 30.8633ZM149.352 41V21.7227H129.957V41H126.852V1.44922H129.957V19.1445H149.352V1.44922H152.516V41H149.352Z" fill="white"/>
</svg>
