<svg width="186" height="70" viewBox="0 0 186 70" fill="none" xmlns="http://www.w3.org/2000/svg">
<path d="M86.5977 14.1167V13.4294L87.9445 13.1043L87.9631 9.20314L87.9445 6.27729L86.5977 5.99864V5.19055L88.9848 4.87474L89.3006 5.10695L89.5142 6.07295L89.4956 9.20314L89.5142 13.1043L90.7682 13.4294V14.1167H86.5977ZM89.4678 7.40119L89.1706 6.78816C89.443 6.18751 89.9074 5.68593 90.5638 5.28343C91.2264 4.88094 91.9292 4.67969 92.6723 4.67969C93.6135 4.67969 94.3194 4.9088 94.79 5.36703C95.2606 5.81907 95.496 6.43829 95.496 7.22471C95.496 7.68294 95.4867 8.13807 95.4681 8.59011C95.4557 9.04214 95.4495 9.26816 95.4495 9.26816L95.496 13.1043L96.8428 13.4294V14.1167H92.4865V13.4294L93.9169 13.1043L93.9355 9.2403V7.58696C93.9355 7.09158 93.7652 6.69527 93.4246 6.39804C93.0903 6.09462 92.6661 5.94291 92.1521 5.94291C91.5948 5.94291 91.0778 6.07605 90.601 6.34231C90.1304 6.60239 89.7526 6.95535 89.4678 7.40119ZM95.4216 7.40119L95.1244 6.78816C95.3969 6.18751 95.8613 5.68593 96.5177 5.28343C97.1803 4.88094 97.8862 4.67969 98.6354 4.67969C99.5705 4.67969 100.273 4.9088 100.744 5.36703C101.215 5.81907 101.45 6.43829 101.45 7.22471C101.45 7.68294 101.441 8.13807 101.422 8.59011C101.41 9.04214 101.403 9.26816 101.403 9.26816L101.45 13.1043L102.797 13.4294V14.1167H98.4404V13.4294L99.8708 13.1043L99.8894 9.25887V7.58696C99.8894 7.09158 99.7284 6.69527 99.4064 6.39804C99.0906 6.09462 98.6571 5.94291 98.106 5.94291C97.5425 5.94291 97.0254 6.07295 96.5548 6.33302C96.0842 6.5931 95.7065 6.94916 95.4216 7.40119Z" fill="#FAEFD8" fill-opacity="0.6"/>
<path d="M76.8184 11.6939C76.8184 10.9446 77.289 10.2604 78.2302 9.64118C79.1776 9.01576 80.6792 8.51418 82.7351 8.13645L82.8094 8.8238C81.4409 9.04053 80.3789 9.37491 79.6235 9.82694C78.868 10.279 78.4903 10.8549 78.4903 11.5546C78.4903 12.1243 78.6791 12.5515 79.0569 12.8364C79.4346 13.115 79.9052 13.2544 80.4687 13.2544C81.057 13.2544 81.5895 13.081 82.0663 12.7342C82.5431 12.3813 82.8125 12.0407 82.8744 11.7125H83.1623C83.1747 12.3131 82.8403 12.889 82.1592 13.4401C81.478 13.9851 80.6669 14.2575 79.7256 14.2575C78.772 14.2575 78.0475 14.0191 77.5521 13.5423C77.063 13.0655 76.8184 12.4494 76.8184 11.6939ZM77.2735 6.04656C77.4345 5.75552 77.7936 5.4552 78.3509 5.14559C78.9082 4.82978 79.6235 4.67188 80.4966 4.67188C81.5988 4.67188 82.4688 4.97839 83.1066 5.59143C83.7506 6.19827 84.0819 7.25096 84.1005 8.74949L84.1469 13.1058L85.4937 13.4308V14.1182H83.2181L82.7629 13.598L82.5679 12.5949L82.5865 8.67518C82.5927 7.56057 82.3852 6.78654 81.9641 6.35308C81.5493 5.91343 80.9424 5.6936 80.1436 5.6936C79.5801 5.6936 79.0971 5.7741 78.6946 5.9351C78.2921 6.08991 77.9608 6.27258 77.7008 6.48312L77.2735 6.04656Z" fill="#FAEFD8" fill-opacity="0.6"/>
<path d="M65.627 14.1167V13.4294L66.9738 13.1043L66.9924 9.23101L66.9738 6.27729L65.627 5.99864V5.19055L68.0234 4.87474L68.3392 5.10695L68.5528 6.1101L68.5342 9.23101L68.5528 13.1043L69.8067 13.4294V14.1167H65.627ZM68.5064 7.40119L68.2091 6.78816C68.4816 6.18751 68.946 5.68593 69.6024 5.28343C70.2588 4.88094 70.9616 4.67969 71.7109 4.67969C72.6521 4.67969 73.358 4.9088 73.8286 5.36703C74.2992 5.81907 74.5345 6.43829 74.5345 7.22471C74.5345 7.68294 74.5253 8.13807 74.5067 8.59011C74.4943 9.04214 74.4881 9.26816 74.4881 9.26816L74.5345 13.1043L75.8814 13.4294V14.1167H71.5251V13.4294L72.9555 13.1043L72.9741 9.23101V7.58696C72.9741 7.06681 72.81 6.66431 72.4818 6.37947C72.1598 6.08843 71.7263 5.94291 71.1814 5.94291C70.6303 5.94291 70.1133 6.07914 69.6303 6.3516C69.1473 6.61787 68.7726 6.96773 68.5064 7.40119Z" fill="#FAEFD8" fill-opacity="0.6"/>
<path d="M55.5547 16.561C55.5547 16.0347 55.7002 15.6074 55.9912 15.2792C56.2885 14.9572 56.6569 14.6786 57.0966 14.4433L57.5703 14.7684C57.3102 14.9603 57.0873 15.174 56.9015 15.4093C56.7219 15.6446 56.6321 15.9511 56.6321 16.3288C56.6321 16.7933 56.917 17.1865 57.4867 17.5085C58.0564 17.8367 58.9419 18.0007 60.1432 18.0007C61.3754 18.0007 62.2733 17.8614 62.8368 17.5828C63.4003 17.3103 63.682 16.9016 63.682 16.3567C63.682 15.8923 63.487 15.5981 63.0969 15.4743C62.713 15.3505 61.7563 15.2823 60.2268 15.27C59.075 15.2638 58.0997 15.0997 57.3009 14.7777C56.5083 14.4557 56.112 13.9015 56.112 13.115C56.112 12.5454 56.2916 12.0747 56.6507 11.7032C57.0161 11.3317 57.4588 11.0685 57.979 10.9137L58.4155 11.4896C58.0564 11.6691 57.7746 11.8487 57.5703 12.0283C57.3721 12.2079 57.273 12.4494 57.273 12.7528C57.273 13.0686 57.496 13.3163 57.9418 13.4959C58.3877 13.6693 59.2236 13.7559 60.4497 13.7559C62.0225 13.7683 63.1805 13.92 63.9235 14.2111C64.6728 14.5021 65.0474 15.0192 65.0474 15.7622C65.0474 16.6354 64.6759 17.3753 63.9328 17.9822C63.196 18.5952 61.8801 18.9017 59.9853 18.9017C58.561 18.9017 57.465 18.685 56.6972 18.2515C55.9355 17.8243 55.5547 17.2608 55.5547 16.561ZM56.3071 8.28507C56.3071 7.23238 56.6507 6.36856 57.3381 5.6936C58.0316 5.01245 58.9388 4.67188 60.0596 4.67188C61.1804 4.67188 62.0875 4.98768 62.7811 5.61929C63.4808 6.25091 63.8307 7.12402 63.8307 8.23863C63.8307 9.28512 63.487 10.1861 62.7997 10.9416C62.1123 11.6908 61.2144 12.0655 60.106 12.0655C58.979 12.0655 58.0626 11.7187 57.3566 11.0252C56.6569 10.3316 56.3071 9.41825 56.3071 8.28507ZM57.9325 8.1829C57.9325 9.16747 58.1276 9.91673 58.5177 10.4307C58.9078 10.9385 59.4218 11.1923 60.0596 11.1923C60.7407 11.1923 61.264 10.957 61.6293 10.4864C62.0008 10.0158 62.1866 9.28202 62.1866 8.28507C62.1866 7.4553 61.9916 6.80821 61.6014 6.34379C61.2175 5.87937 60.7098 5.64716 60.0781 5.64716C59.397 5.64716 58.8676 5.8546 58.4898 6.26948C58.1183 6.68436 57.9325 7.32217 57.9325 8.1829ZM61.0999 5.5357L60.9605 4.8948L65.1682 4.88551V6.06514L61.0999 5.5357Z" fill="#FAEFD8" fill-opacity="0.6"/>
<path d="M44.5078 14.1167V13.4294L45.8546 13.1043L45.8732 9.23101L45.8546 6.27729L44.5078 5.99864V5.19055L46.9042 4.87474L47.22 5.10695L47.4337 6.1101L47.4151 9.23101L47.4337 13.1043L48.6876 13.4294V14.1167H44.5078ZM47.3872 7.40119L47.09 6.78816C47.3625 6.18751 47.8269 5.68593 48.4833 5.28343C49.1396 4.88094 49.8425 4.67969 50.5917 4.67969C51.5329 4.67969 52.2389 4.9088 52.7095 5.36703C53.1801 5.81907 53.4154 6.43829 53.4154 7.22471C53.4154 7.68294 53.4061 8.13807 53.3875 8.59011C53.3751 9.04214 53.369 9.26816 53.369 9.26816L53.4154 13.1043L54.7622 13.4294V14.1167H50.406V13.4294L51.8364 13.1043L51.8549 9.23101V7.58696C51.8549 7.06681 51.6908 6.66431 51.3627 6.37947C51.0407 6.08843 50.6072 5.94291 50.0623 5.94291C49.5112 5.94291 48.9941 6.07914 48.5111 6.3516C48.0281 6.61787 47.6535 6.96773 47.3872 7.40119Z" fill="#FAEFD8" fill-opacity="0.6"/>
<path d="M34.7305 11.6939C34.7305 10.9446 35.2011 10.2604 36.1423 9.64118C37.0897 9.01576 38.5914 8.51418 40.6472 8.13645L40.7215 8.8238C39.353 9.04053 38.291 9.37491 37.5356 9.82694C36.7801 10.279 36.4024 10.8549 36.4024 11.5546C36.4024 12.1243 36.5912 12.5515 36.969 12.8364C37.3467 13.115 37.8173 13.2544 38.3808 13.2544C38.9691 13.2544 39.5016 13.081 39.9784 12.7342C40.4552 12.3813 40.7246 12.0407 40.7865 11.7125H41.0745C41.0868 12.3131 40.7525 12.889 40.0713 13.4401C39.3902 13.9851 38.579 14.2575 37.6377 14.2575C36.6841 14.2575 35.9596 14.0191 35.4643 13.5423C34.9751 13.0655 34.7305 12.4494 34.7305 11.6939ZM35.1856 6.04656C35.3466 5.75552 35.7058 5.4552 36.2631 5.14559C36.8204 4.82978 37.5356 4.67188 38.4087 4.67188C39.5109 4.67188 40.3809 4.97839 41.0187 5.59143C41.6627 6.19827 41.994 7.25096 42.0126 8.74949L42.059 13.1058L43.4058 13.4308V14.1182H41.1302L40.6751 13.598L40.48 12.5949L40.4986 8.67518C40.5048 7.56057 40.2973 6.78654 39.8763 6.35308C39.4614 5.91343 38.8545 5.6936 38.0557 5.6936C37.4922 5.6936 37.0092 5.7741 36.6067 5.9351C36.2042 6.08991 35.8729 6.27258 35.6129 6.48312L35.1856 6.04656Z" fill="#FAEFD8" fill-opacity="0.6"/>
<path d="M20.7266 7.20781C20.7266 5.17055 21.386 3.46148 22.705 2.08061C24.0239 0.693535 25.7052 0 27.7486 0C28.5846 0 29.3834 0.108365 30.145 0.325095C30.9129 0.541824 31.5723 0.845246 32.1234 1.23536L31.2132 2.26637C30.8107 1.91961 30.2967 1.65024 29.6713 1.45828C29.0459 1.26632 28.4081 1.17034 27.7579 1.17034C26.1231 1.17034 24.8351 1.67501 23.8939 2.68435C22.9527 3.6875 22.4883 5.12101 22.5006 6.98489C22.513 8.86115 23.0115 10.3875 23.9961 11.5641C24.9868 12.7344 26.3522 13.3196 28.0923 13.3196C28.984 13.3196 29.7828 13.1493 30.4887 12.8087C31.2008 12.462 31.7674 11.9882 32.1885 11.3876L33.0894 12.0935C32.6312 12.688 31.9501 13.2205 31.046 13.6911C30.1481 14.1617 29.1078 14.397 27.9251 14.397C25.8011 14.397 24.0704 13.7469 22.7329 12.4465C21.3953 11.1399 20.7266 9.39368 20.7266 7.20781ZM29.6992 8.84257V7.98803H34.2784V8.84257L33.0894 9.16766V12.0935L31.5011 12.5208V9.16766L29.6992 8.84257ZM30.6559 1.81124L31.3154 0.306518H32.207V4.412H31.2318L30.6559 1.81124Z" fill="#FAEFD8" fill-opacity="0.6"/>
<path d="M5.87891 14.1167V13.4294L7.22573 13.1043L7.2443 9.23101L7.22573 6.27729L5.87891 5.99864V5.19055L8.27532 4.87474L8.59112 5.10695L8.80476 6.1101L8.78618 9.23101L8.80476 13.1043L10.0587 13.4294V14.1167H5.87891ZM8.75831 7.40119L8.46109 6.78816C8.73355 6.18751 9.19797 5.68593 9.85435 5.28343C10.5107 4.88094 11.2136 4.67969 11.9628 4.67969C12.904 4.67969 13.61 4.9088 14.0806 5.36703C14.5512 5.81907 14.7865 6.43829 14.7865 7.22471C14.7865 7.68294 14.7772 8.13807 14.7586 8.59011C14.7462 9.04214 14.7401 9.26816 14.7401 9.26816L14.7865 13.1043L16.1333 13.4294V14.1167H11.777V13.4294L13.2075 13.1043L13.226 9.23101V7.58696C13.226 7.06681 13.0619 6.66431 12.7338 6.37947C12.4118 6.08843 11.9783 5.94291 11.4334 5.94291C10.8823 5.94291 10.3652 6.07914 9.88221 6.3516C9.39921 6.61787 9.02458 6.96773 8.75831 7.40119Z" fill="#FAEFD8" fill-opacity="0.6"/>
<path d="M0.0464421 14.1201V13.4328L1.56974 13.1077L1.58832 9.27156L1.5233 6.28069L0 6.00204V5.19394L2.5636 4.86885H2.97229L3.19521 5.2311L3.1302 9.27156L3.14877 13.1077L4.58848 13.4328V14.1201H0.0464421ZM1.16105 1.72937C1.16105 1.37021 1.26013 1.09466 1.45828 0.902697C1.65643 0.704545 1.94437 0.605469 2.3221 0.605469C2.66887 0.605469 2.94752 0.710737 3.15806 0.921274C3.3686 1.12562 3.47387 1.39498 3.47387 1.72937C3.47387 2.09471 3.37479 2.37646 3.17664 2.57461C2.97848 2.76657 2.69364 2.86255 2.3221 2.86255C1.96914 2.86255 1.68739 2.76038 1.47686 2.55604C1.26632 2.3455 1.16105 2.06994 1.16105 1.72937Z" fill="#FAEFD8" fill-opacity="0.6"/>
<path d="M90.6131 27.7717H87.9803C87.7386 27.7717 87.5067 27.8677 87.3358 28.0387C87.1648 28.2096 87.0688 28.4415 87.0688 28.6832V59.0916L86.6267 58.294C86.6267 58.294 81.3217 48.8567 78.5613 43.9284C75.614 38.6538 69.9565 28.5647 69.9565 28.5647C69.8096 28.3347 69.6101 28.143 69.3745 28.0054C69.1388 27.8678 68.8738 27.7882 68.6014 27.7732H66.1919C65.952 27.776 65.7229 27.8733 65.5542 28.0439C65.3856 28.2146 65.291 28.4448 65.291 28.6847V68.0139C65.291 68.2538 65.3856 68.4841 65.5542 68.6547C65.7229 68.8254 65.952 68.9226 66.1919 68.9254H68.8019C69.0436 68.9254 69.2755 68.8294 69.4464 68.6584C69.6174 68.4875 69.7134 68.2557 69.7134 68.0139V37.1741C69.7134 37.1741 69.9094 37.5083 70.1692 37.9337C70.1692 37.9337 70.5475 38.5945 70.9197 39.2402C76.4055 49.0542 87.1083 68.1324 87.1083 68.1324C87.2542 68.3633 87.4534 68.5558 87.6893 68.6936C87.9251 68.8313 88.1906 68.9103 88.4634 68.9239H90.6025C90.8442 68.9239 91.0761 68.8279 91.247 68.6569C91.418 68.486 91.514 68.2541 91.514 68.0124V28.6771C91.5116 28.4361 91.4148 28.2057 91.2444 28.0352C91.074 27.8648 90.8435 27.768 90.6025 27.7656" fill="#FAEFD8" fill-opacity="0.6"/>
<path d="M110.041 27.7695H107.111C106.869 27.7695 106.637 27.8656 106.466 28.0365C106.295 28.2075 106.199 28.4393 106.199 28.6811V68.0284C106.202 68.2695 106.298 68.4999 106.469 68.6704C106.639 68.8408 106.87 68.9376 107.111 68.94H110.028C110.269 68.94 110.501 68.8439 110.672 68.673C110.843 68.502 110.939 68.2702 110.939 68.0284V28.6811C110.939 28.4393 110.843 28.2075 110.672 28.0365C110.501 27.8656 110.269 27.7695 110.028 27.7695" fill="#FAEFD8" fill-opacity="0.6"/>
<path d="M49.801 27.7695H46.8432C46.7235 27.7695 46.6049 27.7931 46.4943 27.8389C46.3837 27.8847 46.2833 27.9519 46.1986 28.0365C46.114 28.1212 46.0468 28.2216 46.001 28.3322C45.9552 28.4428 45.9316 28.5614 45.9316 28.6811V68.0284C45.9316 68.1482 45.9552 68.2667 46.001 68.3773C46.0468 68.4879 46.114 68.5883 46.1986 68.673C46.2833 68.7576 46.3837 68.8248 46.4943 68.8706C46.6049 68.9164 46.7235 68.94 46.8432 68.94H49.7874C50.0291 68.94 50.261 68.8439 50.4319 68.673C50.6029 68.502 50.6989 68.2702 50.6989 68.0284V28.6811C50.6989 28.4393 50.6029 28.2075 50.4319 28.0365C50.261 27.8656 50.0291 27.7695 49.7874 27.7695" fill="#FAEFD8" fill-opacity="0.6"/>
<path d="M30.46 27.7645H26.697C26.4233 27.7806 26.1575 27.8619 25.9218 28.0017C25.686 28.1415 25.4872 28.3358 25.3418 28.5682L16.2266 45.2414C16.1654 44.9253 16.0847 44.6133 15.9851 44.3071C15.9851 44.3071 15.6174 43.1738 15.2148 42.2653C14.4405 40.493 13.5419 38.7776 12.5258 37.1319C10.5096 33.7428 7.94239 30.7135 4.92982 28.1686C4.52204 27.8521 4.00739 27.7062 3.49417 27.7615H0.922157C0.679657 27.7622 0.447153 27.8582 0.274688 28.0287C0.102222 28.1992 0.00358254 28.4305 2.11123e-09 28.673V68.0173C-8.20587e-06 68.138 0.0239167 68.2574 0.0703886 68.3686C0.11686 68.4799 0.184955 68.5809 0.270728 68.6657C0.3565 68.7505 0.458244 68.8174 0.570066 68.8626C0.681887 68.9077 0.801562 68.9303 0.922157 68.9289H3.54278C3.78454 68.9289 4.01638 68.8328 4.18733 68.6619C4.35827 68.4909 4.45431 68.2591 4.45431 68.0173V33.8748C4.67525 34.0561 4.8829 34.2531 5.07566 34.4642C5.07566 34.4642 6.01909 35.4532 6.87592 36.5531C9.42298 39.9552 11.3392 43.7865 12.5334 47.8651C12.977 49.2916 13.5088 51.537 13.5088 51.537C13.5459 51.8008 13.6833 52.0401 13.8925 52.2051C14.1016 52.37 14.3663 52.448 14.6315 52.4227H16.6064C16.8787 52.4074 17.1434 52.3272 17.3784 52.1887C17.6133 52.0502 17.8117 51.8575 17.957 51.6267L26.2929 36.4058C26.5283 35.9637 26.7304 35.6462 26.7304 35.6462V68.0052C26.7304 68.2456 26.8254 68.4763 26.9947 68.6471C27.164 68.8178 27.3939 68.9147 27.6343 68.9167H30.46C30.7018 68.9167 30.9336 68.8207 31.1046 68.6497C31.2755 68.4788 31.3716 68.247 31.3716 68.0052V28.6821C31.3684 28.4413 31.2714 28.2113 31.1011 28.0411C30.9308 27.8708 30.7008 27.7737 30.46 27.7706" fill="#FAEFD8" fill-opacity="0.6"/>
<path d="M185.087 27.7695H182.127C181.885 27.7695 181.654 27.8656 181.483 28.0365C181.312 28.2075 181.216 28.4393 181.216 28.6811L181.225 44.8424V45.7539H164.34V44.8424L164.35 28.6811C164.35 28.4393 164.253 28.2075 164.083 28.0365C163.912 27.8656 163.68 27.7695 163.438 27.7695H160.494C160.253 27.7715 160.023 27.8685 159.854 28.0392C159.685 28.2099 159.59 28.4406 159.59 28.6811V68.0072C159.59 68.2476 159.685 68.4783 159.854 68.649C160.023 68.8198 160.253 68.9167 160.494 68.9187H163.438C163.68 68.9187 163.912 68.8227 164.083 68.6517C164.253 68.4808 164.35 68.2489 164.35 68.0072L164.34 50.9921V50.0806H181.217V68.0163C181.217 68.258 181.313 68.4899 181.484 68.6608C181.655 68.8318 181.887 68.9278 182.129 68.9278H185.088C185.329 68.9254 185.56 68.8286 185.73 68.6582C185.901 68.4878 185.997 68.2573 186 68.0163V28.6811C186 28.4393 185.904 28.2075 185.733 28.0365C185.562 27.8656 185.328 27.7695 185.087 27.7695Z" fill="#FAEFD8" fill-opacity="0.6"/>
<path d="M146.208 50.0279C144.916 48.8378 143.425 47.8839 141.802 47.2098C138.989 46.0066 136.168 44.8444 133.327 43.6883C132.117 43.2554 130.985 42.6295 129.975 41.8348C129.207 41.2003 128.615 40.3782 128.257 39.448C127.899 38.5179 127.787 37.5111 127.932 36.525C128.077 35.5389 128.473 34.6069 129.084 33.8189C129.694 33.0309 130.497 32.4137 131.416 32.0269C133.875 30.9482 136.651 30.8396 139.186 31.723C140.493 32.1333 141.642 32.9352 142.478 34.0201C142.918 34.6206 143.318 35.2483 143.679 35.8993C143.738 36.0022 143.818 36.0919 143.914 36.1632C144.009 36.2345 144.118 36.2858 144.233 36.3142C144.349 36.3426 144.469 36.3474 144.586 36.3283C144.704 36.3092 144.816 36.2666 144.917 36.2031L147.168 34.7918C147.373 34.6573 147.521 34.4519 147.584 34.215C147.647 33.9781 147.62 33.7264 147.508 33.5081C147.068 32.6974 146.546 31.9339 145.95 31.2293C143.821 28.8782 140.857 27.4524 137.691 27.2566C135.852 27.0473 133.99 27.1422 132.181 27.5376C130.169 27.9362 128.289 28.8372 126.718 30.1567C125.703 31.0214 124.878 32.0871 124.295 33.2864C123.713 34.4858 123.384 35.7929 123.332 37.1253C123.15 39.3948 123.793 41.6537 125.144 43.4862C126.234 44.9613 127.672 46.144 129.33 46.9287C131.33 47.8767 133.384 48.6895 135.407 49.5706C137.196 50.353 139.025 51.0549 140.753 51.9558C141.877 52.4705 142.834 53.2899 143.516 54.321C144.198 55.3521 144.577 56.5537 144.611 57.7895C144.719 59.2639 144.348 60.7337 143.555 61.981C142.761 63.2283 141.587 64.1867 140.206 64.7141C137.618 65.7231 134.761 65.8021 132.122 64.9374C130.504 64.4666 129.11 63.427 128.198 62.0099C127.472 60.8367 127.106 59.4767 127.145 58.0979V57.7439C127.115 57.5288 127.004 57.3331 126.835 57.1975C126.665 57.0618 126.45 56.9964 126.234 57.0147H123.374C123.134 57.0183 122.904 57.1154 122.734 57.2856C122.564 57.4558 122.466 57.6856 122.463 57.9263C122.463 57.9263 122.463 58.6403 122.531 59.3011C122.656 61.0086 123.202 62.6585 124.12 64.1037C125.037 65.549 126.299 66.7446 127.791 67.5838C129.655 68.6547 131.734 69.3001 133.877 69.4737C136.48 69.7802 139.12 69.4988 141.6 68.6503C144.409 67.7344 146.742 65.7442 148.089 63.1143C149.081 61.0925 149.498 58.8367 149.294 56.5939C149.156 54.0877 148.05 51.7331 146.208 50.0279Z" fill="#FAEFD8" fill-opacity="0.6"/>
</svg>
