<svg width="150" height="150" viewBox="0 0 150 150" fill="none" xmlns="http://www.w3.org/2000/svg">
<circle cx="75" cy="75" r="75" fill="#AA9B7A"/>
<path fill-rule="evenodd" clip-rule="evenodd" d="M62.8544 119.991C62.5689 119.964 62.2913 119.882 62.0376 119.748C61.7839 119.613 61.559 119.43 61.3758 119.209C61.1925 118.988 61.0545 118.732 60.9697 118.457C60.8848 118.182 60.8547 117.893 60.8812 117.607L62.634 98.5091L71.4634 103.198L73.4934 90.9411C73.5887 90.3678 73.9069 89.856 74.378 89.5182C74.6113 89.351 74.8752 89.2315 75.1545 89.1666C75.4338 89.1017 75.7231 89.0927 76.0059 89.14C76.2886 89.1873 76.5594 89.2901 76.8026 89.4425C77.0458 89.5948 77.2567 89.7938 77.4233 90.028C77.59 90.2621 77.709 90.527 77.7736 90.8073C77.8383 91.0877 77.8473 91.3781 77.8001 91.662L74.7748 109.914L66.3797 105.457L65.2293 118.01C65.203 118.297 65.1207 118.575 64.9871 118.83C64.8535 119.084 64.6712 119.31 64.4507 119.494C64.2301 119.678 63.9757 119.817 63.7018 119.902C63.4279 119.987 63.1399 120.017 62.8544 119.991ZM32.2776 90.5292C32.1377 90.278 32.0484 90.0016 32.0149 89.7158C31.9815 89.4299 32.0044 89.1403 32.0824 88.8634C32.1605 88.5864 32.2921 88.3277 32.4698 88.1018C32.6475 87.876 32.8677 87.6875 33.118 87.5471L50.4561 77.8208L51.6544 88.2438L63.5355 82.6785C64.0603 82.4329 64.6607 82.4067 65.2047 82.6056C65.7488 82.8045 66.1918 83.2122 66.4364 83.7389C66.681 84.2657 66.7071 84.8685 66.509 85.4146C66.3109 85.9607 65.9047 86.4054 65.3799 86.6509L48.0113 94.7865L46.8697 84.8542L35.2484 91.3727C34.7433 91.6557 34.1468 91.7258 33.5902 91.5676C33.0336 91.4094 32.5601 91.0359 32.2776 90.5292ZM42.4255 46.2668C42.7259 45.7704 43.2103 45.4141 43.7722 45.2761C44.3342 45.138 44.9277 45.2296 45.4225 45.5306L62.813 56.1245L54.1319 62.4853L65.1944 70.3886C65.428 70.5555 65.6266 70.7669 65.7788 71.0108C65.931 71.2548 66.0339 71.5264 66.0815 71.8102C66.1292 72.0941 66.1206 72.3845 66.0564 72.6651C65.9922 72.9456 65.8736 73.2107 65.7074 73.4452C65.5411 73.6797 65.3305 73.879 65.0875 74.0318C64.8445 74.1846 64.5738 74.2878 64.2911 74.3357C64.0083 74.3835 63.719 74.3749 63.4395 74.3105C63.16 74.246 62.896 74.127 62.6623 73.9601L46.6645 62.5313L54.9505 56.462L43.1589 49.2752C42.6645 48.9737 42.3095 48.4874 42.172 47.9233C42.0344 47.3593 42.1256 46.7634 42.4255 46.2668ZM90.2334 37.0335C90.8029 37.135 91.3089 37.4592 91.6404 37.935C91.9719 38.4107 92.1018 38.999 92.0015 39.5708L88.7229 58.2433L80.4217 52.9124L77.44 64.7509C77.295 65.3109 76.9353 65.7906 76.4393 66.0853C75.9433 66.3801 75.3513 66.4659 74.7925 66.3242C74.2337 66.1824 73.7534 65.8246 73.4565 65.3287C73.1595 64.8328 73.07 64.2391 73.2075 63.6772L77.6735 45.9425L85.56 51.0105L87.7035 38.8105C87.7534 38.527 87.8583 38.2562 88.0124 38.0135C88.1665 37.7707 88.3668 37.5609 88.6017 37.3959C88.8367 37.2308 89.1017 37.1139 89.3817 37.0517C89.6616 36.9896 89.9511 36.9834 90.2334 37.0335ZM117.73 67.7636C117.868 68.0159 117.956 68.2929 117.987 68.5789C118.018 68.8649 117.993 69.1544 117.913 69.4307C117.833 69.707 117.7 69.9647 117.52 70.1893C117.341 70.4138 117.119 70.6006 116.868 70.7392L100.244 79.8914L99.1895 70.0117L88.0637 75.117C87.5369 75.3587 86.936 75.3805 86.3932 75.1775C85.8504 74.9745 85.4101 74.5634 85.1693 74.0346C84.9285 73.5058 84.9068 72.9026 85.109 72.3577C85.3112 71.8128 85.7208 71.3709 86.2476 71.1292L102.883 63.4998L103.887 72.8864L114.768 66.896C115.276 66.617 115.873 66.5517 116.428 66.7144C116.984 66.8771 117.452 67.2545 117.73 67.7636ZM106.401 107.479C106.101 107.976 105.617 108.332 105.055 108.47C104.493 108.608 103.899 108.517 103.404 108.216L86.9919 98.2177L95.1054 92.2733L84.951 85.0185C84.7174 84.8517 84.5188 84.6402 84.3666 84.3963C84.2144 84.1524 84.1115 83.8807 84.0639 83.5969C84.0163 83.3131 84.0248 83.0226 84.089 82.7421C84.1532 82.4616 84.2718 82.1965 84.4381 81.962C84.7738 81.4884 85.2833 81.168 85.8543 81.0715C86.1371 81.0237 86.4265 81.0322 86.7059 81.0967C86.9854 81.1611 87.2495 81.2802 87.4831 81.4471L102.571 92.2273L94.8544 97.8803L105.668 104.469C105.913 104.618 106.127 104.815 106.296 105.047C106.466 105.279 106.588 105.542 106.656 105.822C106.724 106.101 106.737 106.392 106.693 106.676C106.649 106.96 106.55 107.233 106.401 107.479Z" fill="white" stroke="white"/>
</svg>
