<svg width="150" height="150" viewBox="0 0 150 150" fill="none" xmlns="http://www.w3.org/2000/svg">
<circle cx="75" cy="75" r="75" fill="#322C28"/>
<path d="M112 62.3617C112 60.9304 108.122 62.4418 107.669 62.7565C103.94 65.3166 99.3726 67.1674 94.5131 68.4505V43.5706C94.5131 42.6391 92.2076 43.108 91.8285 43.1943C84.0358 44.8785 78.1198 50.6712 74.615 57.5559C71.4954 50.9859 66.1325 45.2178 59.0172 43.1326C57.8862 42.7933 54.6547 43.2005 54.6547 44.8353V68.1544C49.9381 66.7725 45.4576 64.8046 41.6793 62.1149C40.5918 61.3438 37 62.0285 37 63.651C37 78.2902 37.5531 94.5087 49.2607 105.101C58.0167 113.041 74.0681 115.817 84.4211 109.592C96.396 102.393 94.5131 86.6493 94.5131 74.7307V71.0909C98.9873 69.9311 103.269 68.2963 107.134 66.1001C106.948 79.0675 105.139 91.8745 96.7067 102.442C95.5136 103.954 100.33 103.411 101.162 102.343C110.44 90.7394 111.988 76.6246 112 62.3555V62.3617ZM59.4957 68.9441V47.1549C65.8901 50.8748 70.1904 57.9384 71.9553 64.854C72.3343 66.3099 76.5041 65.0205 76.79 63.8669C78.5175 57.0809 83.3895 49.6965 89.6784 47.2289V69.5425C84.3527 70.5295 78.8966 70.9243 73.95 70.8811C69.3639 70.8441 64.3863 70.3815 59.5019 69.3697C59.5019 69.2278 59.5019 69.0921 59.5019 68.9502L59.4957 68.9441ZM89.6784 85.8658C89.6784 92.6518 89.0445 99.518 84.7442 105.058C76.908 115.15 59.5516 109.216 52.1504 101.764C43.0651 92.5901 41.9901 79.0922 41.8658 66.7355C45.8305 68.8022 50.1805 70.2951 54.661 71.3438C54.6858 81.6894 55.2202 92.4051 64.1812 99.3206C65.4054 100.252 69.7927 98.3767 68.7052 97.5377C60.5583 91.2453 59.6137 81.7264 59.5081 72.3C64.6224 73.1329 69.7803 73.466 74.6212 73.466C79.4621 73.466 84.6945 73.065 89.6721 72.1581V85.8658H89.6784Z" fill="white"/>
</svg>
