<svg width="150" height="150" viewBox="0 0 150 150" fill="none" xmlns="http://www.w3.org/2000/svg">
<circle cx="75" cy="75" r="75" fill="#DDD1B4"/>
<path d="M75.0002 104.167C69.4502 106.758 62.1543 108.333 54.1668 108.333C49.7252 108.333 45.5002 107.846 41.6668 106.971C39.2043 106.404 37.971 106.125 36.496 104.954C35.5307 104.128 34.7317 103.125 34.1418 102C33.3335 100.304 33.3335 98.6542 33.3335 95.3583V50.475C33.3335 46.3708 37.6668 43.5542 41.6668 44.4708C45.5002 45.3458 49.7252 45.8333 54.1668 45.8333C62.1543 45.8333 69.4502 44.2583 75.0002 41.6667C80.5502 39.075 87.846 37.5 95.8335 37.5C100.275 37.5 104.5 37.9875 108.333 38.8625C110.796 39.4292 112.029 39.7125 113.504 40.8792C114.346 41.5458 115.396 42.8625 115.858 43.8333C116.667 45.5333 116.667 47.1792 116.667 50.475V75M87.5002 100H116.667" stroke="white" stroke-width="6.25" stroke-linecap="round" stroke-linejoin="round"/>
<path d="M47.917 79.1663V79.2038M102.084 70.7997V70.8413M85.417 74.9997C85.417 77.7623 84.3195 80.4119 82.366 82.3654C80.4125 84.3189 77.763 85.4163 75.0003 85.4163C72.2377 85.4163 69.5881 84.3189 67.6346 82.3654C65.6811 80.4119 64.5837 77.7623 64.5837 74.9997C64.5837 72.237 65.6811 69.5875 67.6346 67.634C69.5881 65.6805 72.2377 64.583 75.0003 64.583C77.763 64.583 80.4125 65.6805 82.366 67.634C84.3195 69.5875 85.417 72.237 85.417 74.9997Z" stroke="white" stroke-width="6.25" stroke-linecap="round" stroke-linejoin="round"/>
</svg>
