<svg width="180" height="180" viewBox="0 0 180 180" fill="none" xmlns="http://www.w3.org/2000/svg">
<circle cx="90" cy="90" r="90" fill="#89A6B9"/>
<g clip-path="url(#clip0_821_763)">
<path d="M97.5795 109.59C94.0695 109.59 92.9195 105.83 92.8095 103.84L91.8395 96.23C91.7695 95.11 90.1795 94.78 89.8195 94.72H89.4295C89.0695 94.78 87.4795 95.1 87.4195 96.15L86.4295 103.92C86.3195 105.82 85.1695 109.58 81.6595 109.58C80.3295 109.58 77.7195 108.52 77.3895 104.51L76.5595 93.69C76.4595 93.35 76.0695 92.21 75.3595 91.24L75.2995 91.15C75.1595 90.92 71.8795 85.46 72.1795 79.98C72.1795 79.89 72.1795 75.97 74.7995 73.32C76.3295 71.78 78.3795 71 80.9095 71H81.0195C81.1295 71 83.8795 71.03 86.3095 72.86C86.5395 72.98 87.5895 73.48 89.1195 73.57H89.6295H89.9695C91.4995 73.45 92.6695 72.84 92.8795 72.72C95.2995 71.02 98.0995 71 98.2195 71H98.3195C100.85 71 102.91 71.78 104.43 73.32C107.06 75.97 107.05 79.9 107.05 80.06C107.35 85.45 104.08 90.92 103.94 91.14L103.88 91.23C103.17 92.2 102.78 93.35 102.68 93.68L101.85 104.49C101.52 108.51 98.9195 109.57 97.5795 109.57V109.59ZM77.4095 89.81C78.5095 91.33 78.9795 93.07 78.9995 93.14L79.0395 93.37L79.8795 104.31C80.1095 107.05 81.6395 107.08 81.6595 107.08C83.6895 107.08 83.9395 103.72 83.9395 103.68L84.9295 95.91C85.0695 93.61 87.2995 92.48 89.1695 92.23H89.3295H90.0695C91.9395 92.48 94.1695 93.61 94.3195 95.99L95.2895 103.6C95.2895 103.72 95.5395 107.06 97.5595 107.08C97.8495 107.06 99.1395 106.83 99.3495 104.3L100.23 93.13C100.25 93.06 100.72 91.32 101.82 89.8C102.1 89.31 104.8 84.58 104.55 80.11C104.55 80 104.53 76.95 102.64 75.06C101.6 74.02 100.15 73.49 98.3095 73.49H98.2095C98.2095 73.49 96.0395 73.52 94.2895 74.78C94.1495 74.87 92.6495 75.76 90.5695 76.01V76.09L89.7495 76.07L88.6495 76.13V76.02C86.4595 75.82 85.0495 75 84.9895 74.96L84.8695 74.88C83.1095 73.52 81.0295 73.49 81.0095 73.49C79.0795 73.49 77.6195 74.02 76.5795 75.07C74.7095 76.96 74.6795 80 74.6795 80.03C74.4295 84.59 77.1295 89.32 77.4095 89.8V89.81Z" fill="white"/>
<path d="M77.82 94.7617H69V97.2617H77.82V94.7617Z" fill="white"/>
<path d="M110.23 94.7617H101.41V97.2617H110.23V94.7617Z" fill="white"/>
<path d="M103.568 74.2881L95.2539 81.4141L96.8808 83.3122L105.195 76.1863L103.568 74.2881Z" fill="white"/>
<path d="M101.371 79.1286L98.8945 79.4688L99.5844 84.4916L102.061 84.1514L101.371 79.1286Z" fill="white"/>
</g>
<defs>
<clipPath id="clip0_821_763">
<rect width="41.23" height="38.59" fill="white" transform="translate(69 71)"/>
</clipPath>
</defs>
</svg>
