<svg width="145" height="33" viewBox="0 0 145 33" fill="none" xmlns="http://www.w3.org/2000/svg">
<path d="M70.4498 0.483238H68.4029C68.215 0.483238 68.0347 0.557901 67.9018 0.690804C67.7689 0.823707 67.6942 1.00397 67.6942 1.19192V24.8335L67.3505 24.2134C67.3505 24.2134 63.226 16.8762 61.0799 13.0446C58.7885 8.94369 54.39 1.09979 54.39 1.09979C54.2758 0.920983 54.1207 0.771922 53.9375 0.664919C53.7543 0.557916 53.5482 0.496044 53.3364 0.484418H51.4631C51.2766 0.486594 51.0985 0.562218 50.9673 0.694886C50.8362 0.827554 50.7627 1.00657 50.7627 1.1931V31.7702C50.7627 31.9568 50.8362 32.1358 50.9673 32.2685C51.0985 32.4011 51.2766 32.4767 51.4631 32.4789H53.4923C53.6802 32.4789 53.8605 32.4043 53.9934 32.2714C54.1263 32.1385 54.201 31.9582 54.201 31.7702V7.79327C54.201 7.79327 54.3533 8.05312 54.5553 8.38383C54.5553 8.38383 54.8494 8.89762 55.1388 9.3996C59.4039 17.0297 67.7249 31.8624 67.7249 31.8624C67.8383 32.0419 67.9932 32.1916 68.1766 32.2987C68.36 32.4058 68.5664 32.4672 68.7785 32.4777H70.4415C70.6295 32.4777 70.8097 32.4031 70.9427 32.2702C71.0756 32.1373 71.1502 31.957 71.1502 31.7691V1.18719C71.1484 0.999812 71.0731 0.820629 70.9406 0.688123C70.8081 0.555618 70.6289 0.480362 70.4415 0.478516" fill="white"/>
<path d="M85.5525 0.483398H83.2741C83.0862 0.483398 82.9059 0.558062 82.773 0.690965C82.6401 0.823868 82.5654 1.00413 82.5654 1.19208V31.7834C82.5673 31.9708 82.6425 32.15 82.775 32.2825C82.9075 32.415 83.0867 32.4902 83.2741 32.4921H85.5419C85.7298 32.4921 85.9101 32.4174 86.043 32.2845C86.1759 32.1516 86.2506 31.9714 86.2506 31.7834V1.19208C86.2506 1.00413 86.1759 0.823868 86.043 0.690965C85.9101 0.558062 85.7298 0.483398 85.5419 0.483398" fill="white"/>
<path d="M38.7183 0.483398H36.4186C36.3256 0.483398 36.2334 0.50173 36.1474 0.537345C36.0615 0.572959 35.9833 0.625158 35.9175 0.690965C35.8517 0.756772 35.7995 0.834899 35.7639 0.92088C35.7283 1.00686 35.71 1.09902 35.71 1.19208V31.7834C35.71 31.8765 35.7283 31.9686 35.7639 32.0546C35.7995 32.1406 35.8517 32.2187 35.9175 32.2845C35.9833 32.3503 36.0615 32.4025 36.1474 32.4381C36.2334 32.4737 36.3256 32.4921 36.4186 32.4921H38.7077C38.8956 32.4921 39.0759 32.4174 39.2088 32.2845C39.3417 32.1516 39.4163 31.9714 39.4163 31.7834V1.19208C39.4163 1.00413 39.3417 0.823868 39.2088 0.690965C39.0759 0.558062 38.8956 0.483398 38.7077 0.483398" fill="white"/>
<path d="M23.6817 0.478574H20.756C20.5433 0.491047 20.3366 0.554279 20.1533 0.662982C19.97 0.771686 19.8154 0.922699 19.7025 1.10339L12.6157 14.0663C12.5681 13.8205 12.5054 13.578 12.4279 13.3399C12.4279 13.3399 12.142 12.4588 11.829 11.7525C11.227 10.3746 10.5284 9.04091 9.73843 7.76144C8.17087 5.12646 6.17495 2.77128 3.83277 0.792754C3.51574 0.546691 3.11561 0.433213 2.7166 0.476209H0.716947C0.528411 0.476808 0.347647 0.551407 0.213561 0.683947C0.0794741 0.816487 0.00278531 0.996375 1.64141e-09 1.18489V31.7738C-6.3798e-06 31.8676 0.0185945 31.9604 0.0547249 32.047C0.0908552 32.1335 0.143797 32.212 0.210482 32.2779C0.277167 32.3438 0.35627 32.3958 0.443208 32.431C0.530145 32.4661 0.623189 32.4836 0.716947 32.4825H2.7544C2.94235 32.4825 3.12261 32.4079 3.25551 32.275C3.38842 32.1421 3.46308 31.9618 3.46308 31.7738V5.22909C3.63485 5.37011 3.79629 5.52326 3.94616 5.68737C3.94616 5.68737 4.67965 6.45628 5.3458 7.31142C7.32607 9.9564 8.81583 12.9351 9.74434 16.1061C10.0892 17.2152 10.5026 18.9609 10.5026 18.9609C10.5315 19.166 10.6383 19.352 10.8009 19.4803C10.9635 19.6086 11.1693 19.6692 11.3755 19.6495H12.911C13.1227 19.6376 13.3284 19.5752 13.5111 19.4676C13.6938 19.3599 13.848 19.2101 13.961 19.0306L20.4419 7.19685C20.6249 6.85314 20.782 6.60629 20.782 6.60629V31.7644C20.782 31.9513 20.8559 32.1307 20.9875 32.2634C21.1191 32.3962 21.2979 32.4715 21.4848 32.4731H23.6817C23.8697 32.4731 24.0499 32.3984 24.1828 32.2655C24.3157 32.1326 24.3904 31.9524 24.3904 31.7644V1.19198C24.3879 1.00479 24.3125 0.825947 24.1801 0.693571C24.0477 0.561195 23.8689 0.485744 23.6817 0.483296" fill="white"/>
<path d="M143.898 0.483398H141.597C141.409 0.483398 141.229 0.558062 141.096 0.690965C140.963 0.823868 140.889 1.00413 140.889 1.19208L140.896 13.757V14.4656H127.769V13.757L127.776 1.19208C127.776 1.00413 127.701 0.823868 127.568 0.690965C127.435 0.558062 127.255 0.483398 127.067 0.483398H124.778C124.591 0.484956 124.412 0.560308 124.281 0.693042C124.149 0.825777 124.075 1.00515 124.075 1.19208V31.7669C124.075 31.9538 124.149 32.1332 124.281 32.2659C124.412 32.3986 124.591 32.474 124.778 32.4755H127.067C127.255 32.4755 127.435 32.4009 127.568 32.268C127.701 32.1351 127.776 31.9548 127.776 31.7669L127.769 18.5382V17.8295H140.89V31.774C140.89 31.9619 140.964 32.1422 141.097 32.2751C141.23 32.408 141.411 32.4826 141.598 32.4826H143.899C144.087 32.4808 144.266 32.4055 144.398 32.273C144.531 32.1405 144.606 31.9613 144.608 31.774V1.19208C144.608 1.00413 144.533 0.823868 144.4 0.690965C144.268 0.558062 144.086 0.483398 143.898 0.483398Z" fill="white"/>
<path d="M113.672 17.788C112.667 16.8628 111.508 16.1212 110.247 15.597C108.059 14.6616 105.866 13.758 103.657 12.8592C102.717 12.5226 101.837 12.036 101.052 11.4182C100.454 10.9248 99.994 10.2857 99.7157 9.56254C99.4373 8.83937 99.3502 8.05665 99.4628 7.29C99.5754 6.52335 99.8838 5.7987 100.358 5.18607C100.833 4.57345 101.457 4.09357 102.171 3.79281C104.083 2.95416 106.241 2.86977 108.213 3.55659C109.229 3.87559 110.122 4.499 110.772 5.34246C111.114 5.80935 111.425 6.29735 111.705 6.80352C111.752 6.88349 111.814 6.95327 111.888 7.00869C111.962 7.06411 112.047 7.10404 112.137 7.12609C112.226 7.14813 112.32 7.15186 112.411 7.13702C112.502 7.12219 112.59 7.0891 112.668 7.03974L114.419 5.94248C114.578 5.83789 114.693 5.67821 114.742 5.49404C114.79 5.30987 114.77 5.11416 114.683 4.94442C114.34 4.31415 113.934 3.7205 113.471 3.17272C111.816 1.3448 109.512 0.236359 107.051 0.0840569C105.62 -0.0786397 104.173 -0.004815 102.767 0.302568C101.202 0.612498 99.7408 1.31295 98.5193 2.33884C97.7301 3.01113 97.0887 3.83962 96.6356 4.77209C96.1825 5.70455 95.9274 6.72077 95.8865 7.75669C95.7448 9.52112 96.2452 11.2773 97.2956 12.7021C98.143 13.849 99.2608 14.7684 100.55 15.3785C102.105 16.1156 103.702 16.7475 105.274 17.4325C106.666 18.0408 108.088 18.5865 109.431 19.2869C110.304 19.6871 111.049 20.3242 111.579 21.1258C112.109 21.9275 112.404 22.8617 112.431 23.8225C112.514 24.9688 112.226 26.1115 111.609 27.0812C110.992 28.0509 110.079 28.796 109.005 29.2061C106.994 29.9906 104.772 30.052 102.721 29.3797C101.462 29.0137 100.379 28.2054 99.6697 27.1036C99.1057 26.1915 98.8212 25.1342 98.8512 24.0622V23.787C98.8282 23.6197 98.7418 23.4676 98.61 23.3621C98.4781 23.2566 98.3108 23.2058 98.1425 23.2201H95.9196C95.7325 23.2228 95.5539 23.2984 95.4215 23.4307C95.2892 23.563 95.2137 23.7417 95.2109 23.9288C95.2109 23.9288 95.2109 24.4839 95.2641 24.9977C95.3613 26.3252 95.7855 27.6079 96.499 28.7316C97.2125 29.8552 98.1931 30.7847 99.3532 31.4372C100.803 32.2698 102.419 32.7715 104.085 32.9065C106.109 33.1448 108.161 32.9261 110.09 32.2664C112.274 31.5542 114.087 30.0069 115.134 27.9623C115.906 26.3904 116.23 24.6366 116.071 22.8929C115.964 20.9444 115.104 19.1138 113.672 17.788Z" fill="white"/>
</svg>
